<svg id="svg" version="1.1" xmlns="http://www.w3.org/2000/svg" xmlns:xlink="http://www.w3.org/1999/xlink" width="400" height="140.37735849056602" viewBox="0, 0, 400,140.37735849056602"><g id="svgg"><path id="path0" d="M119.412 27.659 C 119.477 27.764,119.406 27.787,119.230 27.719 C 119.007 27.634,118.967 27.674,119.052 27.896 C 119.113 28.055,119.096 28.143,119.015 28.092 C 118.933 28.042,118.867 28.561,118.867 29.245 C 118.867 29.929,118.915 30.483,118.975 30.475 C 119.629 30.389,119.667 30.472,119.667 32.000 C 119.667 33.389,119.691 33.500,120.000 33.500 C 120.309 33.500,120.496 34.456,120.341 35.244 C 120.241 35.754,120.537 36.500,120.841 36.500 C 121.133 36.500,121.167 36.620,121.167 37.667 C 121.167 38.722,121.198 38.833,121.500 38.833 C 121.806 38.833,121.833 38.944,121.833 40.167 C 121.833 40.994,121.900 41.500,122.010 41.500 C 122.107 41.500,122.140 41.575,122.083 41.667 C 122.027 41.758,122.135 41.833,122.323 41.833 C 122.643 41.833,122.667 41.931,122.667 43.266 C 122.667 44.558,122.699 44.706,123.000 44.785 C 123.343 44.875,123.388 45.031,123.338 45.955 C 123.296 46.725,123.478 47.183,123.804 47.129 C 124.045 47.090,124.090 47.287,124.132 48.559 C 124.173 49.823,124.224 50.046,124.484 50.114 C 124.733 50.179,124.805 50.424,124.884 51.471 C 124.960 52.473,125.052 52.806,125.315 53.019 C 125.574 53.229,125.661 53.529,125.700 54.353 C 125.744 55.292,125.789 55.416,126.083 55.409 C 126.383 55.402,126.422 55.527,126.470 56.656 C 126.499 57.346,126.612 58.020,126.720 58.154 C 126.878 58.349,126.870 58.369,126.683 58.256 C 126.524 58.160,126.487 58.177,126.567 58.308 C 126.633 58.413,126.794 58.500,126.927 58.500 C 127.103 58.500,127.170 58.730,127.179 59.375 C 127.200 60.798,127.355 61.333,127.745 61.333 C 127.950 61.333,128.000 61.563,128.000 62.500 C 128.000 63.556,128.032 63.667,128.333 63.667 C 128.640 63.667,128.667 63.778,128.667 65.073 C 128.667 65.957,128.738 66.525,128.859 66.599 C 128.989 66.680,129.007 66.642,128.914 66.484 C 128.838 66.355,128.939 66.393,129.138 66.567 C 129.443 66.835,129.500 67.064,129.500 68.019 C 129.500 68.941,129.563 69.212,129.835 69.466 C 130.101 69.714,130.173 70.004,130.186 70.889 C 130.202 71.945,130.223 72.000,130.602 72.000 C 130.992 72.000,131.169 73.195,131.005 74.732 C 130.979 74.975,131.051 75.026,131.319 74.955 C 131.640 74.872,131.668 74.938,131.686 75.807 C 131.714 77.168,131.728 77.247,131.958 77.270 C 132.073 77.282,132.242 77.301,132.333 77.313 C 132.431 77.325,132.500 77.964,132.500 78.851 C 132.500 80.117,132.541 80.353,132.745 80.275 C 133.090 80.143,133.154 80.318,133.173 81.434 C 133.199 82.918,133.310 83.333,133.680 83.333 C 133.966 83.333,134.000 83.461,134.000 84.519 C 134.000 85.623,134.023 85.700,134.333 85.618 C 134.662 85.532,134.802 86.334,134.672 87.560 C 134.608 88.168,134.832 88.667,135.170 88.667 C 135.493 88.667,135.626 89.624,135.508 91.111 C 135.490 91.344,135.601 91.510,135.823 91.580 C 136.172 91.691,136.222 91.898,136.173 93.008 C 136.151 93.486,136.228 93.643,136.573 93.828 C 136.978 94.045,137.000 94.126,137.000 95.434 C 137.000 96.686,137.032 96.821,137.350 96.922 C 137.542 96.983,137.842 97.176,138.016 97.350 C 138.334 97.667,154.833 97.863,155.953 97.563 C 156.497 97.417,156.623 96.836,156.188 96.484 C 155.879 96.234,155.833 96.022,155.833 94.854 C 155.833 93.599,155.518 92.871,155.139 93.249 C 155.100 93.288,155.099 93.060,155.136 92.743 C 155.248 91.783,155.034 91.000,154.659 91.000 C 154.346 91.000,154.182 89.644,154.329 88.268 C 154.352 88.048,154.286 87.983,154.108 88.051 C 153.768 88.181,153.507 87.375,153.478 86.101 C 153.459 85.298,153.400 85.109,153.144 85.042 C 152.879 84.973,152.833 84.793,152.833 83.814 C 152.833 82.701,152.821 82.667,152.417 82.667 C 152.020 82.667,151.806 81.275,151.988 79.875 C 152.002 79.760,151.861 79.667,151.674 79.667 C 151.351 79.667,151.177 78.601,151.325 77.525 C 151.342 77.401,151.276 77.349,151.180 77.409 C 151.075 77.473,151.042 77.418,151.098 77.271 C 151.154 77.125,151.052 76.950,150.846 76.840 C 150.546 76.680,150.500 76.499,150.500 75.487 C 150.500 74.467,150.463 74.325,150.208 74.368 C 149.953 74.410,149.906 74.227,149.833 72.917 C 149.754 71.492,149.731 71.417,149.375 71.430 C 149.019 71.442,149.000 71.381,149.000 70.222 C 149.000 69.111,148.970 69.000,148.667 69.000 C 148.371 69.000,148.331 68.883,148.317 67.958 C 148.287 66.093,148.285 66.082,147.875 66.097 C 147.513 66.109,147.500 66.058,147.500 64.623 C 147.500 63.276,147.469 63.127,147.167 63.048 C 146.838 62.962,146.731 62.383,146.827 61.204 C 146.844 60.996,146.796 60.839,146.721 60.856 C 146.159 60.981,146.000 60.619,146.000 59.217 C 146.000 57.942,145.967 57.793,145.667 57.715 C 145.427 57.652,145.329 57.481,145.319 57.106 C 145.264 55.106,145.191 54.841,144.634 54.628 C 144.571 54.603,144.502 54.115,144.482 53.542 C 144.451 52.655,144.400 52.500,144.139 52.500 C 143.822 52.500,143.775 52.219,143.821 50.583 C 143.839 49.947,143.668 49.455,143.440 49.486 C 143.049 49.538,143.000 49.381,143.000 48.078 C 143.000 46.767,142.971 46.645,142.635 46.521 C 142.315 46.402,142.274 46.276,142.305 45.485 C 142.338 44.647,142.193 44.119,141.940 44.152 C 141.548 44.205,141.500 44.044,141.500 42.667 C 141.500 41.309,141.470 41.167,141.186 41.167 C 140.913 41.167,140.858 40.984,140.755 39.757 C 140.658 38.587,140.585 38.330,140.326 38.248 C 140.070 38.166,140.006 37.951,139.966 37.033 C 139.921 36.020,139.882 35.912,139.542 35.863 C 139.185 35.813,139.167 35.738,139.167 34.322 C 139.167 32.944,139.142 32.833,138.833 32.833 C 138.544 32.833,138.498 32.718,138.486 31.958 C 138.464 30.535,138.403 30.281,138.025 30.031 C 137.736 29.839,137.666 29.626,137.664 28.938 C 137.660 27.468,138.470 27.589,128.326 27.536 C 122.216 27.504,119.341 27.544,119.412 27.659 M67.208 27.777 C 67.094 27.823,67.000 27.967,67.000 28.097 C 67.000 28.290,37.117 28.536,35.958 28.353 C 35.890 28.342,35.833 28.789,35.833 29.345 C 35.833 30.289,35.545 30.990,35.270 30.714 C 35.213 30.658,35.167 31.293,35.167 32.127 C 35.167 33.573,35.149 33.646,34.792 33.697 C 34.438 33.747,34.414 33.837,34.369 35.274 C 34.325 36.670,34.295 36.792,34.010 36.717 C 33.717 36.641,33.697 36.775,33.677 38.860 L 33.657 41.083 49.453 41.052 L 65.250 41.021 65.275 40.635 C 65.289 40.423,65.308 40.127,65.317 39.978 C 65.326 39.828,65.483 39.666,65.667 39.618 C 65.969 39.539,66.000 39.391,66.000 38.016 C 66.000 36.526,66.007 36.500,66.401 36.500 C 66.792 36.500,66.802 36.466,66.818 35.052 C 66.832 33.680,66.993 33.207,67.367 33.438 C 67.440 33.483,67.500 32.840,67.500 32.010 C 67.500 30.519,67.505 30.500,67.908 30.500 C 68.299 30.500,68.315 30.456,68.304 29.458 C 68.287 28.041,67.926 27.488,67.208 27.777 M217.378 28.000 C 217.094 28.331,216.886 28.333,184.281 28.333 C 151.609 28.333,151.468 28.335,151.382 28.667 C 151.332 28.856,151.154 29.000,150.971 29.000 C 150.793 29.000,150.693 29.075,150.750 29.167 C 150.807 29.258,150.764 29.333,150.656 29.333 C 150.518 29.333,150.482 29.615,150.536 30.264 C 150.608 31.128,150.584 31.206,150.211 31.348 C 149.934 31.453,149.819 31.617,149.840 31.875 C 149.959 33.346,149.827 34.333,149.511 34.333 C 149.154 34.333,148.960 34.767,149.005 35.461 C 149.096 36.834,149.005 37.333,148.667 37.333 C 148.365 37.333,148.333 37.444,148.333 38.500 C 148.333 39.577,148.306 39.667,147.981 39.667 C 147.710 39.667,147.648 39.744,147.715 40.000 C 147.767 40.197,147.734 40.292,147.637 40.231 C 147.539 40.171,147.484 40.326,147.503 40.606 C 147.591 41.910,147.494 42.833,147.268 42.833 C 146.982 42.833,146.809 43.242,146.945 43.596 C 147.121 44.056,147.855 44.189,150.081 44.165 C 151.274 44.152,156.619 44.147,161.958 44.154 L 171.667 44.167 171.667 44.897 C 171.667 45.495,171.604 45.644,171.323 45.718 C 171.134 45.767,170.993 45.907,171.009 46.029 C 171.167 47.192,170.975 49.647,170.733 49.554 C 170.310 49.391,170.202 49.771,170.183 51.482 C 170.168 52.885,170.125 53.112,169.833 53.312 C 169.534 53.517,169.500 53.728,169.500 55.354 C 169.500 56.867,169.458 57.167,169.246 57.167 C 168.849 57.167,168.710 57.775,168.679 59.655 C 168.647 61.550,168.612 61.699,168.238 61.556 C 168.100 61.503,167.998 61.525,168.013 61.605 C 168.028 61.685,168.031 62.556,168.020 63.542 L 168.000 65.333 167.573 65.333 C 167.266 65.333,167.154 65.415,167.175 65.625 C 167.319 67.036,167.146 68.967,166.869 69.039 C 166.656 69.095,166.562 69.301,166.539 69.767 C 166.412 72.262,166.300 72.958,166.026 72.937 C 165.788 72.919,165.744 73.157,165.704 74.667 C 165.651 76.662,165.608 76.864,165.266 76.733 C 165.105 76.671,165.014 76.745,165.005 76.944 C 164.893 79.487,164.779 80.257,164.481 80.465 C 164.207 80.657,164.167 80.909,164.167 82.407 C 164.167 83.955,164.135 84.136,163.851 84.210 C 163.477 84.308,163.331 85.048,163.355 86.716 C 163.367 87.562,163.300 87.928,163.089 88.160 C 162.725 88.563,162.695 88.756,162.679 90.780 C 162.667 92.408,162.652 92.479,162.292 92.530 C 161.932 92.581,161.915 92.659,161.873 94.377 C 161.836 95.885,161.779 96.221,161.510 96.490 C 161.111 96.889,161.231 97.438,161.745 97.567 C 161.954 97.620,166.129 97.645,171.021 97.623 L 179.917 97.583 179.903 97.208 C 179.896 97.002,179.987 96.833,180.106 96.833 C 180.501 96.833,180.663 96.211,180.774 94.264 C 180.878 92.448,180.942 92.242,181.383 92.316 C 181.456 92.329,181.503 92.244,181.488 92.128 C 181.318 90.827,181.527 88.667,181.823 88.667 C 182.214 88.667,182.420 87.629,182.292 86.299 C 182.188 85.212,182.292 84.833,182.697 84.833 C 182.906 84.833,183.010 84.730,182.991 84.542 C 182.838 83.038,183.020 81.130,183.324 81.051 C 183.687 80.956,183.874 80.335,183.830 79.377 C 183.756 77.772,183.822 77.375,184.179 77.282 C 184.388 77.227,184.513 77.071,184.493 76.887 C 184.330 75.322,184.517 73.369,184.823 73.449 C 185.178 73.542,185.387 72.887,185.311 71.917 C 185.203 70.523,185.329 69.707,185.667 69.618 C 185.973 69.538,186.000 69.391,186.000 67.786 C 186.000 66.168,186.027 66.023,186.370 65.795 C 186.762 65.535,186.783 65.387,186.818 62.708 C 186.832 61.616,186.865 61.500,187.167 61.500 C 187.481 61.500,187.500 61.389,187.500 59.595 C 187.500 57.746,187.511 57.688,187.875 57.637 C 188.233 57.586,188.252 57.503,188.300 55.855 C 188.347 54.243,188.572 53.461,188.897 53.786 C 188.954 53.842,189.000 53.027,189.000 51.973 C 189.000 50.093,189.007 50.057,189.375 50.070 C 189.791 50.085,189.771 50.193,189.811 47.641 C 189.831 46.316,189.859 46.205,190.147 46.280 C 190.416 46.350,190.462 46.263,190.470 45.663 C 190.475 45.279,190.508 44.936,190.543 44.901 C 190.578 44.866,196.170 44.835,202.968 44.831 L 215.329 44.825 215.414 44.454 C 215.460 44.250,215.518 43.558,215.541 42.917 C 215.577 41.911,215.624 41.757,215.875 41.799 C 216.135 41.843,216.167 41.684,216.167 40.352 C 216.167 38.928,216.185 38.854,216.542 38.803 C 216.946 38.746,216.954 38.708,216.984 36.894 C 216.998 36.020,217.048 35.860,217.333 35.785 C 217.633 35.707,217.667 35.558,217.667 34.305 C 217.667 33.021,217.696 32.900,218.042 32.748 C 218.436 32.575,218.455 32.487,218.484 30.728 C 218.498 29.853,218.548 29.693,218.833 29.618 C 219.676 29.398,219.009 27.667,218.082 27.667 C 217.852 27.667,217.535 27.817,217.378 28.000 M347.167 27.830 C 346.712 28.117,346.696 31.408,347.150 31.289 C 347.497 31.199,347.638 31.970,347.506 33.226 C 347.441 33.835,347.665 34.333,348.003 34.333 C 348.307 34.333,348.333 34.449,348.333 35.766 C 348.333 37.058,348.366 37.206,348.667 37.285 C 349.013 37.376,349.080 37.685,349.010 38.869 C 348.981 39.340,349.073 39.589,349.394 39.909 C 349.750 40.265,349.821 40.503,349.851 41.438 C 349.881 42.355,349.940 42.559,350.194 42.625 C 350.503 42.706,350.565 43.009,350.504 44.127 C 350.453 45.049,350.657 45.667,351.013 45.667 C 351.304 45.667,351.333 45.798,351.333 47.099 C 351.333 48.391,351.366 48.540,351.667 48.618 C 351.910 48.682,352.000 48.846,352.001 49.228 C 352.005 50.554,352.219 51.545,352.519 51.623 C 352.763 51.687,352.828 51.907,352.868 52.809 C 352.912 53.813,352.952 53.922,353.292 53.970 C 353.649 54.021,353.667 54.095,353.667 55.512 C 353.667 56.879,353.693 57.000,353.994 57.000 C 354.290 57.000,354.325 57.137,354.369 58.458 C 354.414 59.827,354.440 59.920,354.792 59.970 C 355.156 60.022,355.321 61.138,355.173 62.554 C 355.154 62.738,355.278 62.894,355.487 62.948 C 355.799 63.030,355.985 64.000,355.855 64.869 C 355.809 65.180,356.186 65.833,356.413 65.833 C 356.616 65.833,356.667 66.067,356.667 67.016 C 356.667 68.058,356.706 68.208,357.000 68.285 C 357.285 68.360,357.336 68.520,357.350 69.394 C 357.379 71.208,357.388 71.246,357.792 71.303 C 358.156 71.355,358.322 72.424,358.192 73.890 C 358.176 74.072,358.302 74.233,358.499 74.285 C 358.769 74.355,358.837 74.520,358.851 75.144 C 358.861 75.569,358.885 76.029,358.906 76.167 C 358.926 76.304,358.956 76.580,358.971 76.780 C 358.987 76.981,359.149 77.192,359.333 77.250 C 359.621 77.341,359.667 77.502,359.667 78.417 C 359.667 79.331,359.713 79.492,360.000 79.583 C 360.274 79.670,360.336 79.843,360.349 80.553 C 360.380 82.306,360.403 82.410,360.792 82.581 C 361.144 82.736,361.338 84.110,361.176 85.305 C 361.160 85.426,361.301 85.566,361.490 85.616 C 361.841 85.707,361.912 86.088,361.837 87.458 C 361.821 87.756,361.886 88.000,361.982 88.000 C 362.078 88.000,362.111 88.117,362.056 88.260 C 361.990 88.434,362.075 88.551,362.312 88.613 C 362.640 88.699,362.757 89.361,362.659 90.592 C 362.655 90.643,362.817 90.818,363.018 90.981 C 363.332 91.235,363.381 91.432,363.365 92.383 C 363.347 93.446,363.503 93.858,363.990 94.027 C 364.080 94.058,364.166 94.700,364.182 95.455 C 364.198 96.209,364.276 96.786,364.355 96.736 C 364.435 96.687,364.500 96.734,364.500 96.841 C 364.500 96.948,364.599 96.998,364.720 96.951 C 364.861 96.897,364.935 96.994,364.928 97.225 L 364.917 97.583 373.917 97.629 C 378.867 97.655,383.085 97.635,383.292 97.585 C 383.801 97.461,383.834 96.513,383.333 96.382 C 383.033 96.303,383.000 96.154,383.000 94.894 C 383.000 93.599,382.971 93.480,382.621 93.320 C 382.302 93.175,382.253 93.045,382.306 92.489 C 382.396 91.538,382.224 91.000,381.830 91.000 C 381.526 91.000,381.500 90.884,381.500 89.511 C 381.500 88.207,381.462 88.010,381.191 87.924 C 380.899 87.832,380.779 87.248,380.628 85.185 C 380.619 85.058,380.477 84.919,380.312 84.876 C 380.061 84.810,380.005 84.582,379.965 83.441 C 379.921 82.216,379.880 82.067,379.542 81.919 C 379.211 81.774,379.167 81.632,379.167 80.733 C 379.167 79.971,379.084 79.606,378.840 79.296 C 378.599 78.990,378.504 78.587,378.482 77.773 C 378.453 76.731,378.429 76.667,378.059 76.667 C 377.701 76.667,377.466 75.048,377.644 73.802 C 377.653 73.739,377.511 73.640,377.330 73.582 C 377.036 73.489,377.000 73.326,377.000 72.075 C 377.000 70.719,376.986 70.670,376.583 70.568 C 376.184 70.468,376.167 70.411,376.167 69.169 C 376.167 68.059,376.119 67.841,375.832 67.645 C 375.564 67.462,375.494 67.217,375.478 66.409 C 375.460 65.530,375.416 65.398,375.127 65.376 C 374.670 65.342,374.689 65.406,374.653 63.787 C 374.625 62.491,374.588 62.333,374.311 62.333 C 374.001 62.333,373.892 61.517,373.995 59.960 C 374.017 59.616,373.919 59.456,373.596 59.309 C 373.184 59.121,373.167 59.056,373.167 57.704 C 373.167 56.419,373.140 56.302,372.861 56.374 C 372.522 56.463,372.532 56.498,372.486 55.038 C 372.468 54.462,372.413 54.031,372.365 54.080 C 372.017 54.427,371.667 53.538,371.667 52.308 C 371.667 51.111,371.638 51.000,371.333 51.000 C 370.995 51.000,370.904 50.500,370.995 49.128 C 371.040 48.434,370.846 48.000,370.489 48.000 C 370.194 48.000,370.167 47.871,370.167 46.482 C 370.167 45.262,370.122 44.982,369.937 45.052 C 369.662 45.158,369.299 44.450,369.440 44.083 C 369.657 43.517,369.328 42.000,368.988 42.000 C 368.701 42.000,368.667 41.874,368.667 40.833 C 368.667 40.192,368.610 39.676,368.542 39.686 C 368.087 39.758,368.000 39.614,367.998 38.792 C 367.995 37.331,367.832 36.667,367.478 36.667 C 367.197 36.667,367.167 36.520,367.167 35.159 C 367.167 34.050,367.112 33.659,366.958 33.679 C 366.369 33.756,366.333 33.670,366.333 32.167 C 366.333 30.778,366.309 30.667,366.000 30.667 C 365.687 30.667,365.515 29.613,365.654 28.542 C 365.676 28.377,363.841 28.333,356.964 28.333 C 348.427 28.333,348.243 28.326,348.039 28.000 C 347.811 27.636,347.553 27.586,347.167 27.830 M67.750 28.167 C 67.807 28.258,67.694 28.333,67.500 28.333 C 67.306 28.333,67.193 28.258,67.250 28.167 C 67.307 28.075,67.419 28.000,67.500 28.000 C 67.581 28.000,67.693 28.075,67.750 28.167 M88.417 28.167 C 88.350 28.274,85.187 28.333,79.472 28.333 C 71.768 28.333,70.643 28.365,70.725 28.578 C 70.777 28.713,70.741 28.871,70.645 28.930 C 70.550 28.989,70.487 29.460,70.506 29.977 C 70.567 31.667,70.521 31.971,70.189 32.076 C 69.921 32.161,69.874 32.372,69.847 33.618 C 69.811 35.231,69.773 35.363,69.382 35.214 C 69.177 35.135,69.135 35.178,69.216 35.388 C 69.275 35.541,69.243 35.667,69.146 35.667 C 69.041 35.667,68.984 35.988,69.006 36.458 C 69.091 38.282,69.019 38.790,68.662 38.883 C 68.476 38.932,68.335 39.034,68.348 39.111 C 68.515 40.056,68.299 41.873,68.012 41.949 C 67.721 42.025,67.414 42.929,67.510 43.429 C 67.682 44.329,67.472 45.667,67.159 45.667 C 66.972 45.667,66.831 45.760,66.846 45.875 C 66.980 46.910,66.807 48.833,66.579 48.833 C 66.199 48.833,66.044 49.427,66.016 50.982 C 65.988 52.529,65.940 52.697,65.565 52.553 C 65.404 52.492,65.320 52.541,65.341 52.686 C 65.535 54.078,65.310 56.147,64.958 56.197 C 64.612 56.246,64.580 56.346,64.540 57.500 C 64.484 59.142,64.394 59.513,64.080 59.392 C 63.909 59.327,63.839 59.394,63.858 59.607 C 64.012 61.323,63.818 62.979,63.458 63.030 C 63.044 63.089,63.047 63.081,63.019 64.780 C 63.002 65.822,62.957 65.991,62.667 66.083 C 62.360 66.181,62.333 66.336,62.333 68.011 C 62.333 69.848,62.308 69.924,61.708 69.846 C 61.555 69.826,61.500 70.215,61.500 71.315 C 61.500 72.664,61.467 72.821,61.167 72.917 C 60.860 73.014,60.833 73.169,60.833 74.845 L 60.833 76.667 60.417 76.667 C 60.003 76.667,60.000 76.676,60.000 78.190 C 60.000 79.407,59.945 79.753,59.728 79.912 C 59.434 80.127,59.193 81.275,59.177 82.530 C 59.168 83.167,59.103 83.331,58.823 83.420 C 58.601 83.490,58.490 83.656,58.508 83.889 C 58.645 85.621,58.488 87.167,58.174 87.167 C 57.773 87.167,57.589 87.963,57.706 89.189 C 57.779 89.942,57.749 90.040,57.410 90.169 C 57.053 90.305,57.032 90.406,57.013 92.107 C 56.993 93.806,56.856 94.303,56.471 94.066 C 56.261 93.936,56.146 94.690,56.199 95.838 L 56.250 96.917 65.634 96.957 C 71.328 96.981,74.980 96.937,74.923 96.843 C 74.871 96.759,74.904 96.643,74.997 96.585 C 75.090 96.527,75.167 96.081,75.167 95.593 C 75.167 94.846,75.219 94.692,75.500 94.618 C 75.808 94.538,75.833 94.391,75.833 92.682 C 75.833 90.865,75.874 90.729,76.387 90.818 C 76.463 90.831,76.477 90.765,76.419 90.671 C 76.361 90.577,76.393 90.500,76.490 90.500 C 76.602 90.500,76.657 90.009,76.641 89.162 C 76.620 88.046,76.666 87.787,76.917 87.604 C 77.106 87.466,77.167 87.303,77.083 87.166 C 76.994 87.022,77.014 86.989,77.141 87.067 C 77.281 87.154,77.333 86.775,77.333 85.677 C 77.333 84.462,77.381 84.167,77.577 84.167 C 77.997 84.167,78.143 83.619,78.151 82.024 C 78.159 80.356,78.215 80.132,78.589 80.275 C 78.793 80.353,78.833 80.120,78.833 78.871 C 78.833 77.482,78.859 77.365,79.188 77.279 C 79.431 77.216,79.511 77.102,79.440 76.918 C 79.376 76.750,79.404 76.691,79.516 76.760 C 79.632 76.832,79.684 76.674,79.664 76.310 C 79.557 74.381,79.662 73.500,80.000 73.500 C 80.309 73.500,80.333 73.389,80.333 72.000 C 80.333 70.642,80.363 70.500,80.647 70.500 C 81.057 70.500,81.162 70.068,81.164 68.363 C 81.167 67.063,81.413 66.302,81.730 66.619 C 81.787 66.676,81.833 66.043,81.833 65.214 C 81.833 63.815,81.859 63.699,82.189 63.613 C 82.450 63.544,82.520 63.429,82.454 63.176 C 82.401 62.973,82.432 62.874,82.529 62.935 C 82.620 62.991,82.679 62.897,82.661 62.727 C 82.515 61.348,82.680 60.035,83.010 59.949 C 83.199 59.900,83.340 59.760,83.324 59.638 C 83.307 59.516,83.303 58.685,83.314 57.792 L 83.333 56.167 83.760 56.167 C 84.067 56.167,84.179 56.085,84.158 55.875 C 84.020 54.516,84.183 53.201,84.500 53.118 C 84.808 53.038,84.833 52.891,84.833 51.182 L 84.833 49.333 85.260 49.333 C 85.567 49.333,85.679 49.251,85.658 49.042 C 85.517 47.654,85.682 46.368,86.013 46.282 C 86.222 46.227,86.346 46.071,86.327 45.887 C 86.160 44.290,86.348 42.688,86.708 42.637 C 87.062 42.586,87.086 42.496,87.131 41.060 C 87.172 39.753,87.222 39.524,87.480 39.457 C 87.806 39.372,87.996 38.372,87.999 36.728 C 88.000 36.003,88.053 35.858,88.346 35.782 C 88.555 35.727,88.679 35.571,88.660 35.387 C 88.502 33.876,88.684 32.000,88.989 32.000 C 89.418 32.000,89.499 31.670,89.465 30.056 C 89.447 29.211,89.511 28.605,89.633 28.457 C 89.742 28.326,89.781 28.170,89.721 28.110 C 89.548 27.937,88.531 27.982,88.417 28.167 M347.750 28.167 C 347.807 28.258,347.694 28.333,347.500 28.333 C 347.306 28.333,347.193 28.258,347.250 28.167 C 347.307 28.075,347.419 28.000,347.500 28.000 C 347.581 28.000,347.693 28.075,347.750 28.167 M14.675 28.625 C 14.774 29.597,14.668 29.969,14.319 29.878 C 14.051 29.808,13.979 29.859,14.005 30.102 C 14.023 30.275,14.030 31.148,14.019 32.042 L 14.000 33.667 13.571 33.667 C 13.206 33.667,13.146 33.736,13.172 34.125 C 13.282 35.801,13.167 36.667,12.833 36.667 C 12.520 36.667,12.500 36.778,12.500 38.488 C 12.500 40.251,12.488 40.312,12.125 40.363 C 11.717 40.421,11.711 40.450,11.683 42.375 C 11.669 43.363,11.628 43.500,11.350 43.500 C 11.060 43.500,11.031 43.649,11.013 45.282 C 10.991 47.165,10.971 47.245,10.530 47.248 C 10.293 47.250,10.243 47.474,10.202 48.706 C 10.160 49.967,10.109 50.186,9.818 50.341 C 9.634 50.440,9.495 50.648,9.510 50.802 C 9.670 52.414,9.483 53.979,9.125 54.030 C 8.766 54.081,8.748 54.161,8.703 55.857 C 8.661 57.447,8.622 57.639,8.334 57.715 C 8.050 57.789,8.007 57.981,7.965 59.358 C 7.921 60.790,7.889 60.917,7.583 60.917 C 7.274 60.917,7.247 61.044,7.203 62.708 C 7.160 64.320,7.125 64.500,6.849 64.500 C 6.580 64.500,6.532 64.680,6.466 65.947 C 6.400 67.200,6.341 67.426,6.028 67.634 C 5.696 67.855,5.667 68.014,5.667 69.604 C 5.667 71.170,5.638 71.333,5.361 71.333 C 5.009 71.333,5.007 71.341,4.891 73.000 C 4.826 73.938,4.724 74.324,4.485 74.548 C 4.213 74.803,4.167 75.087,4.167 76.506 C 4.167 78.071,4.147 78.167,3.823 78.167 C 3.635 78.167,3.527 78.242,3.583 78.333 C 3.640 78.425,3.606 78.500,3.508 78.500 C 3.395 78.500,3.338 78.990,3.350 79.845 C 3.367 81.000,3.320 81.243,3.018 81.564 C 2.716 81.885,2.667 82.143,2.667 83.386 C 2.667 84.546,2.618 84.833,2.423 84.833 C 2.008 84.833,1.870 85.355,1.856 86.967 C 1.841 88.645,1.785 88.868,1.411 88.725 C 1.207 88.647,1.167 88.880,1.167 90.129 C 1.167 91.519,1.141 91.635,0.811 91.721 C 0.550 91.789,0.480 91.905,0.546 92.157 C 0.595 92.346,0.575 92.463,0.500 92.417 C 0.426 92.371,0.357 93.027,0.348 93.875 C 0.339 94.734,0.258 95.441,0.166 95.472 C 0.075 95.503,0.000 96.007,0.000 96.592 L 0.000 97.656 9.148 97.664 C 19.206 97.672,18.500 97.747,18.500 96.672 C 18.500 96.346,18.600 96.179,18.833 96.118 C 19.141 96.038,19.167 95.891,19.167 94.182 C 19.167 92.346,19.169 92.333,19.564 92.333 C 19.949 92.333,19.961 92.292,19.985 90.898 C 20.006 89.683,20.061 89.420,20.342 89.190 C 20.630 88.954,20.681 88.687,20.713 87.243 C 20.747 85.690,20.774 85.570,21.083 85.576 C 21.394 85.583,21.420 85.458,21.468 83.754 C 21.517 82.044,21.658 81.539,22.025 81.766 C 22.223 81.888,22.382 80.728,22.294 79.811 C 22.220 79.049,22.248 78.961,22.607 78.825 C 22.987 78.680,23.000 78.615,23.000 76.837 C 23.000 75.132,23.023 75.000,23.322 75.000 C 23.703 75.000,23.875 74.555,23.824 73.701 C 23.746 72.400,23.819 72.043,24.180 71.948 C 24.420 71.885,24.517 71.738,24.495 71.470 C 24.352 69.737,24.508 68.409,24.875 68.248 C 25.262 68.078,25.283 67.967,25.321 65.875 C 25.330 65.377,25.404 65.167,25.572 65.167 C 25.797 65.167,26.042 64.707,25.986 64.392 C 25.810 63.412,26.033 61.500,26.322 61.500 C 26.740 61.500,26.801 61.237,26.822 59.341 C 26.838 57.844,26.988 57.370,27.371 57.607 C 27.447 57.653,27.498 57.630,27.484 57.554 C 27.309 56.543,27.533 54.667,27.830 54.667 C 28.153 54.667,28.398 54.163,28.326 53.647 C 28.159 52.448,28.354 50.833,28.667 50.833 C 28.850 50.833,28.991 50.777,28.980 50.708 C 28.819 49.687,29.035 47.833,29.316 47.833 C 29.757 47.833,29.833 47.526,29.833 45.756 C 29.833 44.346,29.863 44.198,30.167 44.118 C 30.469 44.039,30.500 43.891,30.500 42.516 C 30.500 41.111,30.524 41.000,30.833 41.000 C 31.029 41.000,31.178 40.879,31.195 40.708 C 31.211 40.548,31.240 40.304,31.261 40.167 C 31.281 40.029,31.306 39.305,31.316 38.557 C 31.332 37.311,31.360 37.205,31.648 37.280 C 31.942 37.357,31.964 37.237,31.988 35.480 C 32.017 33.403,31.996 33.492,32.461 33.457 C 32.761 33.435,32.795 33.300,32.820 32.022 C 32.850 30.469,32.896 30.304,33.255 30.442 C 33.455 30.518,33.500 30.334,33.500 29.434 L 33.500 28.333 24.073 28.333 C 15.194 28.333,14.647 28.350,14.675 28.625 M111.333 29.168 C 111.333 29.880,111.297 29.959,111.008 29.884 C 110.727 29.810,110.668 29.912,110.573 30.628 C 110.490 31.253,110.396 31.452,110.190 31.437 C 109.920 31.417,109.890 31.498,109.853 32.356 C 109.839 32.654,109.720 32.824,109.478 32.887 C 109.241 32.949,109.156 33.066,109.223 33.240 C 109.278 33.383,109.241 33.500,109.142 33.500 C 109.043 33.500,108.999 33.647,109.046 33.826 C 109.104 34.046,109.002 34.236,108.732 34.413 C 108.422 34.616,108.333 34.822,108.333 35.337 C 108.333 35.820,108.264 36.000,108.079 36.000 C 107.853 36.000,107.475 36.653,107.522 36.964 C 107.624 37.646,107.470 38.167,107.167 38.167 C 106.883 38.167,106.833 38.278,106.833 38.917 C 106.833 39.606,106.799 39.667,106.417 39.667 C 106.034 39.667,106.000 39.728,106.000 40.417 C 106.000 41.056,105.951 41.167,105.667 41.167 C 105.383 41.167,105.333 41.278,105.333 41.917 C 105.333 42.596,105.296 42.667,104.936 42.667 C 104.583 42.667,104.538 42.743,104.530 43.359 C 104.521 44.012,104.262 44.412,103.966 44.229 C 103.893 44.184,103.833 44.489,103.833 44.907 C 103.833 45.325,103.758 45.676,103.667 45.688 C 103.575 45.699,103.408 45.718,103.296 45.729 C 103.184 45.741,103.071 46.012,103.046 46.333 C 102.982 47.151,102.884 47.342,102.590 47.229 C 102.382 47.150,102.333 47.275,102.333 47.887 C 102.333 48.545,102.284 48.650,101.958 48.697 C 101.593 48.749,101.564 48.823,101.518 49.792 C 101.506 50.050,101.396 50.167,101.167 50.167 C 100.983 50.167,100.833 50.246,100.833 50.343 C 100.833 50.440,100.927 50.467,101.042 50.402 C 101.208 50.308,101.208 50.329,101.042 50.509 C 100.927 50.632,100.833 50.938,100.833 51.188 C 100.833 51.533,100.743 51.656,100.458 51.697 C 100.094 51.748,100.064 51.822,100.018 52.780 C 100.007 52.991,99.856 53.190,99.659 53.253 C 99.470 53.312,99.333 53.485,99.352 53.639 C 99.410 54.104,99.144 54.833,98.916 54.833 C 98.653 54.833,98.500 55.205,98.500 55.847 C 98.500 56.159,98.414 56.333,98.260 56.333 C 97.904 56.333,97.783 56.626,97.751 57.569 C 97.726 58.300,97.672 58.424,97.361 58.470 C 97.054 58.515,97.000 58.632,97.000 59.250 C 97.000 59.877,96.948 59.984,96.625 60.030 C 96.315 60.074,96.246 60.196,96.225 60.730 C 96.200 61.346,95.920 61.740,95.633 61.563 C 95.560 61.517,95.500 61.822,95.500 62.240 C 95.500 62.658,95.425 63.009,95.333 63.021 C 95.242 63.032,95.073 63.051,94.958 63.063 C 94.840 63.074,94.714 63.406,94.667 63.833 C 94.600 64.431,94.524 64.573,94.292 64.534 C 94.050 64.494,94.000 64.613,94.000 65.231 C 94.000 65.878,93.950 65.984,93.625 66.030 C 93.313 66.074,93.241 66.203,93.199 66.792 C 93.157 67.364,93.085 67.500,92.824 67.500 C 92.552 67.500,92.500 67.618,92.500 68.238 C 92.500 68.877,92.449 68.984,92.125 69.030 C 91.821 69.073,91.740 69.206,91.697 69.732 C 91.648 70.326,91.313 70.924,91.130 70.741 C 91.088 70.699,91.044 70.931,91.032 71.256 C 91.008 71.900,90.709 72.320,90.359 72.203 C 90.212 72.154,90.149 72.261,90.171 72.523 C 90.256 73.547,90.179 73.805,89.819 73.711 C 89.551 73.641,89.479 73.692,89.505 73.935 C 89.595 74.783,89.495 75.167,89.184 75.167 C 88.831 75.167,88.667 75.476,88.667 76.140 C 88.667 76.409,88.531 76.671,88.327 76.798 C 88.141 76.915,87.999 77.102,88.014 77.214 C 88.140 78.206,87.986 78.833,87.616 78.833 C 87.282 78.833,87.226 78.925,87.190 79.537 C 87.151 80.211,86.917 80.571,86.633 80.396 C 86.560 80.351,86.500 80.548,86.500 80.834 C 86.500 81.520,86.227 82.013,85.914 81.893 C 85.716 81.816,85.667 81.963,85.667 82.633 C 85.667 83.366,85.629 83.459,85.356 83.388 C 85.034 83.303,84.840 83.695,84.836 84.439 C 84.834 84.653,84.701 84.829,84.500 84.882 C 84.239 84.950,84.167 85.109,84.167 85.612 C 84.167 86.118,84.087 86.289,83.792 86.419 C 83.511 86.542,83.414 86.727,83.408 87.154 C 83.401 87.575,83.303 87.767,83.033 87.888 C 82.738 88.019,82.667 88.190,82.667 88.764 C 82.667 89.376,82.614 89.484,82.292 89.530 C 81.982 89.574,81.902 89.713,81.833 90.333 C 81.766 90.944,81.693 91.074,81.446 91.032 C 81.237 90.996,81.152 91.074,81.174 91.282 C 81.263 92.144,81.161 92.478,80.792 92.530 C 80.482 92.574,80.408 92.703,80.366 93.275 C 80.328 93.794,80.235 93.987,79.991 94.051 C 79.738 94.117,79.667 94.282,79.667 94.798 C 79.667 95.313,79.595 95.480,79.344 95.545 C 78.938 95.652,78.714 96.690,78.975 97.261 L 79.158 97.663 88.371 97.623 L 97.583 97.583 97.634 97.225 C 97.662 97.028,97.826 96.830,97.998 96.785 C 98.205 96.731,98.352 96.486,98.431 96.060 C 98.497 95.706,98.689 95.319,98.859 95.199 C 99.059 95.057,99.167 94.775,99.167 94.390 C 99.167 93.957,99.279 93.710,99.583 93.470 C 99.916 93.209,100.000 92.993,100.000 92.405 C 100.000 91.786,100.052 91.667,100.323 91.667 C 100.578 91.667,100.670 91.509,100.759 90.917 C 100.841 90.368,100.947 90.167,101.153 90.167 C 101.367 90.167,101.445 89.996,101.476 89.463 C 101.516 88.793,101.750 88.429,102.029 88.601 C 102.204 88.710,102.391 87.904,102.284 87.497 C 102.201 87.180,102.330 87.094,102.794 87.155 C 102.910 87.170,102.995 87.123,102.983 87.050 C 102.857 86.304,103.029 85.686,103.375 85.637 C 103.661 85.596,103.756 85.465,103.776 85.083 C 103.791 84.808,103.810 84.459,103.818 84.307 C 103.829 84.109,103.934 84.058,104.193 84.125 C 104.453 84.193,104.517 84.162,104.423 84.010 C 104.322 83.846,104.368 83.840,104.636 83.983 C 105.027 84.193,115.738 84.250,115.609 84.042 C 115.567 83.973,118.818 83.917,122.834 83.917 C 126.849 83.917,130.107 83.962,130.073 84.018 C 130.038 84.073,130.187 84.085,130.404 84.043 C 130.683 83.990,130.827 83.821,130.899 83.463 C 131.049 82.715,131.021 81.833,130.849 81.833 C 130.766 81.833,130.737 81.683,130.785 81.500 C 130.852 81.244,130.790 81.167,130.519 81.167 C 130.199 81.167,130.167 81.074,130.167 80.163 C 130.167 79.253,130.128 79.142,129.748 78.969 C 129.445 78.831,129.356 78.691,129.428 78.465 C 129.606 77.903,129.326 76.800,128.982 76.710 C 128.750 76.650,128.667 76.477,128.667 76.058 C 128.667 75.456,128.227 74.610,127.990 74.756 C 127.914 74.803,127.885 74.671,127.926 74.463 C 128.094 73.624,127.809 72.167,127.478 72.167 C 127.242 72.167,127.162 72.036,127.147 71.625 C 127.112 70.635,127.089 70.584,126.667 70.558 C 126.438 70.544,124.252 70.525,121.811 70.516 C 117.475 70.500,117.370 70.492,117.282 70.156 C 117.200 69.840,117.076 69.814,115.721 69.834 C 111.586 69.894,111.333 69.871,111.333 69.436 C 111.333 69.179,111.451 69.008,111.667 68.952 C 111.932 68.882,112.000 68.724,112.000 68.182 C 112.000 67.624,112.057 67.500,112.316 67.500 C 112.686 67.500,112.833 67.188,112.833 66.403 C 112.833 66.027,112.912 65.833,113.066 65.833 C 113.333 65.833,113.500 65.479,113.500 64.909 C 113.500 64.690,113.641 64.436,113.814 64.344 C 113.989 64.250,114.179 63.904,114.243 63.563 C 114.306 63.226,114.520 62.819,114.719 62.658 C 115.003 62.428,115.080 62.185,115.082 61.517 C 115.083 60.748,115.119 60.668,115.458 60.667 C 115.791 60.667,115.833 60.583,115.833 59.928 C 115.833 59.289,115.884 59.183,116.208 59.137 C 116.474 59.099,116.591 58.962,116.609 58.667 C 116.622 58.438,116.641 58.119,116.650 57.958 C 116.660 57.783,116.800 57.667,117.000 57.667 C 117.283 57.667,117.333 57.556,117.333 56.928 C 117.333 56.289,117.384 56.183,117.708 56.137 C 118.020 56.092,118.092 55.964,118.135 55.375 C 118.176 54.802,118.248 54.667,118.510 54.667 C 118.781 54.667,118.833 54.548,118.833 53.928 C 118.833 53.289,118.884 53.183,119.208 53.137 C 119.573 53.085,119.603 53.011,119.649 52.042 C 119.660 51.798,119.772 51.667,119.967 51.667 C 120.203 51.667,120.277 51.515,120.310 50.963 C 120.357 50.164,120.360 50.158,120.776 50.097 C 121.046 50.057,121.083 49.884,121.083 48.667 C 121.083 47.449,121.046 47.276,120.776 47.237 C 120.342 47.173,120.355 47.220,120.320 45.625 C 120.303 44.827,120.239 44.206,120.178 44.243 C 119.849 44.447,119.678 43.951,119.633 42.662 C 119.587 41.342,119.559 41.247,119.208 41.197 C 118.868 41.148,118.634 39.427,118.814 38.292 C 118.824 38.223,118.683 38.167,118.500 38.167 C 118.158 38.167,118.048 37.440,118.155 35.881 C 118.185 35.431,118.123 35.329,117.762 35.238 C 117.342 35.133,117.333 35.101,117.333 33.660 C 117.333 32.336,117.300 32.179,117.000 32.083 C 116.662 31.976,116.588 31.567,116.663 30.208 C 116.755 28.522,116.386 28.310,113.404 28.344 L 111.333 28.367 111.333 29.168 M247.312 28.668 C 247.110 28.964,246.886 29.005,245.361 29.024 C 243.721 29.043,243.631 29.063,243.460 29.439 C 243.291 29.809,243.192 29.833,241.859 29.833 C 240.646 29.833,240.384 29.884,240.066 30.183 C 239.787 30.445,239.484 30.531,238.847 30.526 C 238.381 30.522,238.000 30.587,238.000 30.671 C 238.000 30.755,237.883 30.778,237.740 30.723 C 237.567 30.657,237.450 30.740,237.389 30.971 C 237.313 31.262,237.149 31.326,236.362 31.367 C 235.619 31.406,235.390 31.486,235.254 31.754 C 235.153 31.954,234.959 32.066,234.778 32.031 C 234.219 31.920,233.667 32.155,233.667 32.503 C 233.667 32.783,233.553 32.833,232.917 32.833 C 232.191 32.833,232.078 32.932,232.137 33.511 C 232.142 33.563,231.935 33.575,231.676 33.537 C 231.118 33.455,230.500 33.745,230.500 34.089 C 230.500 34.245,230.319 34.341,230.000 34.354 C 229.126 34.391,229.084 34.409,229.030 34.792 C 228.985 35.110,228.875 35.167,228.306 35.167 C 227.776 35.167,227.617 35.236,227.548 35.500 C 227.500 35.684,227.321 35.833,227.147 35.833 C 226.924 35.833,226.833 35.953,226.833 36.250 C 226.833 36.644,226.258 36.823,225.446 36.682 C 225.370 36.669,225.347 36.720,225.393 36.795 C 225.536 37.026,225.240 37.349,224.860 37.377 C 224.604 37.396,224.500 37.514,224.500 37.785 C 224.500 38.119,224.417 38.167,223.837 38.167 C 223.276 38.167,223.157 38.229,223.073 38.564 C 223.000 38.855,222.888 38.939,222.653 38.878 C 222.398 38.811,222.333 38.883,222.333 39.231 C 222.333 39.585,222.255 39.667,221.917 39.667 C 221.611 39.667,221.500 39.756,221.500 40.000 C 221.500 40.298,221.327 40.411,220.958 40.353 C 220.890 40.342,220.833 40.521,220.833 40.750 C 220.833 41.083,220.750 41.167,220.417 41.167 C 220.111 41.167,220.000 41.256,220.000 41.500 C 220.000 41.716,219.889 41.833,219.685 41.833 C 219.487 41.833,219.330 41.989,219.265 42.250 C 219.199 42.513,219.043 42.667,218.842 42.667 C 218.638 42.667,218.504 42.802,218.470 43.042 C 218.435 43.288,218.302 43.417,218.083 43.417 C 217.865 43.417,217.732 43.546,217.697 43.792 C 217.663 44.033,217.529 44.167,217.322 44.167 C 217.111 44.167,217.000 44.282,217.000 44.500 C 217.000 44.683,216.920 44.833,216.821 44.833 C 216.600 44.833,216.167 45.254,216.167 45.469 C 216.167 45.556,216.017 45.667,215.833 45.715 C 215.568 45.784,215.500 45.942,215.500 46.484 C 215.500 47.104,215.461 47.167,215.076 47.167 C 214.834 47.167,214.664 47.256,214.679 47.375 C 214.739 47.839,214.651 48.000,214.333 48.000 C 214.106 48.000,214.000 48.111,214.000 48.349 C 214.000 48.558,213.866 48.733,213.667 48.785 C 213.402 48.854,213.213 49.322,213.361 49.542 C 213.478 49.714,212.949 50.303,212.747 50.226 C 212.551 50.150,212.500 50.288,212.500 50.899 C 212.500 51.596,212.464 51.667,212.104 51.667 C 211.791 51.667,211.708 51.755,211.708 52.092 C 211.708 52.326,211.549 52.687,211.354 52.894 C 211.159 53.102,211.000 53.439,211.000 53.644 C 211.000 53.848,210.813 54.190,210.583 54.402 C 210.257 54.705,210.167 54.952,210.167 55.545 C 210.167 56.220,210.131 56.293,209.833 56.215 C 209.536 56.137,209.500 56.210,209.500 56.879 C 209.500 57.542,209.451 57.643,209.083 57.735 C 208.693 57.833,208.667 57.907,208.667 58.920 C 208.667 59.889,208.632 60.000,208.333 60.000 C 208.150 60.000,208.009 60.056,208.020 60.125 C 208.178 61.126,207.968 62.315,207.625 62.363 C 207.274 62.413,207.247 62.507,207.202 63.857 C 207.160 65.126,207.115 65.308,206.827 65.383 C 206.545 65.457,206.500 65.616,206.500 66.542 C 206.500 68.654,206.293 70.667,206.076 70.667 C 205.532 70.667,205.447 75.343,205.979 76.019 C 206.272 76.391,206.420 77.373,206.537 79.708 C 206.560 80.167,206.636 80.321,206.826 80.291 C 207.031 80.258,207.100 80.486,207.167 81.417 C 207.242 82.470,207.286 82.589,207.625 82.637 C 207.949 82.683,208.000 82.789,208.000 83.428 C 208.000 83.934,208.101 84.267,208.320 84.487 C 208.496 84.663,208.665 84.981,208.695 85.195 C 208.725 85.409,208.844 85.593,208.958 85.604 C 209.073 85.616,209.242 85.634,209.333 85.646 C 209.425 85.657,209.500 85.974,209.500 86.349 C 209.500 86.891,209.568 87.049,209.833 87.118 C 210.137 87.198,210.240 87.370,210.186 87.708 C 210.176 87.777,210.354 87.833,210.583 87.833 C 210.917 87.833,211.000 87.917,211.000 88.250 C 211.000 88.556,211.089 88.667,211.333 88.667 C 211.556 88.667,211.667 88.778,211.667 89.000 C 211.667 89.244,211.778 89.333,212.083 89.333 C 212.417 89.333,212.500 89.417,212.500 89.750 C 212.500 90.056,212.589 90.167,212.833 90.167 C 213.056 90.167,213.167 90.278,213.167 90.500 C 213.167 90.744,213.278 90.833,213.583 90.833 C 213.964 90.833,214.097 91.049,214.020 91.542 C 214.003 91.648,214.507 91.738,214.859 91.692 C 214.919 91.684,215.012 91.791,215.066 91.931 C 215.121 92.075,215.092 92.140,214.998 92.082 C 214.907 92.026,214.833 92.059,214.833 92.155 C 214.833 92.251,215.002 92.331,215.208 92.333 C 216.099 92.341,216.269 92.407,216.259 92.744 C 216.252 93.023,216.370 93.092,216.922 93.133 C 217.428 93.170,217.634 93.273,217.756 93.549 C 217.865 93.799,218.077 93.925,218.417 93.943 C 218.692 93.958,219.010 93.976,219.125 93.985 C 219.240 93.993,219.333 94.146,219.333 94.324 C 219.333 94.593,219.469 94.657,220.125 94.699 C 220.795 94.742,220.908 94.798,220.862 95.064 C 220.823 95.292,220.881 95.351,221.071 95.278 C 221.215 95.222,221.333 95.255,221.333 95.350 C 221.333 95.446,221.502 95.510,221.708 95.493 C 222.621 95.420,222.963 95.506,223.048 95.833 C 223.127 96.134,223.276 96.167,224.568 96.167 C 225.704 96.167,226.000 96.216,226.000 96.407 C 226.000 96.539,226.087 96.701,226.192 96.766 C 226.319 96.844,226.343 96.805,226.263 96.651 C 226.197 96.522,226.243 96.539,226.367 96.689 C 226.549 96.909,226.959 96.964,228.546 96.981 C 230.249 96.999,230.544 97.044,230.828 97.328 C 231.336 97.836,243.882 97.836,244.423 97.328 C 244.728 97.040,245.029 96.998,246.885 96.983 C 248.062 96.973,248.958 96.900,248.907 96.818 C 248.857 96.737,248.932 96.715,249.075 96.770 C 249.258 96.840,249.333 96.767,249.333 96.518 C 249.333 96.175,250.837 96.013,252.637 96.162 C 252.905 96.184,253.052 96.087,253.115 95.847 C 253.206 95.497,253.629 95.413,254.875 95.495 C 255.127 95.512,255.333 95.451,255.333 95.361 C 255.333 95.272,255.488 95.238,255.677 95.288 C 255.929 95.354,256.044 95.283,256.113 95.022 C 256.190 94.727,256.338 94.664,256.978 94.649 C 258.349 94.617,258.414 94.599,258.468 94.220 C 258.513 93.907,258.597 93.870,259.086 93.949 C 259.397 94.000,259.787 93.983,259.951 93.911 C 260.115 93.839,260.348 93.797,260.468 93.817 C 260.594 93.837,260.664 93.726,260.634 93.551 C 260.590 93.291,260.741 93.239,261.750 93.167 C 262.781 93.093,262.916 93.045,262.909 92.750 C 262.903 92.458,263.025 92.411,263.904 92.372 C 265.126 92.318,265.252 92.199,265.321 91.042 C 265.328 90.927,265.483 90.833,265.667 90.833 C 265.966 90.833,266.000 90.722,266.000 89.750 C 266.000 88.781,266.035 88.667,266.330 88.667 C 266.653 88.667,266.898 88.163,266.826 87.647 C 266.690 86.669,266.852 85.701,267.167 85.618 C 267.457 85.542,267.500 85.391,267.500 84.444 C 267.500 83.502,267.545 83.342,267.833 83.250 C 268.019 83.191,268.178 82.983,268.192 82.780 C 268.206 82.580,268.235 82.342,268.256 82.250 C 268.277 82.158,268.304 81.659,268.314 81.141 C 268.332 80.284,268.364 80.206,268.667 80.285 C 268.982 80.368,269.000 80.290,269.000 78.853 C 269.000 77.965,269.069 77.325,269.167 77.313 C 269.258 77.301,269.427 77.282,269.542 77.271 C 269.771 77.248,269.928 75.401,269.758 74.724 C 269.666 74.355,269.586 74.333,268.341 74.333 C 266.878 74.333,266.084 74.545,266.220 74.898 C 266.268 75.023,266.219 75.123,266.112 75.120 C 265.526 75.103,265.333 75.195,265.333 75.490 C 265.333 75.752,265.198 75.824,264.625 75.865 C 264.036 75.908,263.908 75.980,263.863 76.292 C 263.825 76.563,263.698 76.667,263.405 76.667 C 263.182 76.667,263.009 76.723,263.020 76.792 C 263.089 77.233,262.947 77.333,262.250 77.333 C 261.561 77.333,261.500 77.367,261.500 77.750 C 261.500 78.134,261.440 78.167,260.731 78.167 C 260.050 78.167,259.971 78.204,260.046 78.492 C 260.120 78.775,260.031 78.823,259.357 78.867 C 258.676 78.911,258.585 78.962,258.597 79.292 C 258.609 79.632,258.533 79.667,257.787 79.667 C 257.132 79.667,256.983 79.717,257.058 79.911 C 257.182 80.235,257.000 80.329,256.191 80.361 C 255.821 80.375,255.523 80.431,255.529 80.485 C 255.597 81.107,255.498 81.167,254.401 81.167 C 253.442 81.167,253.291 81.209,253.215 81.500 C 253.129 81.828,252.551 81.935,251.375 81.840 C 251.075 81.816,251.000 81.896,251.000 82.238 L 251.000 82.667 249.292 82.686 C 248.352 82.697,247.513 82.693,247.427 82.676 C 247.067 82.607,246.500 82.858,246.500 83.087 C 246.500 83.526,234.767 83.449,234.457 83.007 C 234.264 82.732,233.996 82.673,232.739 82.632 C 231.377 82.587,231.250 82.555,231.250 82.250 C 231.250 81.973,231.125 81.910,230.516 81.876 C 230.003 81.847,229.712 81.734,229.548 81.501 C 229.402 81.291,229.126 81.167,228.808 81.167 C 228.450 81.167,228.278 81.073,228.219 80.849 C 228.135 80.527,227.712 80.340,227.057 80.336 C 226.780 80.334,226.718 80.257,226.785 80.000 C 226.856 79.729,226.790 79.667,226.436 79.667 C 226.082 79.667,226.000 79.588,226.000 79.250 C 226.000 78.953,225.910 78.833,225.686 78.833 C 225.512 78.833,225.333 78.684,225.285 78.500 C 225.233 78.301,225.058 78.167,224.849 78.167 C 224.582 78.167,224.500 78.062,224.500 77.722 C 224.500 77.478,224.453 77.325,224.395 77.383 C 224.150 77.627,223.712 77.172,223.791 76.756 C 223.838 76.514,223.795 76.333,223.691 76.333 C 223.592 76.333,223.554 76.221,223.606 76.083 C 223.673 75.910,223.595 75.833,223.351 75.833 C 223.047 75.833,223.000 75.735,223.000 75.095 C 223.000 74.465,222.947 74.349,222.639 74.303 C 221.986 74.207,222.074 65.167,222.729 65.167 C 222.879 65.167,222.957 64.850,222.983 64.129 C 223.024 62.972,223.017 62.993,223.443 62.929 C 223.652 62.898,223.758 62.730,223.776 62.400 C 223.791 62.134,223.810 61.832,223.818 61.728 C 223.826 61.624,223.983 61.500,224.167 61.452 C 224.438 61.381,224.500 61.224,224.500 60.615 C 224.500 59.928,224.531 59.873,224.859 59.959 C 225.106 60.023,225.181 59.992,225.100 59.860 C 225.034 59.753,225.055 59.667,225.147 59.667 C 225.238 59.667,225.336 59.385,225.365 59.042 C 225.405 58.554,225.481 58.427,225.708 58.466 C 225.923 58.502,226.000 58.402,226.000 58.091 C 226.000 57.782,226.088 57.667,226.323 57.667 C 226.578 57.667,226.670 57.509,226.759 56.917 C 226.846 56.333,226.941 56.167,227.186 56.167 C 227.383 56.167,227.500 56.049,227.500 55.851 C 227.500 55.654,227.656 55.497,227.917 55.432 C 228.175 55.367,228.333 55.209,228.333 55.016 C 228.333 54.845,228.483 54.666,228.667 54.618 C 228.850 54.570,229.000 54.400,229.000 54.240 C 229.000 53.970,228.973 53.971,228.625 54.265 L 228.250 54.581 228.625 54.155 C 228.831 53.920,229.000 53.602,229.000 53.448 C 229.000 53.259,229.137 53.167,229.417 53.167 C 229.746 53.167,229.833 53.082,229.833 52.766 C 229.833 52.447,229.902 52.382,230.167 52.452 C 230.437 52.522,230.500 52.457,230.500 52.103 C 230.500 51.749,230.578 51.667,230.917 51.667 C 231.214 51.667,231.333 51.576,231.333 51.353 C 231.333 51.179,231.482 51.000,231.667 50.952 C 231.857 50.902,232.000 50.724,232.000 50.537 C 232.000 50.284,232.150 50.185,232.655 50.104 C 233.108 50.032,233.344 49.897,233.417 49.666 C 233.484 49.454,233.669 49.333,233.928 49.333 C 234.222 49.333,234.333 49.242,234.333 49.000 C 234.333 48.779,234.444 48.667,234.663 48.667 C 234.877 48.667,235.031 48.519,235.098 48.250 C 235.185 47.905,235.303 47.833,235.784 47.833 C 236.224 47.833,236.386 47.753,236.452 47.500 C 236.508 47.284,236.679 47.167,236.936 47.167 C 237.249 47.167,237.333 47.078,237.333 46.750 C 237.333 46.367,237.394 46.333,238.083 46.333 C 238.715 46.333,238.833 46.282,238.833 46.010 C 238.833 45.748,238.969 45.676,239.542 45.635 C 239.955 45.605,240.259 45.497,240.271 45.375 C 240.282 45.260,240.301 45.092,240.313 45.000 C 240.324 44.908,240.671 44.833,241.083 44.833 C 241.722 44.833,241.833 44.784,241.833 44.500 C 241.833 44.222,241.950 44.164,242.542 44.150 C 244.019 44.116,244.081 44.099,244.137 43.708 C 244.187 43.353,244.264 43.333,245.611 43.333 C 246.891 43.333,247.040 43.300,247.118 43.000 C 247.218 42.619,246.870 42.635,254.628 42.659 C 258.926 42.672,259.191 42.691,259.503 43.003 C 259.938 43.438,260.310 43.435,259.917 43.000 C 259.751 42.817,259.684 42.667,259.767 42.667 C 259.851 42.667,260.013 42.817,260.128 43.000 C 260.299 43.273,260.517 43.333,261.335 43.333 C 262.296 43.333,262.333 43.349,262.333 43.762 C 262.333 44.104,262.409 44.184,262.708 44.160 C 263.582 44.089,263.833 44.165,263.833 44.500 C 263.833 44.784,263.944 44.833,264.583 44.833 C 265.208 44.833,265.333 44.886,265.333 45.149 C 265.333 45.508,265.644 45.667,266.347 45.667 C 266.780 45.667,266.916 45.812,266.853 46.208 C 266.842 46.277,267.171 46.333,267.583 46.333 C 268.272 46.333,268.333 46.367,268.333 46.750 C 268.333 47.056,268.422 47.167,268.667 47.167 C 268.889 47.167,269.000 47.278,269.000 47.500 C 269.000 47.742,269.111 47.833,269.405 47.833 C 269.698 47.833,269.825 47.937,269.863 48.208 C 269.898 48.449,270.051 48.602,270.292 48.637 C 270.533 48.671,270.667 48.805,270.667 49.012 C 270.667 49.269,270.785 49.333,271.254 49.333 C 271.727 49.333,271.872 49.414,272.000 49.750 C 272.093 49.994,272.290 50.167,272.478 50.167 C 272.679 50.167,272.836 50.320,272.902 50.583 C 273.079 51.289,276.667 51.198,276.667 50.488 C 276.667 50.318,276.817 50.098,277.000 50.000 C 277.291 49.845,277.333 49.651,277.333 48.494 C 277.333 47.293,277.364 47.167,277.655 47.167 C 278.012 47.167,278.207 46.733,278.161 46.039 C 278.071 44.666,278.162 44.167,278.500 44.167 C 278.802 44.167,278.833 44.056,278.833 43.000 C 278.833 42.066,278.884 41.833,279.087 41.833 C 279.354 41.833,279.697 41.136,279.653 40.682 C 279.537 39.458,279.676 38.700,280.000 38.785 C 280.315 38.867,280.333 38.790,280.333 37.364 C 280.333 35.932,280.352 35.854,280.705 35.803 C 281.038 35.755,281.080 35.644,281.114 34.726 L 281.152 33.702 280.427 33.594 C 279.902 33.515,279.678 33.395,279.616 33.159 C 279.549 32.903,279.386 32.833,278.849 32.833 C 278.361 32.833,278.167 32.764,278.167 32.589 C 278.167 32.257,277.579 31.967,277.033 32.031 C 276.676 32.072,276.572 32.007,276.531 31.716 C 276.484 31.384,276.369 31.343,275.364 31.299 C 274.418 31.257,274.257 31.207,274.298 30.963 C 274.345 30.679,273.821 30.436,273.314 30.507 C 272.501 30.621,272.000 30.488,272.000 30.159 C 272.000 29.972,271.906 29.831,271.792 29.846 C 270.578 30.003,269.000 29.810,269.000 29.503 C 269.000 29.165,268.502 28.941,267.893 29.006 C 266.387 29.165,264.534 28.982,264.452 28.667 C 264.314 28.142,247.671 28.143,247.312 28.668 M368.717 29.789 C 368.745 31.032,368.792 31.250,369.030 31.252 C 369.461 31.255,369.483 31.331,369.514 32.882 C 369.540 34.179,369.576 34.333,369.855 34.333 C 370.144 34.333,370.303 35.273,370.183 36.273 C 370.138 36.653,370.498 37.333,370.746 37.333 C 370.948 37.333,371.000 37.559,371.000 38.432 C 371.000 39.384,371.044 39.543,371.327 39.617 C 371.613 39.691,371.660 39.873,371.702 41.059 C 371.745 42.284,371.787 42.433,372.125 42.581 C 372.456 42.727,372.500 42.867,372.500 43.790 C 372.500 44.609,372.571 44.905,372.832 45.165 C 373.052 45.385,373.178 45.764,373.207 46.290 L 373.250 47.083 383.759 47.126 L 394.268 47.169 394.309 46.472 C 394.358 45.644,394.435 45.486,394.733 45.600 C 395.015 45.708,395.161 45.182,395.164 44.057 C 395.166 43.280,395.199 43.206,395.500 43.285 C 395.815 43.367,395.833 43.290,395.833 41.864 C 395.833 40.428,395.851 40.354,396.208 40.303 C 396.544 40.256,396.586 40.150,396.607 39.291 C 396.637 38.114,396.743 37.809,397.077 37.937 C 397.296 38.021,397.333 37.817,397.333 36.536 C 397.333 35.064,397.341 35.034,397.762 34.929 C 398.102 34.843,398.184 34.727,398.161 34.369 C 398.087 33.241,398.166 32.872,398.500 32.785 C 398.790 32.709,398.833 32.558,398.833 31.619 C 398.833 30.696,398.886 30.506,399.196 30.300 C 399.483 30.109,399.561 29.888,399.571 29.238 L 399.583 28.417 384.134 28.373 L 368.685 28.328 368.717 29.789 M374.898 51.262 C 374.954 51.408,374.925 51.474,374.831 51.415 C 374.729 51.352,374.667 51.725,374.667 52.395 C 374.667 53.438,374.904 54.000,375.345 54.000 C 375.430 54.000,375.500 54.492,375.500 55.093 C 375.500 55.694,375.560 56.149,375.633 56.104 C 376.012 55.870,376.192 56.343,376.185 57.559 C 376.181 58.321,376.247 58.833,376.349 58.833 C 376.443 58.833,376.472 58.910,376.414 59.004 C 376.356 59.098,376.370 59.164,376.446 59.151 C 376.926 59.068,376.989 59.225,377.035 60.625 C 377.080 61.978,377.109 62.087,377.446 62.135 C 377.759 62.180,377.797 62.264,377.718 62.751 C 377.572 63.648,377.791 64.500,378.168 64.500 C 378.454 64.500,378.492 64.649,378.535 65.958 C 378.576 67.181,378.627 67.414,378.853 67.397 C 379.067 67.382,379.144 67.605,379.224 68.469 C 379.362 69.937,379.038 69.851,384.264 69.798 L 388.917 69.750 388.964 67.886 C 389.009 66.104,389.027 66.019,389.380 65.969 C 389.794 65.910,389.790 65.932,389.816 63.708 C 389.832 62.284,389.859 62.167,390.167 62.167 C 390.478 62.167,390.500 62.056,390.500 60.504 C 390.500 58.911,390.518 58.829,390.919 58.566 C 391.150 58.415,391.328 58.207,391.316 58.104 C 391.201 57.131,391.362 55.333,391.566 55.333 C 391.938 55.333,392.016 54.884,391.989 52.887 L 391.963 51.006 383.381 51.006 C 375.738 51.006,374.811 51.034,374.898 51.262 M30.568 56.586 C 30.501 56.850,30.346 57.000,30.138 57.000 C 29.928 57.000,29.823 57.103,29.842 57.292 C 29.988 58.727,29.819 60.132,29.511 60.051 C 29.165 59.961,28.934 60.637,29.014 61.506 C 29.106 62.510,29.001 62.961,28.654 63.052 C 28.445 63.106,28.321 63.262,28.340 63.446 C 28.460 64.596,28.317 66.000,28.079 66.000 C 27.521 66.000,27.265 69.074,27.780 69.589 C 28.101 69.910,53.346 69.888,53.667 69.566 C 53.875 69.359,53.972 68.776,53.989 67.636 C 53.998 67.011,54.065 66.835,54.330 66.751 C 54.511 66.693,54.653 66.595,54.644 66.532 C 54.456 65.211,54.699 63.667,55.096 63.667 C 55.460 63.667,55.521 63.598,55.495 63.208 C 55.384 61.532,55.500 60.667,55.833 60.667 C 56.143 60.667,56.167 60.556,56.167 59.081 C 56.167 58.105,56.247 57.365,56.375 57.155 C 56.551 56.868,56.538 56.789,56.288 56.647 C 56.126 56.555,56.036 56.411,56.088 56.326 C 56.145 56.234,51.144 56.173,43.427 56.173 L 30.671 56.173 30.568 56.586 M128.284 74.735 C 128.449 74.955,128.609 75.065,128.641 74.979 C 128.710 74.790,128.355 74.333,128.138 74.333 C 128.054 74.333,128.119 74.514,128.284 74.735 M129.066 83.681 C 129.206 83.831,129.150 83.854,128.833 83.775 C 128.604 83.718,125.656 83.670,122.282 83.669 C 118.908 83.668,116.182 83.610,116.224 83.542 C 116.361 83.321,128.858 83.456,129.066 83.681 M156.105 97.132 C 156.050 97.221,155.856 97.332,155.674 97.380 C 155.356 97.463,155.354 97.452,155.630 97.080 C 155.895 96.722,156.329 96.770,156.105 97.132 M138.917 97.167 C 139.214 97.295,139.202 97.311,138.802 97.322 C 138.555 97.328,138.307 97.258,138.250 97.167 C 138.127 96.968,138.454 96.968,138.917 97.167 M150.803 97.291 C 148.724 97.318,145.274 97.318,143.136 97.292 C 140.999 97.265,142.700 97.244,146.917 97.243 C 151.133 97.243,152.882 97.265,150.803 97.291 M6.550 105.659 C 6.478 105.935,6.294 105.993,5.357 106.034 C 4.353 106.079,4.245 106.118,4.197 106.458 C 4.157 106.735,4.032 106.833,3.719 106.833 C 3.377 106.833,3.311 106.898,3.382 107.167 C 3.445 107.410,3.383 107.506,3.151 107.521 C 2.976 107.532,2.758 107.560,2.667 107.583 C 2.575 107.606,2.398 107.634,2.274 107.646 C 2.149 107.657,1.978 107.985,1.894 108.375 C 1.788 108.866,1.663 109.071,1.486 109.042 C 1.297 109.011,1.221 109.180,1.190 109.704 C 1.152 110.353,1.025 110.565,0.583 110.719 C 0.193 110.856,0.387 113.412,0.792 113.470 C 1.137 113.519,1.167 113.610,1.167 114.611 C 1.167 115.558,1.210 115.709,1.500 115.785 C 1.684 115.833,1.833 116.012,1.833 116.186 C 1.833 116.410,1.953 116.500,2.250 116.500 C 2.585 116.500,2.667 116.583,2.667 116.924 C 2.667 117.166,2.756 117.336,2.875 117.321 C 3.307 117.265,3.500 117.341,3.500 117.566 C 3.500 117.880,3.872 118.000,4.847 118.000 C 5.647 118.000,5.750 118.078,5.679 118.625 C 5.660 118.775,5.984 118.833,6.826 118.833 C 7.889 118.833,8.000 118.865,8.000 119.167 C 8.000 119.462,8.111 119.500,8.979 119.500 C 10.354 119.500,10.956 119.648,11.051 120.009 C 11.116 120.260,11.326 120.326,12.191 120.367 C 13.085 120.409,13.243 120.461,13.202 120.704 C 13.171 120.892,13.299 121.027,13.577 121.097 C 13.990 121.200,14.087 121.453,14.007 122.218 C 13.989 122.394,14.068 122.499,14.196 122.470 C 14.317 122.442,14.417 122.493,14.417 122.583 C 14.417 122.674,14.323 122.726,14.208 122.700 C 14.065 122.667,14.000 122.889,14.000 123.409 C 14.000 124.114,13.970 124.167,13.566 124.167 C 13.252 124.167,13.157 124.235,13.225 124.411 C 13.345 124.724,13.182 124.819,12.481 124.847 C 11.363 124.890,11.000 125.013,11.000 125.347 C 11.000 125.632,10.873 125.667,9.833 125.667 C 8.920 125.667,8.667 125.614,8.667 125.423 C 8.667 125.136,8.110 124.802,7.702 124.843 C 6.772 124.936,6.333 124.826,6.333 124.500 C 6.333 124.262,6.222 124.167,5.945 124.167 C 5.650 124.167,5.560 124.077,5.570 123.792 C 5.580 123.525,5.475 123.401,5.208 123.363 C 4.890 123.318,4.833 123.208,4.833 122.639 C 4.833 122.115,4.763 121.950,4.509 121.884 C 4.265 121.820,4.172 121.628,4.134 121.108 L 4.083 120.417 2.042 120.379 L 0.000 120.341 0.000 121.823 C 0.000 122.649,0.073 123.330,0.164 123.361 C 0.255 123.392,0.349 123.867,0.373 124.417 C 0.410 125.272,0.471 125.441,0.792 125.581 C 0.998 125.672,1.167 125.878,1.167 126.040 C 1.167 126.222,1.293 126.333,1.500 126.333 C 1.683 126.333,1.843 126.408,1.854 126.500 C 1.866 126.592,1.884 126.760,1.896 126.875 C 1.907 126.990,2.078 127.106,2.275 127.134 C 2.472 127.162,2.671 127.331,2.717 127.509 C 2.764 127.688,2.922 127.833,3.068 127.833 C 3.214 127.833,3.333 127.946,3.333 128.083 C 3.333 128.221,3.413 128.333,3.510 128.333 C 3.607 128.333,3.645 128.400,3.595 128.480 C 3.545 128.561,3.803 128.632,4.168 128.637 C 4.958 128.647,5.184 128.761,5.060 129.084 C 4.982 129.288,5.626 129.323,9.484 129.322 C 13.860 129.321,14.000 129.311,14.000 128.994 C 14.000 128.746,14.121 128.662,14.500 128.646 C 15.345 128.611,15.416 128.590,15.438 128.375 C 15.449 128.260,15.468 128.092,15.479 128.000 C 15.491 127.908,15.799 127.833,16.163 127.833 C 16.725 127.833,16.842 127.772,16.928 127.432 C 16.983 127.212,17.172 126.994,17.347 126.948 C 17.586 126.886,17.667 126.716,17.667 126.277 C 17.667 125.795,17.734 125.680,18.042 125.637 C 18.442 125.580,18.451 125.549,18.481 124.208 C 18.497 123.460,18.547 123.333,18.823 123.333 C 19.109 123.333,19.146 123.211,19.146 122.250 C 19.146 121.289,19.109 121.167,18.823 121.167 C 18.551 121.167,18.497 121.041,18.482 120.375 C 18.450 118.944,18.442 118.916,18.042 118.930 C 17.756 118.940,17.667 118.850,17.667 118.555 C 17.667 118.325,17.567 118.167,17.423 118.167 C 17.151 118.167,16.785 117.603,16.950 117.439 C 17.008 117.381,16.856 117.333,16.611 117.333 C 16.279 117.333,16.167 117.250,16.167 117.003 C 16.167 116.658,15.638 116.429,15.075 116.529 C 14.873 116.565,14.741 116.456,14.678 116.198 C 14.626 115.987,14.527 115.818,14.458 115.823 C 13.591 115.892,12.500 115.798,12.500 115.655 C 12.500 115.215,12.017 115.030,10.841 115.019 C 9.681 115.009,9.065 114.799,9.262 114.481 C 9.312 114.400,8.870 114.333,8.279 114.333 C 7.351 114.333,7.194 114.289,7.120 114.005 C 7.059 113.771,6.835 113.644,6.350 113.567 C 5.832 113.484,5.667 113.382,5.667 113.145 C 5.667 112.924,5.546 112.833,5.250 112.833 C 4.677 112.833,4.639 112.051,5.208 111.970 C 5.520 111.926,5.592 111.797,5.635 111.208 C 5.675 110.655,5.752 110.500,5.987 110.500 C 6.153 110.500,6.479 110.350,6.712 110.167 C 7.351 109.664,11.849 109.653,11.718 110.154 C 11.652 110.408,11.734 110.486,12.109 110.529 C 12.478 110.571,12.571 110.657,12.526 110.917 C 12.494 111.100,12.522 111.197,12.587 111.133 C 12.801 110.922,13.216 111.514,13.233 112.055 C 13.245 112.434,13.356 112.630,13.625 112.748 C 13.831 112.838,14.000 113.049,14.000 113.216 C 14.000 113.497,14.164 113.516,16.208 113.468 L 18.417 113.417 18.417 112.433 C 18.417 111.604,18.368 111.441,18.110 111.403 C 17.679 111.340,17.682 111.350,17.647 110.178 C 17.621 109.307,17.561 109.108,17.308 109.042 C 17.027 108.968,16.928 108.791,16.980 108.458 C 16.991 108.390,16.813 108.333,16.583 108.333 C 16.253 108.333,16.167 108.249,16.167 107.928 C 16.167 107.635,16.063 107.508,15.792 107.470 C 15.547 107.435,15.433 107.319,15.463 107.134 C 15.501 106.907,15.354 106.842,14.713 106.801 C 14.045 106.758,13.917 106.696,13.917 106.417 C 13.917 106.119,13.789 106.078,12.726 106.035 C 11.637 105.990,11.542 105.958,11.620 105.660 C 11.702 105.346,11.605 105.333,9.171 105.333 C 6.794 105.333,6.630 105.354,6.550 105.659 M127.833 105.669 C 127.632 105.930,127.340 106.002,126.333 106.038 C 125.180 106.080,125.079 106.112,125.030 106.458 C 124.979 106.817,124.520 106.951,123.708 106.846 C 123.594 106.831,123.500 106.972,123.500 107.159 C 123.500 107.412,123.392 107.500,123.083 107.500 C 122.750 107.500,122.667 107.583,122.667 107.917 C 122.667 108.250,122.583 108.333,122.250 108.333 C 121.944 108.333,121.833 108.422,121.833 108.667 C 121.833 108.889,121.722 109.000,121.500 109.000 C 121.256 109.000,121.167 109.111,121.167 109.417 C 121.167 109.646,121.092 109.843,121.000 109.854 C 120.908 109.866,120.740 109.884,120.625 109.896 C 120.503 109.908,120.395 110.212,120.365 110.625 C 120.319 111.261,120.197 111.417,119.792 111.353 C 119.723 111.342,119.676 111.390,119.686 111.458 C 119.784 112.079,119.634 112.833,119.413 112.833 C 118.937 112.833,118.849 113.643,118.883 117.698 L 118.917 121.750 119.292 121.803 C 119.637 121.852,119.667 121.943,119.667 122.944 C 119.667 123.873,119.713 124.043,119.984 124.114 C 120.188 124.167,120.341 124.404,120.410 124.773 C 120.484 125.168,120.642 125.395,120.912 125.498 C 121.203 125.609,121.283 125.738,121.217 125.991 C 121.150 126.247,121.207 126.333,121.441 126.333 C 121.613 126.333,121.828 126.502,121.919 126.707 C 122.009 126.913,122.231 127.109,122.413 127.143 C 122.594 127.178,122.826 127.321,122.929 127.462 C 123.043 127.618,123.201 127.665,123.334 127.583 C 123.473 127.497,123.511 127.514,123.440 127.630 C 123.371 127.740,123.508 127.831,123.789 127.864 C 124.121 127.902,124.250 128.010,124.250 128.250 C 124.250 128.522,124.378 128.593,124.950 128.634 C 125.470 128.672,125.676 128.768,125.753 129.009 C 125.913 129.515,135.253 129.515,135.414 129.009 C 135.490 128.768,135.697 128.672,136.217 128.634 C 136.789 128.593,136.917 128.522,136.917 128.250 C 136.917 127.970,137.045 127.908,137.725 127.865 C 138.432 127.820,138.523 127.773,138.449 127.490 C 138.371 127.193,138.577 127.074,139.042 127.147 C 139.110 127.158,139.167 126.979,139.167 126.750 C 139.167 126.388,139.240 126.333,139.730 126.333 C 140.039 126.333,140.379 126.230,140.484 126.103 C 140.794 125.729,140.724 116.609,140.412 116.729 C 140.283 116.778,140.133 116.747,140.079 116.659 C 139.941 116.436,130.053 116.446,129.915 116.669 C 129.857 116.763,129.746 116.799,129.668 116.751 C 129.590 116.703,129.539 117.620,129.555 118.790 L 129.583 120.917 132.875 120.962 L 136.167 121.007 136.167 122.238 C 136.167 123.387,136.144 123.463,135.833 123.382 C 135.563 123.311,135.500 123.377,135.500 123.731 C 135.500 124.174,135.222 124.273,134.268 124.171 C 134.027 124.146,133.974 124.218,134.043 124.478 C 134.125 124.793,134.047 124.823,133.024 124.868 C 132.060 124.910,131.895 124.965,131.752 125.292 C 131.522 125.817,129.333 125.872,129.333 125.353 C 129.333 124.993,128.905 124.839,127.894 124.836 C 127.359 124.834,127.187 124.763,127.123 124.517 C 127.060 124.278,126.889 124.200,126.426 124.200 C 125.717 124.200,125.658 124.162,125.622 123.686 C 125.604 123.437,125.483 123.333,125.215 123.333 C 124.888 123.333,124.833 123.247,124.833 122.734 C 124.833 122.281,124.754 122.115,124.508 122.050 C 124.255 121.984,124.172 121.794,124.133 121.191 C 124.091 120.533,124.027 120.409,123.708 120.363 C 123.230 120.295,123.100 115.000,123.577 115.000 C 123.938 115.000,124.167 114.455,124.167 113.594 C 124.167 112.944,124.215 112.833,124.500 112.833 C 124.744 112.833,124.833 112.722,124.833 112.417 C 124.833 112.105,124.921 112.000,125.182 112.000 C 125.385 112.000,125.566 111.867,125.614 111.682 C 125.660 111.507,125.843 111.326,126.020 111.280 C 126.198 111.233,126.332 111.133,126.318 111.056 C 126.254 110.688,126.360 110.500,126.633 110.500 C 126.798 110.500,127.034 110.406,127.158 110.292 C 127.337 110.125,127.359 110.125,127.265 110.292 C 127.191 110.422,127.250 110.500,127.422 110.500 C 127.574 110.500,127.737 110.350,127.785 110.167 C 127.883 109.790,127.866 109.792,130.963 109.808 C 133.134 109.820,133.374 109.867,133.225 110.255 C 133.157 110.432,133.252 110.500,133.566 110.500 C 133.895 110.500,134.000 110.584,134.000 110.849 C 134.000 111.052,134.133 111.233,134.318 111.281 C 134.493 111.327,134.673 111.507,134.719 111.682 C 134.767 111.867,134.948 112.000,135.151 112.000 C 135.493 112.000,135.619 112.600,135.510 113.698 C 135.437 114.439,138.365 114.615,138.470 113.875 C 138.516 113.550,138.622 113.500,139.268 113.500 L 140.013 113.500 139.965 112.042 C 139.920 110.673,139.894 110.580,139.542 110.530 C 139.195 110.481,139.032 109.957,139.152 109.277 C 139.165 109.201,139.024 109.098,138.838 109.050 C 138.649 109.000,138.500 108.822,138.500 108.647 C 138.500 108.424,138.380 108.333,138.083 108.333 C 137.750 108.333,137.667 108.250,137.667 107.917 C 137.667 107.687,137.610 107.509,137.542 107.520 C 137.173 107.578,137.000 107.465,137.000 107.167 C 137.000 106.883,136.889 106.833,136.262 106.833 C 135.623 106.833,135.516 106.783,135.470 106.458 C 135.413 106.059,135.381 106.049,134.061 106.019 C 133.355 106.003,133.190 105.942,133.118 105.667 C 132.986 105.162,128.224 105.164,127.833 105.669 M311.806 105.652 C 311.509 105.886,311.074 105.997,310.318 106.033 C 309.355 106.078,309.245 106.120,309.197 106.458 C 309.158 106.730,309.032 106.833,308.738 106.833 C 308.444 106.833,308.333 106.925,308.333 107.167 C 308.333 107.396,308.216 107.506,307.958 107.518 C 306.986 107.564,306.917 107.590,306.917 107.917 C 306.917 108.156,306.788 108.265,306.458 108.303 C 306.146 108.339,306.000 108.452,306.000 108.658 C 306.000 108.825,305.845 109.002,305.656 109.051 C 305.467 109.100,305.326 109.240,305.343 109.362 C 305.452 110.164,305.326 110.500,304.917 110.500 C 304.568 110.500,304.500 110.579,304.500 110.982 C 304.500 111.271,304.393 111.505,304.233 111.567 C 304.075 111.627,304.006 111.775,304.064 111.927 C 304.121 112.074,304.092 112.140,303.998 112.082 C 303.896 112.019,303.833 112.420,303.833 113.145 C 303.833 114.226,303.806 114.314,303.458 114.363 C 303.026 114.425,302.778 120.677,303.197 120.936 C 303.316 121.009,303.338 120.976,303.258 120.847 C 303.166 120.697,303.226 120.701,303.483 120.861 C 303.783 121.049,303.833 121.242,303.833 122.207 C 303.833 123.211,303.868 123.333,304.157 123.333 C 304.419 123.333,304.491 123.469,304.532 124.042 C 304.562 124.455,304.670 124.759,304.792 124.771 C 304.906 124.782,305.075 124.801,305.167 124.813 C 305.258 124.824,305.333 125.021,305.333 125.250 C 305.333 125.556,305.422 125.667,305.667 125.667 C 305.889 125.667,306.000 125.778,306.000 126.000 C 306.000 126.244,306.111 126.333,306.417 126.333 C 306.747 126.333,306.833 126.417,306.833 126.738 C 306.833 127.032,306.937 127.158,307.208 127.197 C 307.452 127.231,307.567 127.348,307.537 127.530 C 307.504 127.727,307.628 127.826,307.954 127.863 C 308.288 127.902,308.417 128.009,308.417 128.250 C 308.417 128.522,308.545 128.593,309.108 128.634 C 309.628 128.672,309.820 128.765,309.884 129.009 C 310.016 129.515,318.650 129.515,318.783 129.009 C 318.847 128.765,319.039 128.672,319.559 128.634 C 320.130 128.592,320.259 128.518,320.303 128.208 C 320.342 127.937,320.468 127.833,320.762 127.833 C 320.984 127.833,321.158 127.777,321.147 127.708 C 321.086 127.319,321.233 127.185,321.833 127.083 C 322.222 127.018,322.500 126.878,322.500 126.748 C 322.500 126.626,322.688 126.303,322.917 126.030 C 323.146 125.758,323.333 125.377,323.333 125.184 C 323.333 124.871,323.582 124.741,324.042 124.814 C 324.110 124.824,324.167 124.496,324.167 124.083 C 324.167 123.444,324.216 123.333,324.500 123.333 C 324.799 123.333,324.833 123.222,324.833 122.256 C 324.833 121.227,325.190 120.579,325.555 120.944 C 325.680 121.069,325.683 114.544,325.557 114.042 C 325.502 113.818,325.337 113.667,325.149 113.667 C 324.842 113.667,324.710 112.893,324.827 111.779 C 324.846 111.596,324.722 111.440,324.513 111.385 C 324.210 111.306,324.081 111.039,324.147 110.625 C 324.158 110.556,323.979 110.500,323.750 110.500 C 323.343 110.500,323.206 110.090,323.321 109.208 C 323.336 109.094,323.195 109.000,323.007 109.000 C 322.791 109.000,322.667 108.891,322.667 108.702 C 322.667 108.516,322.531 108.394,322.307 108.377 C 321.895 108.346,321.658 108.050,321.783 107.723 C 321.847 107.557,321.675 107.500,321.101 107.500 C 320.444 107.500,320.333 107.452,320.333 107.167 C 320.333 106.911,320.222 106.833,319.859 106.833 C 319.597 106.833,319.250 106.685,319.083 106.500 C 318.728 106.107,318.857 106.048,319.238 106.429 C 319.460 106.650,319.500 106.653,319.500 106.446 C 319.500 106.116,319.137 106.000,318.096 106.000 C 317.445 106.000,317.144 105.918,316.931 105.683 C 316.487 105.191,312.423 105.167,311.806 105.652 M372.500 105.676 C 372.500 105.953,372.374 106.003,371.625 106.019 C 370.284 106.049,370.254 106.058,370.197 106.458 C 370.146 106.815,369.771 106.941,369.040 106.845 C 368.925 106.830,368.759 107.008,368.671 107.239 C 368.562 107.526,368.427 107.628,368.249 107.560 C 368.104 107.504,367.998 107.525,368.013 107.605 C 368.112 108.148,367.974 108.442,367.625 108.430 C 367.300 108.418,367.243 108.512,367.199 109.125 C 367.158 109.685,367.083 109.833,366.839 109.833 C 366.555 109.833,366.529 110.014,366.510 112.104 C 366.489 114.310,366.498 114.373,366.828 114.287 C 367.142 114.204,367.315 114.892,367.186 115.708 C 367.176 115.777,367.354 115.833,367.583 115.833 C 367.889 115.833,368.000 115.922,368.000 116.167 C 368.000 116.389,368.111 116.500,368.333 116.500 C 368.632 116.500,368.761 116.767,368.682 117.221 C 368.669 117.296,368.717 117.324,368.788 117.282 C 369.065 117.118,369.662 117.486,369.558 117.756 C 369.491 117.929,369.537 118.014,369.686 117.993 C 370.469 117.883,371.000 118.014,371.000 118.316 C 371.000 118.746,371.310 118.833,372.831 118.833 C 374.014 118.833,374.128 118.862,374.055 119.139 C 373.989 119.394,374.081 119.448,374.613 119.465 C 376.271 119.517,377.125 119.691,377.104 119.972 C 377.087 120.199,377.272 120.259,378.102 120.299 C 378.998 120.342,379.142 120.397,379.306 120.757 C 379.409 120.982,379.607 121.167,379.746 121.167 C 379.955 121.167,380.000 121.435,380.000 122.667 C 380.000 124.038,379.972 124.167,379.678 124.167 C 379.501 124.167,379.308 124.317,379.250 124.500 C 379.163 124.773,378.998 124.833,378.336 124.833 C 377.313 124.833,377.000 124.955,377.000 125.351 C 377.000 125.842,374.739 125.825,374.583 125.333 C 374.525 125.150,374.351 124.988,374.197 124.974 C 373.868 124.943,373.259 124.880,372.650 124.813 C 372.325 124.777,372.235 124.689,372.294 124.466 C 372.360 124.214,372.264 124.167,371.696 124.167 L 371.019 124.167 370.968 123.458 C 370.925 122.869,370.853 122.741,370.542 122.697 C 370.211 122.650,370.164 122.542,370.147 121.780 C 370.137 121.305,370.118 120.804,370.106 120.667 C 370.087 120.458,369.722 120.417,367.917 120.417 L 365.750 120.417 365.722 122.219 C 365.698 123.765,365.734 124.036,365.972 124.123 C 366.369 124.270,366.495 124.508,366.497 125.125 C 366.499 125.555,366.569 125.667,366.833 125.667 C 367.075 125.667,367.167 125.778,367.167 126.070 C 367.167 126.686,367.338 127.000,367.673 127.000 C 367.861 127.000,367.997 127.143,368.030 127.375 C 368.074 127.687,368.203 127.759,368.792 127.801 C 369.418 127.847,369.500 127.900,369.500 128.260 C 369.500 128.631,369.566 128.667,370.250 128.667 C 370.881 128.667,371.000 128.718,371.000 128.990 C 371.000 129.302,371.163 129.314,375.521 129.328 C 379.946 129.342,380.040 129.336,379.955 129.013 C 379.880 128.724,379.965 128.677,380.643 128.633 C 381.109 128.603,381.425 128.501,381.438 128.375 C 381.449 128.260,381.468 128.092,381.479 128.000 C 381.491 127.908,381.657 127.833,381.849 127.833 C 382.058 127.833,382.233 127.699,382.285 127.500 C 382.364 127.196,382.536 127.093,382.875 127.147 C 382.944 127.158,383.000 126.984,383.000 126.762 C 383.000 126.468,383.104 126.342,383.375 126.303 C 383.610 126.270,383.769 126.116,383.801 125.892 C 383.829 125.695,383.998 125.496,384.176 125.449 C 384.354 125.403,384.500 125.241,384.500 125.089 C 384.500 124.917,384.422 124.858,384.292 124.931 C 384.125 125.025,384.125 125.004,384.292 124.824 C 384.684 124.402,384.578 119.667,384.176 119.667 C 383.915 119.667,383.843 119.531,383.801 118.958 C 383.759 118.369,383.687 118.241,383.375 118.197 C 383.104 118.158,383.000 118.032,383.000 117.738 C 383.000 117.417,382.913 117.333,382.583 117.333 C 382.286 117.333,382.167 117.243,382.167 117.019 C 382.167 116.693,381.176 116.371,380.830 116.585 C 380.739 116.642,380.667 116.494,380.667 116.253 C 380.667 116.002,380.579 115.830,380.458 115.846 C 379.446 115.977,378.500 115.814,378.500 115.508 C 378.500 115.190,377.771 114.919,377.152 115.006 C 376.257 115.133,375.535 114.983,375.448 114.654 C 375.394 114.445,375.238 114.321,375.054 114.340 C 373.576 114.494,372.391 114.324,372.403 113.958 C 372.414 113.673,372.327 113.586,372.042 113.597 C 371.678 113.609,371.595 113.488,371.656 113.032 C 371.673 112.907,371.557 112.836,371.384 112.866 C 370.903 112.947,370.845 111.413,371.325 111.287 C 371.532 111.233,371.667 111.061,371.667 110.849 C 371.667 110.532,371.930 110.402,372.396 110.487 C 372.477 110.502,372.503 110.361,372.454 110.174 C 372.367 109.842,372.428 109.833,374.996 109.833 C 377.488 109.833,377.632 109.851,377.715 110.167 C 377.767 110.366,377.942 110.500,378.151 110.500 C 378.394 110.500,378.500 110.606,378.500 110.849 C 378.500 111.051,378.633 111.233,378.815 111.280 C 379.146 111.367,379.333 111.959,379.333 112.921 L 379.333 113.468 381.571 113.490 L 383.808 113.512 383.779 111.715 C 383.751 109.987,383.735 109.915,383.375 109.863 C 383.051 109.817,383.000 109.711,383.000 109.072 C 383.000 108.459,382.947 108.333,382.685 108.333 C 382.487 108.333,382.330 108.177,382.265 107.917 C 382.197 107.648,382.043 107.500,381.830 107.500 C 381.609 107.500,381.500 107.388,381.500 107.159 C 381.500 106.972,381.406 106.831,381.292 106.846 C 380.480 106.951,380.021 106.817,379.970 106.458 C 379.921 106.115,379.817 106.079,378.726 106.035 C 377.649 105.991,377.543 105.956,377.618 105.669 C 377.697 105.367,377.574 105.352,375.100 105.352 C 372.636 105.352,372.500 105.369,372.500 105.676 M60.074 106.214 C 60.032 106.325,60.016 111.554,60.040 117.833 L 60.083 129.250 69.083 129.250 L 78.083 129.250 78.122 127.417 C 78.144 126.408,78.124 125.415,78.078 125.210 L 77.994 124.836 71.247 124.877 L 64.500 124.917 64.500 122.208 L 64.500 119.500 70.375 119.480 C 73.606 119.469,76.312 119.471,76.387 119.484 C 76.463 119.498,76.477 119.431,76.419 119.337 C 76.361 119.244,76.389 119.167,76.482 119.167 C 76.587 119.167,76.637 118.406,76.616 117.125 L 76.583 115.083 76.167 115.058 C 75.938 115.044,73.219 115.025,70.125 115.016 L 64.500 115.000 64.500 112.417 L 64.500 109.833 64.833 110.167 C 65.154 110.487,65.387 110.500,70.792 110.498 C 76.849 110.495,77.239 110.463,77.112 109.977 C 77.068 109.806,77.099 109.708,77.182 109.760 C 77.269 109.813,77.333 109.035,77.333 107.924 L 77.333 105.995 68.743 106.003 C 62.159 106.009,60.134 106.059,60.074 106.214 M182.333 115.059 C 182.333 123.905,182.341 124.130,182.658 124.213 C 182.925 124.282,182.991 124.471,183.033 125.274 C 183.078 126.141,183.125 126.256,183.458 126.303 C 183.732 126.342,183.833 126.468,183.833 126.769 C 183.833 127.069,183.913 127.168,184.125 127.132 C 184.320 127.100,184.434 127.208,184.470 127.458 C 184.508 127.726,184.636 127.833,184.917 127.833 C 185.198 127.833,185.325 127.940,185.363 128.208 C 185.409 128.527,185.533 128.591,186.191 128.633 C 186.869 128.677,186.954 128.724,186.878 129.013 C 186.794 129.336,186.887 129.342,191.313 129.328 C 195.671 129.314,195.833 129.302,195.833 128.990 C 195.833 128.683,196.341 128.552,197.128 128.655 C 197.244 128.670,197.329 128.623,197.316 128.550 C 197.234 128.064,197.368 127.833,197.731 127.833 C 197.988 127.833,198.159 127.716,198.215 127.500 C 198.263 127.317,198.422 127.167,198.568 127.167 C 198.740 127.167,198.833 127.020,198.833 126.750 C 198.833 126.417,198.917 126.333,199.250 126.333 C 199.551 126.333,199.667 126.244,199.667 126.011 C 199.667 125.834,199.808 125.644,199.980 125.590 C 200.253 125.503,200.297 125.301,200.319 124.046 C 200.345 122.525,200.373 122.422,200.774 122.419 C 200.993 122.417,201.024 121.400,201.027 114.250 L 201.030 106.083 198.848 106.037 L 196.667 105.990 196.667 113.205 C 196.667 120.336,196.663 120.422,196.319 120.637 C 196.115 120.764,196.011 120.956,196.067 121.102 C 196.121 121.242,196.091 121.306,195.998 121.249 C 195.896 121.186,195.833 121.556,195.833 122.221 C 195.833 123.165,195.792 123.305,195.490 123.384 C 195.301 123.434,195.168 123.574,195.195 123.695 C 195.290 124.131,194.379 124.811,193.627 124.865 C 193.012 124.910,192.918 124.967,192.930 125.292 C 192.951 125.891,190.720 125.855,190.062 125.245 C 189.811 125.013,189.489 124.834,189.345 124.847 C 188.608 124.916,188.333 124.822,188.333 124.500 C 188.333 124.256,188.222 124.167,187.917 124.167 C 187.534 124.167,187.500 124.106,187.500 123.417 C 187.500 122.778,187.451 122.667,187.167 122.667 C 186.838 122.667,186.833 122.551,186.819 114.958 C 186.811 110.719,186.792 106.987,186.777 106.667 L 186.750 106.083 184.542 106.037 L 182.333 105.990 182.333 115.059 M243.549 106.132 C 243.439 106.202,243.350 106.408,243.353 106.588 C 243.355 106.769,243.353 111.902,243.349 117.996 C 243.345 124.090,243.402 129.136,243.476 129.210 C 243.550 129.284,244.542 129.323,245.680 129.297 L 247.750 129.250 247.833 124.417 L 247.917 119.583 249.730 119.583 C 251.425 119.583,251.559 119.608,251.792 119.958 C 251.966 120.221,252.205 120.333,252.592 120.333 C 253.037 120.333,253.154 120.406,253.197 120.708 C 253.231 120.949,253.384 121.102,253.625 121.137 C 253.992 121.189,254.086 121.456,254.007 122.218 C 253.985 122.426,254.070 122.504,254.279 122.468 C 254.488 122.433,254.600 122.535,254.637 122.791 C 254.670 123.025,254.842 123.204,255.095 123.268 C 255.489 123.367,255.586 123.630,255.507 124.387 C 255.488 124.569,255.611 124.727,255.811 124.779 C 255.996 124.828,256.171 125.028,256.199 125.225 C 256.228 125.428,256.371 125.584,256.530 125.585 C 256.941 125.589,257.033 125.742,257.033 126.426 C 257.033 126.878,257.113 127.061,257.335 127.119 C 257.500 127.162,257.673 127.341,257.719 127.515 C 257.767 127.700,257.948 127.833,258.151 127.833 C 258.453 127.833,258.500 127.933,258.500 128.573 L 258.500 129.312 261.125 129.281 L 263.750 129.250 263.800 128.297 C 263.847 127.401,263.825 127.337,263.434 127.239 C 263.085 127.152,263.009 127.022,262.967 126.442 C 262.929 125.920,262.849 125.755,262.642 125.770 C 262.464 125.784,262.332 125.620,262.271 125.312 C 262.203 124.974,262.076 124.833,261.837 124.833 C 261.604 124.833,261.495 124.718,261.482 124.458 C 261.435 123.463,261.416 123.417,261.050 123.429 C 260.848 123.436,260.717 123.386,260.759 123.319 C 260.907 123.080,260.626 122.667,260.316 122.667 C 260.008 122.667,259.907 122.291,259.991 121.458 C 260.013 121.249,259.901 121.167,259.594 121.167 C 259.249 121.167,259.167 121.086,259.167 120.750 C 259.167 120.444,259.078 120.333,258.833 120.333 C 258.611 120.333,258.500 120.222,258.500 120.000 C 258.500 119.756,258.389 119.667,258.083 119.667 C 257.750 119.667,257.667 119.583,257.667 119.250 C 257.667 118.914,257.749 118.833,258.094 118.833 C 258.653 118.833,259.167 118.551,259.167 118.244 C 259.167 118.095,259.329 118.000,259.583 118.000 C 259.812 118.000,259.991 117.944,259.980 117.875 C 259.923 117.511,260.033 117.333,260.315 117.333 C 260.513 117.333,260.670 117.177,260.735 116.917 C 260.799 116.663,260.958 116.500,261.143 116.500 C 261.381 116.500,261.451 116.356,261.472 115.818 C 261.504 115.014,261.598 114.818,261.899 114.933 C 262.196 115.047,262.334 114.305,262.331 112.604 C 262.328 110.878,262.219 110.448,261.810 110.554 C 261.536 110.626,261.500 110.532,261.500 109.748 C 261.500 108.646,261.386 108.333,260.982 108.333 C 260.753 108.333,260.667 108.214,260.667 107.897 C 260.667 107.547,260.603 107.478,260.343 107.546 C 260.105 107.608,260.005 107.536,259.968 107.274 C 259.926 106.984,259.786 106.907,259.219 106.866 C 258.646 106.824,258.511 106.749,258.469 106.449 L 258.417 106.083 251.083 106.043 C 247.050 106.021,243.660 106.061,243.549 106.132 M76.757 109.989 C 76.629 110.195,65.236 110.247,65.109 110.042 C 65.066 109.973,67.586 109.939,70.707 109.967 C 74.457 110.000,76.442 109.958,76.556 109.844 C 76.764 109.636,76.910 109.741,76.757 109.989 M316.208 109.824 C 316.552 109.831,316.667 109.916,316.667 110.167 C 316.667 110.451,316.778 110.500,317.417 110.500 C 318.114 110.500,318.167 110.530,318.167 110.936 C 318.167 111.290,318.229 111.356,318.500 111.285 C 318.819 111.202,318.906 111.329,318.846 111.792 C 318.830 111.911,319.000 112.000,319.243 112.000 C 319.634 112.000,319.667 112.058,319.667 112.750 C 319.667 113.389,319.716 113.500,320.000 113.500 C 320.231 113.500,320.338 113.616,320.347 113.875 C 320.407 115.541,320.417 115.583,320.792 115.748 C 321.200 115.927,321.396 119.638,321.000 119.688 C 320.908 119.699,320.740 119.718,320.625 119.730 C 320.434 119.750,320.391 120.008,320.348 121.375 C 320.337 121.703,320.247 121.833,320.027 121.833 C 319.784 121.833,319.716 121.975,319.694 122.528 C 319.663 123.329,319.654 123.342,319.186 123.378 C 318.937 123.396,318.833 123.517,318.833 123.785 C 318.833 124.056,318.736 124.167,318.500 124.167 C 318.317 124.167,318.016 124.318,317.831 124.502 C 317.542 124.792,317.223 124.887,316.220 124.981 C 316.111 124.992,315.975 125.150,315.917 125.333 C 315.746 125.872,312.986 125.835,312.748 125.292 C 312.627 125.016,312.418 124.903,311.959 124.865 C 311.548 124.831,311.275 124.703,311.161 124.490 C 311.041 124.266,310.812 124.167,310.411 124.167 C 309.906 124.167,309.833 124.114,309.833 123.750 C 309.833 123.521,309.777 123.342,309.708 123.353 C 309.121 123.446,309.000 123.314,309.000 122.583 C 309.000 121.944,308.951 121.833,308.667 121.833 C 308.368 121.833,308.333 121.722,308.333 120.750 C 308.333 119.706,308.318 119.667,307.917 119.667 L 307.500 119.667 307.500 117.762 C 307.500 115.913,307.511 115.855,307.875 115.803 C 308.262 115.748,308.279 115.686,308.318 114.144 C 308.330 113.686,308.415 113.518,308.667 113.452 C 308.932 113.382,309.000 113.224,309.000 112.682 C 309.000 112.066,309.040 112.000,309.417 112.000 C 309.746 112.000,309.833 111.916,309.833 111.599 C 309.833 111.280,309.902 111.216,310.167 111.285 C 310.437 111.356,310.500 111.290,310.500 110.936 C 310.500 110.530,310.552 110.500,311.250 110.500 C 311.881 110.500,312.000 110.449,312.000 110.177 C 312.000 109.798,312.395 109.733,314.417 109.782 C 315.150 109.800,315.956 109.819,316.208 109.824 M255.520 110.042 C 255.531 110.156,255.531 110.306,255.520 110.375 C 255.509 110.444,255.556 110.491,255.625 110.480 C 255.694 110.469,256.031 110.469,256.375 110.480 L 257.000 110.500 257.000 111.250 C 257.000 111.889,257.049 112.000,257.333 112.000 C 257.578 112.000,257.667 112.111,257.667 112.417 C 257.667 112.662,257.571 112.833,257.434 112.833 C 257.154 112.833,257.000 113.192,257.000 113.847 C 257.000 114.229,256.925 114.333,256.651 114.333 C 256.442 114.333,256.267 114.467,256.215 114.667 C 256.167 114.850,256.080 115.004,256.022 115.009 C 255.274 115.077,253.364 115.129,250.940 115.150 C 248.066 115.175,247.967 115.187,248.050 115.505 C 248.097 115.685,248.067 115.833,247.984 115.833 C 247.900 115.833,247.833 114.516,247.833 112.833 L 247.833 109.833 251.667 109.833 C 254.612 109.833,255.505 109.882,255.520 110.042 " stroke="none" fill="#2c3494" fill-rule="evenodd"></path><path id="path1" d="M312.833 28.655 C 312.833 28.833,312.694 29.022,312.523 29.076 C 312.206 29.177,312.005 30.120,312.001 31.522 C 312.000 31.987,311.922 32.148,311.667 32.215 C 311.366 32.293,311.333 32.442,311.333 33.715 C 311.333 34.949,311.294 35.138,311.025 35.208 C 310.685 35.297,310.505 36.044,310.502 37.375 C 310.501 37.943,310.406 38.261,310.167 38.500 C 309.883 38.784,309.833 39.056,309.833 40.333 C 309.833 41.694,309.804 41.833,309.518 41.833 C 309.092 41.833,309.000 42.144,309.000 43.586 C 309.000 44.664,308.960 44.824,308.667 44.917 C 308.366 45.012,308.333 45.169,308.333 46.511 C 308.333 47.872,308.306 48.000,308.011 48.000 C 307.834 48.000,307.642 48.150,307.583 48.333 C 307.427 48.826,307.644 49.333,308.011 49.333 C 308.306 49.333,308.333 49.462,308.333 50.833 C 308.333 52.211,308.360 52.333,308.659 52.333 C 308.945 52.333,308.991 52.470,309.034 53.458 C 309.079 54.481,309.118 54.588,309.458 54.637 C 309.815 54.687,309.833 54.762,309.833 56.178 C 309.833 57.556,309.858 57.667,310.167 57.667 C 310.467 57.667,310.500 57.779,310.502 58.792 C 310.505 60.234,310.624 60.667,311.019 60.667 C 311.304 60.667,311.333 60.809,311.333 62.167 C 311.333 63.556,311.358 63.667,311.667 63.667 C 311.931 63.667,312.000 63.778,312.001 64.208 C 312.005 65.569,312.217 66.544,312.526 66.625 C 312.787 66.693,312.833 66.878,312.833 67.853 C 312.833 68.965,312.846 69.000,313.250 69.000 C 313.664 69.000,313.667 69.011,313.667 70.500 C 313.667 71.879,313.693 72.000,313.994 72.000 C 314.290 72.000,314.325 72.137,314.369 73.458 C 314.414 74.827,314.440 74.920,314.792 74.970 C 315.147 75.020,315.167 75.097,315.167 76.444 C 315.167 77.724,315.200 77.873,315.500 77.952 C 315.793 78.028,315.833 78.179,315.833 79.186 C 315.833 80.299,315.846 80.333,316.250 80.333 C 316.664 80.333,316.667 80.344,316.667 81.833 C 316.667 83.212,316.693 83.333,316.994 83.333 C 317.290 83.333,317.325 83.470,317.369 84.792 C 317.414 86.160,317.440 86.253,317.792 86.303 C 318.149 86.354,318.167 86.428,318.167 87.845 C 318.167 89.222,318.192 89.333,318.500 89.333 C 318.799 89.333,318.833 89.444,318.833 90.406 C 318.833 91.632,319.044 92.333,319.413 92.333 C 319.616 92.333,319.667 92.566,319.667 93.500 C 319.667 94.556,319.698 94.667,320.000 94.667 C 320.303 94.667,320.333 94.778,320.333 95.903 C 320.333 96.583,320.379 97.258,320.434 97.403 C 320.525 97.639,321.510 97.667,329.851 97.667 L 339.167 97.667 339.167 95.928 C 339.167 94.349,339.137 94.180,338.841 94.086 C 338.567 93.999,338.507 93.803,338.466 92.866 C 338.421 91.853,338.382 91.745,338.042 91.697 C 337.685 91.646,337.667 91.572,337.667 90.155 C 337.667 88.788,337.640 88.667,337.340 88.667 C 337.044 88.667,337.008 88.530,336.965 87.208 C 336.920 85.840,336.894 85.747,336.542 85.697 C 336.186 85.646,336.167 85.569,336.167 84.223 C 336.167 82.942,336.134 82.794,335.833 82.715 C 335.545 82.639,335.500 82.488,335.500 81.583 C 335.500 80.653,335.454 80.508,335.083 80.265 C 334.697 80.012,334.667 79.897,334.667 78.663 C 334.667 77.453,334.637 77.333,334.340 77.333 C 334.044 77.333,334.008 77.196,333.965 75.875 C 333.920 74.507,333.894 74.413,333.542 74.363 C 333.186 74.313,333.167 74.236,333.167 72.889 C 333.167 71.609,333.134 71.460,332.833 71.382 C 332.548 71.307,332.500 71.154,332.500 70.322 C 332.500 69.266,332.244 68.500,331.890 68.500 C 331.723 68.500,331.667 68.183,331.667 67.250 C 331.667 66.111,331.637 66.000,331.333 66.000 C 331.030 66.000,331.000 65.889,331.000 64.764 C 331.000 63.311,330.909 63.000,330.482 63.000 C 330.197 63.000,330.167 62.862,330.167 61.568 C 330.167 60.276,330.134 60.127,329.833 60.048 C 329.561 59.977,329.500 59.820,329.498 59.189 C 329.495 57.877,329.313 57.130,328.975 57.042 C 328.715 56.974,328.667 56.791,328.667 55.882 C 328.667 54.942,328.623 54.791,328.333 54.715 C 328.055 54.642,328.000 54.487,327.998 53.772 C 327.995 52.342,327.830 51.667,327.485 51.667 C 327.216 51.667,327.174 51.493,327.131 50.208 C 327.086 48.840,327.060 48.747,326.708 48.697 C 326.353 48.646,326.333 48.569,326.333 47.223 C 326.333 45.942,326.300 45.794,326.000 45.715 C 325.711 45.639,325.667 45.488,325.667 44.583 C 325.667 43.653,325.621 43.508,325.250 43.265 C 324.863 43.012,324.833 42.897,324.833 41.663 C 324.833 40.453,324.804 40.333,324.506 40.333 C 324.210 40.333,324.175 40.196,324.131 38.875 C 324.086 37.507,324.060 37.413,323.708 37.363 C 323.353 37.313,323.333 37.236,323.333 35.889 C 323.333 34.609,323.300 34.460,323.000 34.382 C 322.713 34.306,322.666 34.153,322.664 33.272 C 322.661 31.968,322.542 31.536,322.149 31.411 C 321.882 31.326,321.833 31.144,321.833 30.223 C 321.833 29.276,321.790 29.124,321.500 29.048 C 321.316 29.000,321.167 28.821,321.167 28.647 C 321.167 28.348,320.970 28.333,317.000 28.333 C 312.993 28.333,312.833 28.346,312.833 28.655 M334.000 29.833 C 334.000 31.040,333.952 31.333,333.756 31.333 C 333.310 31.333,333.167 31.959,333.167 33.906 C 333.167 35.722,333.147 35.833,332.833 35.833 C 332.519 35.833,332.500 35.944,332.500 37.750 C 332.500 39.519,332.476 39.667,332.184 39.667 C 331.729 39.667,331.667 39.967,331.667 42.180 C 331.667 44.056,331.648 44.167,331.333 44.167 C 331.019 44.167,331.000 44.278,331.000 46.083 C 331.000 47.883,330.980 48.000,330.670 48.000 C 329.985 48.000,329.941 51.539,330.625 51.637 C 330.982 51.687,331.000 51.762,331.000 53.178 C 331.000 54.556,331.025 54.667,331.333 54.667 C 331.637 54.667,331.667 54.778,331.667 55.903 C 331.667 57.356,331.758 57.667,332.184 57.667 C 332.463 57.667,332.500 57.799,332.500 58.808 C 332.500 59.729,332.563 60.005,332.826 60.244 C 333.081 60.474,333.164 60.800,333.201 61.728 C 333.246 62.817,333.282 62.921,333.625 62.970 C 333.982 63.021,334.000 63.095,334.000 64.512 C 334.000 65.889,334.025 66.000,334.333 66.000 C 334.634 66.000,334.667 66.112,334.669 67.125 C 334.672 68.568,334.791 69.000,335.186 69.000 C 335.466 69.000,335.500 69.137,335.500 70.252 C 335.500 71.297,335.555 71.550,335.833 71.789 C 336.087 72.006,336.167 72.280,336.167 72.940 C 336.167 74.021,336.283 74.333,336.684 74.333 C 336.971 74.333,337.000 74.473,337.000 75.833 C 337.000 77.222,337.025 77.333,337.333 77.333 C 337.624 77.333,337.667 77.445,337.669 78.208 C 337.672 79.669,337.834 80.333,338.188 80.333 C 338.465 80.333,338.500 80.473,338.500 81.570 C 338.500 82.934,338.595 83.333,338.918 83.333 C 339.062 83.333,339.171 83.718,339.250 84.500 C 339.349 85.484,339.416 85.667,339.677 85.667 C 339.952 85.667,339.992 85.832,340.035 87.125 C 340.080 88.493,340.106 88.587,340.458 88.637 C 340.815 88.687,340.833 88.762,340.833 90.178 C 340.833 91.546,340.860 91.667,341.160 91.667 C 341.456 91.667,341.492 91.804,341.535 93.125 C 341.580 94.493,341.606 94.587,341.958 94.637 C 342.313 94.687,342.333 94.765,342.333 96.077 C 342.333 97.188,342.386 97.484,342.597 97.566 C 342.742 97.621,346.982 97.667,352.019 97.667 L 361.178 97.667 361.131 95.875 C 361.085 94.160,361.067 94.081,360.708 94.030 C 360.351 93.979,360.333 93.905,360.333 92.488 C 360.333 91.111,360.308 91.000,360.000 91.000 C 359.704 91.000,359.667 90.889,359.667 90.021 C 359.667 88.578,359.518 88.000,359.146 88.000 C 358.870 88.000,358.833 87.863,358.833 86.833 C 358.833 85.785,358.800 85.667,358.506 85.667 C 358.210 85.667,358.175 85.530,358.131 84.208 C 358.086 82.840,358.060 82.747,357.708 82.697 C 357.351 82.646,357.333 82.572,357.333 81.155 C 357.333 79.778,357.308 79.667,357.000 79.667 C 356.704 79.667,356.667 79.556,356.667 78.688 C 356.667 77.245,356.518 76.667,356.146 76.667 C 355.871 76.667,355.833 76.530,355.833 75.531 C 355.833 74.627,355.766 74.324,355.500 74.038 C 355.264 73.785,355.166 73.448,355.164 72.882 C 355.161 71.764,355.017 71.333,354.647 71.333 C 354.363 71.333,354.333 71.191,354.333 69.833 C 354.333 68.478,354.303 68.333,354.021 68.333 C 353.649 68.333,353.500 67.755,353.500 66.313 C 353.500 65.444,353.462 65.333,353.167 65.333 C 352.865 65.333,352.833 65.222,352.833 64.156 C 352.833 62.911,352.647 62.333,352.244 62.333 C 352.053 62.333,352.000 62.080,352.000 61.167 C 352.000 60.111,351.968 60.000,351.667 60.000 C 351.358 60.000,351.333 59.889,351.333 58.500 C 351.333 57.011,351.330 57.000,350.917 57.000 C 350.503 57.000,350.500 56.989,350.500 55.500 C 350.500 54.111,350.475 54.000,350.167 54.000 C 349.863 54.000,349.833 53.889,349.833 52.764 C 349.833 51.311,349.742 51.000,349.316 51.000 C 349.037 51.000,349.000 50.868,349.000 49.873 C 349.000 48.935,348.945 48.713,348.674 48.543 C 348.403 48.374,348.339 48.118,348.299 47.045 C 348.254 45.846,348.222 45.746,347.875 45.697 C 347.518 45.646,347.500 45.572,347.500 44.155 C 347.500 42.778,347.475 42.667,347.167 42.667 C 346.863 42.667,346.833 42.556,346.833 41.430 C 346.833 39.977,346.742 39.667,346.316 39.667 C 346.034 39.667,346.000 39.532,346.000 38.430 C 346.000 37.056,345.906 36.667,345.573 36.667 C 345.412 36.667,345.335 36.350,345.299 35.542 C 345.255 34.519,345.216 34.412,344.875 34.363 C 344.518 34.313,344.500 34.238,344.500 32.822 C 344.500 31.444,344.475 31.333,344.167 31.333 C 343.866 31.333,343.833 31.221,343.831 30.208 C 343.830 29.590,343.784 28.915,343.728 28.708 L 343.628 28.333 338.814 28.333 L 334.000 28.333 334.000 29.833 M305.333 57.750 C 305.333 58.375,305.281 58.500,305.018 58.500 C 304.591 58.500,304.500 58.811,304.500 60.264 C 304.500 61.389,304.470 61.500,304.167 61.500 C 303.858 61.500,303.833 61.611,303.833 62.988 C 303.833 64.405,303.815 64.479,303.458 64.530 C 303.118 64.578,303.079 64.686,303.034 65.708 C 302.991 66.697,302.945 66.833,302.659 66.833 C 302.360 66.833,302.333 66.956,302.333 68.333 C 302.333 69.822,302.330 69.833,301.917 69.833 C 301.503 69.833,301.500 69.844,301.500 71.333 C 301.500 72.722,301.475 72.833,301.167 72.833 C 300.865 72.833,300.833 72.944,300.833 73.988 C 300.833 75.059,300.806 75.147,300.458 75.197 C 300.106 75.247,300.080 75.340,300.035 76.708 C 299.992 78.009,299.953 78.167,299.673 78.167 C 299.397 78.167,299.344 78.349,299.241 79.667 C 299.138 80.979,299.085 81.167,298.812 81.167 C 298.539 81.167,298.500 81.302,298.500 82.239 C 298.500 83.140,298.450 83.327,298.188 83.410 C 297.845 83.519,297.672 84.227,297.669 85.530 C 297.667 86.164,297.604 86.331,297.333 86.417 C 297.017 86.517,297.000 86.669,297.000 89.428 C 297.000 92.222,297.013 92.333,297.333 92.333 C 297.624 92.333,297.667 92.445,297.669 93.208 C 297.671 94.613,297.833 95.294,298.186 95.387 C 298.453 95.457,298.500 95.632,298.500 96.568 L 298.500 97.667 307.917 97.667 L 317.333 97.667 317.333 96.234 C 317.333 94.942,317.301 94.794,317.000 94.715 C 316.715 94.641,316.667 94.488,316.667 93.668 C 316.667 92.245,316.516 91.667,316.146 91.667 C 315.865 91.667,315.833 91.524,315.833 90.234 C 315.833 88.942,315.801 88.794,315.500 88.715 C 315.223 88.643,315.167 88.488,315.167 87.803 C 315.167 86.884,314.946 86.333,314.577 86.333 C 314.382 86.333,314.333 86.048,314.333 84.901 C 314.333 83.639,314.296 83.459,314.019 83.387 C 313.667 83.294,313.505 82.613,313.502 81.208 C 313.500 80.451,313.456 80.333,313.173 80.333 C 312.877 80.333,312.842 80.196,312.798 78.875 C 312.753 77.507,312.727 77.413,312.375 77.363 C 312.020 77.313,312.000 77.236,312.000 75.889 C 312.000 74.609,311.967 74.460,311.667 74.382 C 311.379 74.306,311.333 74.153,311.331 73.272 C 311.328 71.968,311.208 71.536,310.815 71.411 C 310.546 71.325,310.500 71.143,310.500 70.155 C 310.500 69.119,310.466 69.000,310.173 69.000 C 309.877 69.000,309.842 68.863,309.798 67.542 C 309.753 66.173,309.727 66.080,309.375 66.030 C 309.018 65.979,309.000 65.905,309.000 64.488 C 309.000 63.111,308.975 63.000,308.667 63.000 C 308.363 63.000,308.333 62.889,308.333 61.764 C 308.333 60.311,308.242 60.000,307.816 60.000 C 307.529 60.000,307.500 59.861,307.500 58.500 L 307.500 57.000 306.417 57.000 L 305.333 57.000 305.333 57.750 " stroke="none" fill="#ec1c24" fill-rule="evenodd"></path><path id="path2" d="M67.250 28.167 C 67.193 28.258,67.306 28.333,67.500 28.333 C 67.694 28.333,67.807 28.258,67.750 28.167 C 67.693 28.075,67.581 28.000,67.500 28.000 C 67.419 28.000,67.307 28.075,67.250 28.167 M347.250 28.167 C 347.193 28.258,347.306 28.333,347.500 28.333 C 347.694 28.333,347.807 28.258,347.750 28.167 C 347.693 28.075,347.581 28.000,347.500 28.000 C 347.419 28.000,347.307 28.075,347.250 28.167 M42.292 41.125 C 46.165 41.150,52.502 41.150,56.375 41.125 C 60.248 41.100,57.079 41.080,49.333 41.080 C 41.587 41.080,38.419 41.100,42.292 41.125 M127.889 74.577 C 127.889 74.708,127.946 74.800,128.016 74.782 C 128.086 74.765,128.265 74.900,128.414 75.083 C 128.683 75.414,128.684 75.414,128.518 75.070 C 128.280 74.573,127.889 74.267,127.889 74.577 M116.224 83.542 C 116.182 83.610,118.908 83.668,122.282 83.669 C 125.656 83.670,128.604 83.718,128.833 83.775 C 129.150 83.854,129.206 83.831,129.066 83.681 C 128.858 83.456,116.361 83.321,116.224 83.542 M162.901 88.705 C 162.706 88.933,162.686 88.999,162.849 88.874 C 162.995 88.761,163.163 88.719,163.224 88.779 C 163.284 88.840,163.333 88.764,163.333 88.611 C 163.333 88.249,163.281 88.260,162.901 88.705 M155.630 97.080 C 155.354 97.452,155.356 97.463,155.674 97.380 C 156.076 97.274,156.255 97.020,156.060 96.832 C 155.981 96.755,155.788 96.867,155.630 97.080 M138.250 97.167 C 138.307 97.258,138.555 97.328,138.802 97.322 C 139.202 97.311,139.214 97.295,138.917 97.167 C 138.454 96.968,138.127 96.968,138.250 97.167 M143.136 97.292 C 145.274 97.318,148.724 97.318,150.803 97.291 C 152.882 97.265,151.133 97.243,146.917 97.243 C 142.700 97.244,140.999 97.265,143.136 97.292 M201.076 114.417 C 201.076 118.175,201.098 119.736,201.125 117.886 C 201.152 116.036,201.152 112.961,201.125 111.053 C 201.098 109.145,201.076 110.658,201.076 114.417 M76.556 109.844 C 76.442 109.958,74.457 110.000,70.707 109.967 C 67.586 109.939,65.066 109.973,65.109 110.042 C 65.236 110.247,76.629 110.195,76.757 109.989 C 76.910 109.741,76.764 109.636,76.556 109.844 " stroke="none" fill="#5c2898" fill-rule="evenodd"></path><path id="path3" d="M67.250 28.167 C 67.193 28.258,67.306 28.333,67.500 28.333 C 67.694 28.333,67.807 28.258,67.750 28.167 C 67.693 28.075,67.581 28.000,67.500 28.000 C 67.419 28.000,67.307 28.075,67.250 28.167 M347.250 28.167 C 347.193 28.258,347.306 28.333,347.500 28.333 C 347.694 28.333,347.807 28.258,347.750 28.167 C 347.693 28.075,347.581 28.000,347.500 28.000 C 347.419 28.000,347.307 28.075,347.250 28.167 M42.292 41.125 C 46.165 41.150,52.502 41.150,56.375 41.125 C 60.248 41.100,57.079 41.080,49.333 41.080 C 41.587 41.080,38.419 41.100,42.292 41.125 M127.889 74.577 C 127.889 74.708,127.946 74.800,128.016 74.782 C 128.086 74.765,128.265 74.900,128.414 75.083 C 128.683 75.414,128.684 75.414,128.518 75.070 C 128.280 74.573,127.889 74.267,127.889 74.577 M116.224 83.542 C 116.182 83.610,118.908 83.668,122.282 83.669 C 125.656 83.670,128.604 83.718,128.833 83.775 C 129.150 83.854,129.206 83.831,129.066 83.681 C 128.858 83.456,116.361 83.321,116.224 83.542 M162.901 88.705 C 162.706 88.933,162.686 88.999,162.849 88.874 C 162.995 88.761,163.163 88.719,163.224 88.779 C 163.284 88.840,163.333 88.764,163.333 88.611 C 163.333 88.249,163.281 88.260,162.901 88.705 M155.630 97.080 C 155.354 97.452,155.356 97.463,155.674 97.380 C 156.076 97.274,156.255 97.020,156.060 96.832 C 155.981 96.755,155.788 96.867,155.630 97.080 M138.250 97.167 C 138.307 97.258,138.555 97.328,138.802 97.322 C 139.202 97.311,139.214 97.295,138.917 97.167 C 138.454 96.968,138.127 96.968,138.250 97.167 M143.136 97.292 C 145.274 97.318,148.724 97.318,150.803 97.291 C 152.882 97.265,151.133 97.243,146.917 97.243 C 142.700 97.244,140.999 97.265,143.136 97.292 M201.076 114.417 C 201.076 118.175,201.098 119.736,201.125 117.886 C 201.152 116.036,201.152 112.961,201.125 111.053 C 201.098 109.145,201.076 110.658,201.076 114.417 M76.556 109.844 C 76.442 109.958,74.457 110.000,70.707 109.967 C 67.586 109.939,65.066 109.973,65.109 110.042 C 65.236 110.247,76.629 110.195,76.757 109.989 C 76.910 109.741,76.764 109.636,76.556 109.844 " stroke="none" fill="#5c2898" fill-rule="evenodd"></path><path id="path4" d="M67.250 28.167 C 67.193 28.258,67.306 28.333,67.500 28.333 C 67.694 28.333,67.807 28.258,67.750 28.167 C 67.693 28.075,67.581 28.000,67.500 28.000 C 67.419 28.000,67.307 28.075,67.250 28.167 M347.250 28.167 C 347.193 28.258,347.306 28.333,347.500 28.333 C 347.694 28.333,347.807 28.258,347.750 28.167 C 347.693 28.075,347.581 28.000,347.500 28.000 C 347.419 28.000,347.307 28.075,347.250 28.167 M42.292 41.125 C 46.165 41.150,52.502 41.150,56.375 41.125 C 60.248 41.100,57.079 41.080,49.333 41.080 C 41.587 41.080,38.419 41.100,42.292 41.125 M127.889 74.577 C 127.889 74.708,127.946 74.800,128.016 74.782 C 128.086 74.765,128.265 74.900,128.414 75.083 C 128.683 75.414,128.684 75.414,128.518 75.070 C 128.280 74.573,127.889 74.267,127.889 74.577 M116.224 83.542 C 116.182 83.610,118.908 83.668,122.282 83.669 C 125.656 83.670,128.604 83.718,128.833 83.775 C 129.150 83.854,129.206 83.831,129.066 83.681 C 128.858 83.456,116.361 83.321,116.224 83.542 M162.901 88.705 C 162.706 88.933,162.686 88.999,162.849 88.874 C 162.995 88.761,163.163 88.719,163.224 88.779 C 163.284 88.840,163.333 88.764,163.333 88.611 C 163.333 88.249,163.281 88.260,162.901 88.705 M155.630 97.080 C 155.354 97.452,155.356 97.463,155.674 97.380 C 156.076 97.274,156.255 97.020,156.060 96.832 C 155.981 96.755,155.788 96.867,155.630 97.080 M138.250 97.167 C 138.307 97.258,138.555 97.328,138.802 97.322 C 139.202 97.311,139.214 97.295,138.917 97.167 C 138.454 96.968,138.127 96.968,138.250 97.167 M143.136 97.292 C 145.274 97.318,148.724 97.318,150.803 97.291 C 152.882 97.265,151.133 97.243,146.917 97.243 C 142.700 97.244,140.999 97.265,143.136 97.292 M201.076 114.417 C 201.076 118.175,201.098 119.736,201.125 117.886 C 201.152 116.036,201.152 112.961,201.125 111.053 C 201.098 109.145,201.076 110.658,201.076 114.417 M76.556 109.844 C 76.442 109.958,74.457 110.000,70.707 109.967 C 67.586 109.939,65.066 109.973,65.109 110.042 C 65.236 110.247,76.629 110.195,76.757 109.989 C 76.910 109.741,76.764 109.636,76.556 109.844 " stroke="none" fill="#5c2898" fill-rule="evenodd"></path></g></svg>