<svg id="svg" version="1.1" xmlns="http://www.w3.org/2000/svg" xmlns:xlink="http://www.w3.org/1999/xlink" width="400" height="200" viewBox="0, 0, 400,200"><g id="svgg"><path id="path0" d="M308.728 36.500 C 308.664 36.665,308.430 36.800,308.206 36.800 C 307.983 36.800,307.800 36.890,307.800 37.000 C 307.800 37.110,307.665 37.200,307.500 37.200 C 307.335 37.200,307.200 37.296,307.200 37.414 C 307.200 37.691,306.691 38.200,306.414 38.200 C 306.296 38.200,306.200 38.294,306.200 38.409 C 306.200 38.524,305.975 38.860,305.700 39.157 C 305.425 39.453,305.200 39.809,305.200 39.948 C 305.200 40.087,305.110 40.200,305.000 40.200 C 304.890 40.200,304.800 40.425,304.800 40.700 C 304.800 41.011,304.687 41.200,304.500 41.200 C 304.313 41.200,304.200 41.389,304.200 41.700 C 304.200 41.975,304.110 42.200,304.000 42.200 C 303.890 42.200,303.800 42.415,303.800 42.679 C 303.800 42.942,303.665 43.209,303.500 43.272 C 303.335 43.336,303.200 43.615,303.200 43.894 C 303.200 44.172,303.110 44.400,303.000 44.400 C 302.890 44.400,302.800 44.676,302.800 45.014 C 302.800 45.352,302.665 45.764,302.500 45.929 C 302.335 46.094,302.200 46.582,302.200 47.014 C 302.200 47.446,302.110 47.800,302.000 47.800 C 301.890 47.800,301.800 48.250,301.800 48.800 C 301.800 49.556,301.727 49.800,301.500 49.800 C 301.273 49.800,301.200 50.044,301.200 50.800 C 301.200 51.350,301.110 51.800,301.000 51.800 C 300.890 51.800,300.800 52.240,300.800 52.779 C 300.800 53.464,300.710 53.792,300.500 53.872 C 300.294 53.951,300.200 54.273,300.200 54.894 C 300.200 55.392,300.110 55.800,300.000 55.800 C 299.890 55.800,299.800 56.240,299.800 56.779 C 299.800 57.464,299.710 57.792,299.500 57.872 C 299.295 57.951,299.200 58.271,299.200 58.882 C 299.200 59.374,299.110 59.832,299.000 59.900 C 298.890 59.968,298.800 60.412,298.800 60.887 C 298.800 61.411,298.682 61.849,298.500 62.000 C 298.308 62.159,298.200 62.601,298.200 63.224 C 298.200 63.761,298.110 64.200,298.000 64.200 C 297.890 64.200,297.800 64.640,297.800 65.179 C 297.800 65.864,297.710 66.192,297.500 66.272 C 297.294 66.351,297.200 66.673,297.200 67.294 C 297.200 67.792,297.110 68.200,297.000 68.200 C 296.890 68.200,296.800 68.640,296.800 69.179 C 296.800 69.864,296.710 70.192,296.500 70.272 C 296.295 70.351,296.200 70.671,296.200 71.282 C 296.200 71.774,296.110 72.232,296.000 72.300 C 295.890 72.368,295.800 72.812,295.800 73.287 C 295.800 73.811,295.682 74.249,295.500 74.400 C 295.317 74.552,295.200 74.990,295.200 75.524 C 295.200 76.006,295.110 76.400,295.000 76.400 C 294.890 76.400,294.800 76.839,294.800 77.376 C 294.800 77.999,294.692 78.441,294.500 78.600 C 294.308 78.759,294.200 79.201,294.200 79.824 C 294.200 80.361,294.110 80.800,294.000 80.800 C 293.890 80.800,293.800 81.250,293.800 81.800 C 293.800 82.556,293.727 82.800,293.500 82.800 C 293.273 82.800,293.200 83.044,293.200 83.800 C 293.200 84.350,293.110 84.800,293.000 84.800 C 292.890 84.800,292.800 85.240,292.800 85.779 C 292.800 86.464,292.710 86.792,292.500 86.872 C 292.295 86.951,292.200 87.271,292.200 87.882 C 292.200 88.374,292.110 88.832,292.000 88.900 C 291.890 88.968,291.800 89.457,291.800 89.987 C 291.800 90.600,291.691 91.042,291.500 91.200 C 291.317 91.352,291.200 91.790,291.200 92.324 C 291.200 92.806,291.110 93.200,291.000 93.200 C 290.890 93.200,290.800 93.640,290.800 94.179 C 290.800 94.864,290.710 95.192,290.500 95.272 C 290.295 95.351,290.200 95.671,290.200 96.282 C 290.200 96.774,290.110 97.232,290.000 97.300 C 289.890 97.368,289.800 97.830,289.800 98.326 C 289.800 98.862,289.678 99.351,289.500 99.529 C 289.314 99.714,289.200 100.205,289.200 100.814 C 289.200 101.356,289.110 101.800,289.000 101.800 C 288.890 101.800,288.800 102.240,288.800 102.779 C 288.800 103.464,288.710 103.792,288.500 103.872 C 288.295 103.951,288.200 104.271,288.200 104.882 C 288.200 105.374,288.110 105.832,288.000 105.900 C 287.890 105.968,287.800 106.504,287.800 107.090 C 287.800 107.854,287.715 108.190,287.500 108.272 C 287.295 108.351,287.200 108.671,287.200 109.282 C 287.200 109.774,287.110 110.232,287.000 110.300 C 286.890 110.368,286.800 110.830,286.800 111.326 C 286.800 111.862,286.678 112.351,286.500 112.529 C 286.314 112.714,286.200 113.205,286.200 113.814 C 286.200 114.356,286.110 114.800,286.000 114.800 C 285.890 114.800,285.800 115.240,285.800 115.779 C 285.800 116.464,285.710 116.792,285.500 116.872 C 285.283 116.955,285.200 117.295,285.200 118.094 C 285.200 118.702,285.110 119.200,285.000 119.200 C 284.890 119.200,284.800 119.640,284.800 120.179 C 284.800 120.864,284.710 121.192,284.500 121.272 C 284.288 121.354,284.200 121.684,284.200 122.394 C 284.200 122.947,284.110 123.400,284.000 123.400 C 283.889 123.400,283.800 123.933,283.800 124.600 C 283.800 125.533,283.733 125.800,283.500 125.800 C 283.273 125.800,283.200 126.044,283.200 126.800 C 283.200 127.350,283.110 127.800,283.000 127.800 C 282.889 127.800,282.800 128.326,282.800 128.979 C 282.800 129.842,282.720 130.188,282.500 130.272 C 282.295 130.351,282.200 130.671,282.200 131.282 C 282.200 131.774,282.110 132.232,282.000 132.300 C 281.890 132.368,281.800 132.958,281.800 133.612 C 281.800 134.535,281.733 134.800,281.500 134.800 C 281.274 134.800,281.200 135.043,281.200 135.788 C 281.200 136.332,281.110 136.832,281.000 136.900 C 280.890 136.968,280.800 137.504,280.800 138.090 C 280.800 138.854,280.715 139.190,280.500 139.272 C 280.279 139.357,280.200 139.706,280.200 140.594 C 280.200 141.265,280.111 141.800,280.000 141.800 C 279.889 141.800,279.800 142.326,279.800 142.979 C 279.800 143.842,279.720 144.188,279.500 144.272 C 279.335 144.336,279.200 144.570,279.200 144.794 C 279.200 145.017,279.110 145.200,279.000 145.200 C 278.889 145.200,278.800 144.667,278.800 144.000 C 278.800 143.067,278.733 142.800,278.500 142.800 C 278.264 142.800,278.200 142.522,278.200 141.500 C 278.200 140.767,278.113 140.200,278.000 140.200 C 277.889 140.200,277.800 139.667,277.800 139.000 C 277.800 138.067,277.733 137.800,277.500 137.800 C 277.264 137.800,277.200 137.522,277.200 136.500 C 277.200 135.767,277.113 135.200,277.000 135.200 C 276.890 135.200,276.800 134.702,276.800 134.094 C 276.800 133.295,276.717 132.955,276.500 132.872 C 276.290 132.792,276.200 132.464,276.200 131.779 C 276.200 131.240,276.110 130.800,276.000 130.800 C 275.890 130.800,275.800 130.350,275.800 129.800 C 275.800 129.044,275.727 128.800,275.500 128.800 C 275.278 128.800,275.200 128.568,275.200 127.912 C 275.200 127.423,275.110 126.968,275.000 126.900 C 274.890 126.832,274.800 126.464,274.800 126.082 C 274.800 125.649,274.687 125.344,274.500 125.272 C 274.335 125.209,274.200 124.942,274.200 124.679 C 274.200 124.415,274.110 124.200,274.000 124.200 C 273.890 124.200,273.800 123.981,273.800 123.714 C 273.800 123.447,273.665 123.094,273.500 122.929 C 273.335 122.764,273.200 122.550,273.200 122.454 C 273.200 122.065,272.684 121.203,272.450 121.202 C 272.313 121.201,272.200 121.020,272.200 120.800 C 272.200 120.580,272.110 120.400,272.000 120.400 C 271.890 120.400,271.800 120.265,271.800 120.100 C 271.800 119.935,271.665 119.800,271.500 119.800 C 271.335 119.800,271.200 119.704,271.200 119.586 C 271.200 119.319,270.695 118.800,270.436 118.800 C 270.330 118.800,270.191 118.665,270.128 118.500 C 270.064 118.335,269.830 118.200,269.606 118.200 C 269.383 118.200,269.200 118.110,269.200 118.000 C 269.200 117.890,268.985 117.800,268.721 117.800 C 268.458 117.800,268.191 117.665,268.128 117.500 C 268.033 117.254,267.530 117.200,265.331 117.200 C 263.191 117.200,262.599 117.261,262.400 117.500 C 262.263 117.665,261.847 117.800,261.476 117.800 C 261.104 117.800,260.800 117.890,260.800 118.000 C 260.800 118.110,260.617 118.200,260.394 118.200 C 260.170 118.200,259.936 118.335,259.872 118.500 C 259.809 118.665,259.542 118.800,259.279 118.800 C 259.015 118.800,258.800 118.890,258.800 119.000 C 258.800 119.110,258.665 119.200,258.500 119.200 C 258.335 119.200,258.200 119.335,258.200 119.500 C 258.200 119.665,258.043 119.803,257.850 119.806 C 257.418 119.814,256.800 120.265,256.800 120.572 C 256.800 120.697,256.704 120.800,256.586 120.800 C 256.468 120.800,256.246 120.913,256.093 121.050 C 255.476 121.603,255.211 121.800,255.082 121.800 C 255.008 121.800,254.650 122.115,254.287 122.500 C 253.924 122.885,253.531 123.200,253.413 123.200 C 253.296 123.200,253.200 123.296,253.200 123.414 C 253.200 123.719,252.756 124.124,252.241 124.287 C 251.998 124.364,251.800 124.511,251.800 124.613 C 251.800 124.716,251.704 124.800,251.586 124.800 C 251.309 124.800,250.800 125.309,250.800 125.586 C 250.800 125.704,250.575 125.800,250.300 125.800 C 250.025 125.800,249.800 125.890,249.800 126.000 C 249.800 126.110,249.665 126.200,249.500 126.200 C 249.335 126.200,249.200 126.335,249.200 126.500 C 249.200 126.687,249.011 126.800,248.700 126.800 C 248.425 126.800,248.200 126.890,248.200 127.000 C 248.200 127.110,248.017 127.200,247.794 127.200 C 247.570 127.200,247.336 127.335,247.272 127.500 C 247.209 127.665,246.942 127.800,246.679 127.800 C 246.415 127.800,246.200 127.890,246.200 128.000 C 246.200 128.110,245.851 128.200,245.424 128.200 C 244.979 128.200,244.543 128.328,244.400 128.500 C 244.180 128.764,240.165 128.800,210.476 128.800 L 176.800 128.800 176.800 129.300 C 176.800 129.611,176.687 129.800,176.500 129.800 C 176.267 129.800,176.200 130.065,176.200 130.988 C 176.200 131.642,176.110 132.232,176.000 132.300 C 175.890 132.368,175.800 132.920,175.800 133.526 C 175.800 134.239,175.694 134.734,175.500 134.929 C 175.296 135.133,175.200 135.638,175.200 136.514 C 175.200 137.238,175.113 137.800,175.000 137.800 C 174.890 137.800,174.800 138.250,174.800 138.800 L 174.800 139.800 210.706 139.800 C 242.438 139.800,246.626 139.765,246.728 139.500 C 246.808 139.290,247.136 139.200,247.821 139.200 C 248.360 139.200,248.800 139.110,248.800 139.000 C 248.800 138.890,249.073 138.800,249.406 138.800 C 249.761 138.800,250.060 138.675,250.128 138.500 C 250.191 138.335,250.458 138.200,250.721 138.200 C 250.985 138.200,251.200 138.110,251.200 138.000 C 251.200 137.890,251.425 137.800,251.700 137.800 C 252.011 137.800,252.200 137.687,252.200 137.500 C 252.200 137.315,252.388 137.200,252.688 137.200 C 252.957 137.200,253.232 137.110,253.300 137.000 C 253.368 136.890,253.598 136.800,253.812 136.800 C 254.025 136.800,254.200 136.665,254.200 136.500 C 254.200 136.313,254.389 136.200,254.700 136.200 C 254.975 136.200,255.200 136.120,255.200 136.022 C 255.200 135.924,255.425 135.787,255.700 135.718 C 255.975 135.649,256.200 135.504,256.200 135.396 C 256.200 135.288,256.335 135.200,256.500 135.200 C 256.665 135.200,256.800 135.110,256.800 135.000 C 256.800 134.890,256.913 134.800,257.052 134.800 C 257.191 134.800,257.535 134.586,257.817 134.325 C 258.099 134.063,258.525 133.787,258.765 133.711 C 259.004 133.635,259.200 133.489,259.200 133.387 C 259.200 133.284,259.296 133.200,259.414 133.200 C 259.691 133.200,260.200 132.691,260.200 132.414 C 260.200 132.296,260.425 132.200,260.700 132.200 C 260.975 132.200,261.200 132.110,261.200 132.000 C 261.200 131.890,261.335 131.800,261.500 131.800 C 261.665 131.800,261.800 131.665,261.800 131.500 C 261.800 131.335,261.975 131.200,262.188 131.200 C 262.402 131.200,262.632 131.110,262.700 131.000 C 262.768 130.890,262.994 130.800,263.202 130.800 C 263.410 130.800,263.661 130.655,263.760 130.478 C 263.994 130.061,265.200 131.163,265.200 131.793 C 265.200 132.021,265.332 132.200,265.500 132.200 C 265.717 132.200,265.800 132.422,265.800 133.000 C 265.800 133.440,265.890 133.800,266.000 133.800 C 266.110 133.800,266.200 134.244,266.200 134.786 C 266.200 135.395,266.314 135.886,266.500 136.071 C 266.679 136.251,266.800 136.740,266.800 137.286 C 266.800 137.789,266.890 138.200,267.000 138.200 C 267.110 138.200,267.200 138.684,267.200 139.276 C 267.200 139.988,267.301 140.435,267.500 140.600 C 267.692 140.759,267.800 141.201,267.800 141.824 C 267.800 142.361,267.890 142.800,268.000 142.800 C 268.110 142.800,268.200 143.244,268.200 143.786 C 268.200 144.395,268.314 144.886,268.500 145.071 C 268.679 145.251,268.800 145.740,268.800 146.286 C 268.800 146.789,268.890 147.200,269.000 147.200 C 269.110 147.200,269.200 147.608,269.200 148.106 C 269.200 148.727,269.294 149.049,269.500 149.128 C 269.710 149.208,269.800 149.536,269.800 150.221 C 269.800 150.760,269.890 151.200,270.000 151.200 C 270.110 151.200,270.200 151.518,270.200 151.906 C 270.200 152.350,270.312 152.655,270.500 152.728 C 270.703 152.806,270.800 153.124,270.800 153.710 C 270.800 154.186,270.890 154.632,271.000 154.700 C 271.110 154.768,271.200 155.091,271.200 155.418 C 271.200 155.762,271.326 156.061,271.500 156.128 C 271.684 156.198,271.800 156.501,271.800 156.910 C 271.800 157.276,271.890 157.632,272.000 157.700 C 272.110 157.768,272.200 158.032,272.200 158.287 C 272.200 158.542,272.335 158.863,272.500 159.000 C 272.665 159.137,272.800 159.463,272.800 159.724 C 272.800 159.986,272.880 160.200,272.978 160.200 C 273.076 160.200,273.213 160.425,273.282 160.700 C 273.351 160.975,273.496 161.200,273.604 161.200 C 273.712 161.200,273.800 161.296,273.800 161.414 C 273.800 161.691,274.309 162.200,274.586 162.200 C 274.704 162.200,274.800 162.296,274.800 162.414 C 274.800 162.691,275.309 163.200,275.586 163.200 C 275.704 163.200,275.800 163.335,275.800 163.500 C 275.800 164.087,280.071 163.919,280.882 163.300 C 281.243 163.025,281.687 162.800,281.869 162.800 C 282.051 162.800,282.200 162.665,282.200 162.500 C 282.200 162.335,282.296 162.200,282.414 162.200 C 282.691 162.200,283.200 161.691,283.200 161.414 C 283.200 161.296,283.335 161.200,283.500 161.200 C 283.665 161.200,283.800 161.029,283.800 160.821 C 283.800 160.613,284.023 160.230,284.297 159.971 C 284.570 159.712,284.795 159.343,284.797 159.150 C 284.798 158.958,284.890 158.800,285.000 158.800 C 285.110 158.800,285.200 158.585,285.200 158.321 C 285.200 158.058,285.335 157.791,285.500 157.728 C 285.665 157.664,285.800 157.385,285.800 157.106 C 285.800 156.828,285.890 156.600,286.000 156.600 C 286.110 156.600,286.200 156.295,286.200 155.921 C 286.200 155.503,286.315 155.199,286.500 155.128 C 286.688 155.055,286.800 154.750,286.800 154.306 C 286.800 153.918,286.890 153.600,287.000 153.600 C 287.110 153.600,287.200 153.205,287.200 152.721 C 287.200 152.125,287.296 151.806,287.500 151.728 C 287.706 151.649,287.800 151.327,287.800 150.706 C 287.800 150.208,287.890 149.800,288.000 149.800 C 288.110 149.800,288.200 149.360,288.200 148.821 C 288.200 148.136,288.290 147.808,288.500 147.728 C 288.706 147.649,288.800 147.327,288.800 146.706 C 288.800 146.208,288.890 145.800,289.000 145.800 C 289.110 145.800,289.200 145.360,289.200 144.821 C 289.200 144.136,289.290 143.808,289.500 143.728 C 289.705 143.649,289.800 143.329,289.800 142.718 C 289.800 142.226,289.890 141.768,290.000 141.700 C 290.110 141.632,290.200 141.186,290.200 140.710 C 290.200 140.124,290.297 139.806,290.500 139.728 C 290.705 139.649,290.800 139.329,290.800 138.718 C 290.800 138.226,290.890 137.768,291.000 137.700 C 291.110 137.632,291.200 137.170,291.200 136.674 C 291.200 136.138,291.322 135.649,291.500 135.471 C 291.665 135.306,291.800 134.823,291.800 134.398 C 291.800 133.972,291.890 133.568,292.000 133.500 C 292.110 133.432,292.200 132.887,292.200 132.288 C 292.200 131.454,292.270 131.200,292.500 131.200 C 292.727 131.200,292.800 130.956,292.800 130.200 C 292.800 129.650,292.890 129.200,293.000 129.200 C 293.110 129.200,293.200 128.760,293.200 128.221 C 293.200 127.536,293.290 127.208,293.500 127.128 C 293.705 127.049,293.800 126.729,293.800 126.118 C 293.800 125.626,293.890 125.168,294.000 125.100 C 294.110 125.032,294.200 124.496,294.200 123.910 C 294.200 123.146,294.285 122.810,294.500 122.728 C 294.706 122.649,294.800 122.327,294.800 121.706 C 294.800 121.208,294.890 120.800,295.000 120.800 C 295.110 120.800,295.200 120.360,295.200 119.821 C 295.200 119.136,295.290 118.808,295.500 118.728 C 295.712 118.646,295.800 118.316,295.800 117.606 C 295.800 117.053,295.890 116.600,296.000 116.600 C 296.111 116.600,296.200 116.067,296.200 115.400 C 296.200 114.467,296.267 114.200,296.500 114.200 C 296.727 114.200,296.800 113.956,296.800 113.200 C 296.800 112.650,296.890 112.200,297.000 112.200 C 297.110 112.200,297.200 111.760,297.200 111.221 C 297.200 110.536,297.290 110.208,297.500 110.128 C 297.705 110.049,297.800 109.729,297.800 109.118 C 297.800 108.626,297.890 108.168,298.000 108.100 C 298.110 108.032,298.200 107.496,298.200 106.910 C 298.200 106.146,298.285 105.810,298.500 105.728 C 298.706 105.649,298.800 105.327,298.800 104.706 C 298.800 104.208,298.890 103.800,299.000 103.800 C 299.110 103.800,299.200 103.361,299.200 102.824 C 299.200 102.201,299.308 101.759,299.500 101.600 C 299.682 101.449,299.800 101.011,299.800 100.487 C 299.800 100.012,299.890 99.568,300.000 99.500 C 300.110 99.432,300.200 98.887,300.200 98.288 C 300.200 97.454,300.270 97.200,300.500 97.200 C 300.727 97.200,300.800 96.956,300.800 96.200 C 300.800 95.650,300.890 95.200,301.000 95.200 C 301.110 95.200,301.200 94.789,301.200 94.286 C 301.200 93.740,301.321 93.251,301.500 93.071 C 301.686 92.886,301.800 92.395,301.800 91.786 C 301.800 91.244,301.890 90.800,302.000 90.800 C 302.110 90.800,302.200 90.360,302.200 89.821 C 302.200 89.136,302.290 88.808,302.500 88.728 C 302.705 88.649,302.800 88.329,302.800 87.718 C 302.800 87.226,302.890 86.768,303.000 86.700 C 303.110 86.632,303.200 86.170,303.200 85.674 C 303.200 85.138,303.322 84.649,303.500 84.471 C 303.686 84.286,303.800 83.795,303.800 83.186 C 303.800 82.644,303.890 82.200,304.000 82.200 C 304.110 82.200,304.200 81.760,304.200 81.221 C 304.200 80.536,304.290 80.208,304.500 80.128 C 304.706 80.049,304.800 79.727,304.800 79.106 C 304.800 78.608,304.890 78.200,305.000 78.200 C 305.111 78.200,305.200 77.674,305.200 77.021 C 305.200 76.158,305.280 75.812,305.500 75.728 C 305.706 75.649,305.800 75.327,305.800 74.706 C 305.800 74.208,305.890 73.800,306.000 73.800 C 306.110 73.800,306.200 73.361,306.200 72.824 C 306.200 72.201,306.308 71.759,306.500 71.600 C 306.682 71.449,306.800 71.011,306.800 70.487 C 306.800 70.012,306.890 69.568,307.000 69.500 C 307.110 69.432,307.200 68.887,307.200 68.288 C 307.200 67.454,307.270 67.200,307.500 67.200 C 307.727 67.200,307.800 66.956,307.800 66.200 C 307.800 65.650,307.890 65.200,308.000 65.200 C 308.122 65.200,308.200 66.135,308.200 67.606 C 308.200 69.561,308.256 70.034,308.500 70.128 C 308.761 70.228,308.800 71.601,308.800 80.810 C 308.800 87.638,308.871 91.420,309.000 91.500 C 309.127 91.579,309.200 94.171,309.200 98.618 C 309.200 104.651,309.241 105.628,309.500 105.728 C 309.757 105.826,309.800 106.658,309.800 111.521 C 309.800 115.174,309.871 117.200,310.000 117.200 C 310.127 117.200,310.200 118.735,310.200 121.406 C 310.200 124.961,310.246 125.630,310.500 125.728 C 310.746 125.822,310.800 126.325,310.800 128.521 C 310.800 130.174,310.877 131.200,311.000 131.200 C 311.118 131.200,311.200 131.902,311.200 132.906 C 311.200 134.238,311.266 134.638,311.500 134.728 C 311.676 134.795,311.800 135.095,311.800 135.454 C 311.800 136.120,312.378 137.600,312.638 137.600 C 312.727 137.600,312.800 137.735,312.800 137.900 C 312.800 138.065,312.890 138.200,313.000 138.200 C 313.110 138.200,313.200 138.335,313.200 138.500 C 313.200 138.665,313.314 138.800,313.453 138.800 C 313.591 138.800,313.874 139.025,314.081 139.300 C 314.287 139.575,314.623 139.800,314.828 139.800 C 315.033 139.800,315.200 139.890,315.200 140.000 C 315.200 140.120,316.000 140.200,317.200 140.200 C 318.400 140.200,319.200 140.120,319.200 140.000 C 319.200 139.890,319.448 139.800,319.752 139.800 C 320.064 139.800,320.539 139.582,320.843 139.300 C 321.140 139.025,321.566 138.800,321.791 138.800 C 322.021 138.800,322.200 138.669,322.200 138.500 C 322.200 138.335,322.296 138.200,322.414 138.200 C 322.691 138.200,323.200 137.691,323.200 137.414 C 323.200 137.296,323.296 137.200,323.414 137.200 C 323.681 137.200,324.200 136.695,324.200 136.436 C 324.200 136.330,324.335 136.191,324.500 136.128 C 324.665 136.064,324.800 135.851,324.800 135.654 C 324.800 135.456,325.025 135.126,325.300 134.919 C 325.575 134.713,325.800 134.377,325.800 134.172 C 325.800 133.967,325.890 133.800,326.000 133.800 C 326.110 133.800,326.200 133.665,326.200 133.500 C 326.200 133.335,326.335 133.200,326.500 133.200 C 326.678 133.200,326.800 133.016,326.800 132.747 C 326.800 132.498,327.025 132.126,327.300 131.919 C 327.575 131.713,327.800 131.377,327.800 131.172 C 327.800 130.967,327.890 130.800,328.000 130.800 C 328.110 130.800,328.200 130.675,328.200 130.521 C 328.200 130.368,328.335 130.191,328.500 130.128 C 328.665 130.064,328.800 129.851,328.800 129.654 C 328.800 129.456,329.025 129.126,329.300 128.919 C 329.575 128.713,329.800 128.377,329.800 128.172 C 329.800 127.967,329.890 127.800,330.000 127.800 C 330.110 127.800,330.200 127.675,330.200 127.521 C 330.200 127.368,330.335 127.191,330.500 127.128 C 330.665 127.064,330.800 126.851,330.800 126.654 C 330.800 126.456,331.025 126.126,331.300 125.919 C 331.575 125.713,331.800 125.377,331.800 125.172 C 331.800 124.967,331.890 124.800,332.000 124.800 C 332.110 124.800,332.200 124.665,332.200 124.500 C 332.200 124.335,332.335 124.200,332.500 124.200 C 332.678 124.200,332.800 124.016,332.800 123.747 C 332.800 123.499,333.008 123.139,333.263 122.947 C 333.517 122.756,333.849 122.285,334.000 121.900 C 334.151 121.515,334.360 121.200,334.465 121.200 C 334.741 121.200,335.186 120.558,335.194 120.150 C 335.197 119.958,335.335 119.800,335.500 119.800 C 335.665 119.800,335.800 119.710,335.800 119.600 C 335.800 118.841,337.419 117.800,338.600 117.800 C 339.267 117.800,339.800 117.889,339.800 118.000 C 339.800 118.110,340.025 118.200,340.300 118.200 C 340.611 118.200,340.800 118.313,340.800 118.500 C 340.800 118.665,340.935 118.800,341.100 118.800 C 341.265 118.800,341.400 118.890,341.400 119.000 C 341.400 119.110,341.580 119.200,341.800 119.200 C 342.022 119.200,342.200 119.333,342.200 119.500 C 342.200 119.665,342.335 119.800,342.500 119.800 C 342.665 119.800,342.800 119.890,342.800 120.000 C 342.800 120.110,343.025 120.200,343.300 120.200 C 343.575 120.200,343.800 120.296,343.800 120.414 C 343.800 120.691,344.309 121.200,344.586 121.200 C 344.704 121.200,344.800 121.288,344.800 121.396 C 344.800 121.504,345.025 121.649,345.300 121.718 C 345.575 121.787,345.800 121.924,345.800 122.022 C 345.800 122.120,345.896 122.200,346.014 122.200 C 346.132 122.200,346.354 122.313,346.507 122.450 C 347.219 123.088,347.410 123.200,347.792 123.200 C 348.021 123.200,348.200 123.331,348.200 123.500 C 348.200 123.665,348.335 123.800,348.500 123.800 C 348.665 123.800,348.800 123.890,348.800 124.000 C 348.800 124.110,349.015 124.200,349.279 124.200 C 349.542 124.200,349.809 124.335,349.872 124.500 C 349.936 124.665,350.170 124.800,350.394 124.800 C 350.617 124.800,350.800 124.890,350.800 125.000 C 350.800 125.110,350.986 125.200,351.214 125.200 C 351.442 125.200,351.764 125.335,351.929 125.500 C 352.094 125.665,352.447 125.800,352.714 125.800 C 352.981 125.800,353.200 125.890,353.200 126.000 C 353.200 126.110,353.518 126.200,353.906 126.200 C 354.350 126.200,354.655 126.312,354.728 126.500 C 354.798 126.684,355.101 126.800,355.510 126.800 C 355.876 126.800,356.232 126.890,356.300 127.000 C 356.368 127.110,357.039 127.200,357.790 127.200 C 358.821 127.200,359.186 127.274,359.272 127.500 C 359.369 127.751,359.962 127.800,362.894 127.800 C 365.098 127.800,366.400 127.874,366.400 128.000 C 366.400 128.110,366.895 128.200,367.500 128.200 C 368.105 128.200,368.600 128.110,368.600 128.000 C 368.600 127.881,369.333 127.800,370.400 127.800 C 371.805 127.800,372.200 127.739,372.200 127.521 C 372.200 127.368,372.335 127.191,372.500 127.128 C 372.720 127.043,372.800 126.695,372.800 125.818 C 372.800 125.161,372.890 124.568,373.000 124.500 C 373.110 124.432,373.200 123.806,373.200 123.110 C 373.200 122.168,373.277 121.813,373.500 121.728 C 373.738 121.636,373.800 121.216,373.800 119.706 L 373.800 117.800 369.086 117.800 C 365.162 117.800,364.321 117.750,364.071 117.500 C 363.850 117.278,363.306 117.200,361.986 117.200 C 360.929 117.200,360.200 117.118,360.200 117.000 C 360.200 116.890,359.896 116.800,359.524 116.800 C 359.153 116.800,358.737 116.665,358.600 116.500 C 358.463 116.335,358.092 116.200,357.776 116.200 C 357.459 116.200,357.200 116.110,357.200 116.000 C 357.200 115.890,356.975 115.800,356.700 115.800 C 356.389 115.800,356.200 115.687,356.200 115.500 C 356.200 115.313,356.011 115.200,355.700 115.200 C 355.425 115.200,355.200 115.110,355.200 115.000 C 355.200 114.890,355.104 114.800,354.986 114.800 C 354.868 114.800,354.646 114.688,354.493 114.550 C 353.831 113.956,353.605 113.800,353.408 113.800 C 353.294 113.800,353.200 113.716,353.200 113.613 C 353.200 113.511,353.013 113.368,352.785 113.295 C 352.556 113.223,352.054 112.857,351.668 112.482 C 351.282 112.107,350.793 111.800,350.583 111.800 C 350.372 111.800,350.200 111.704,350.200 111.586 C 350.200 111.319,349.695 110.800,349.436 110.800 C 349.330 110.800,349.191 110.665,349.128 110.500 C 349.064 110.335,348.868 110.200,348.692 110.200 C 348.328 110.200,347.800 109.735,347.800 109.414 C 347.800 109.296,347.665 109.200,347.500 109.200 C 347.335 109.200,347.200 109.110,347.200 109.000 C 347.200 108.890,346.975 108.800,346.700 108.800 C 346.425 108.800,346.200 108.704,346.200 108.586 C 346.200 108.247,345.284 107.517,344.550 107.271 C 344.358 107.206,344.200 107.074,344.200 106.977 C 344.200 106.880,343.975 106.800,343.700 106.800 C 343.389 106.800,343.200 106.687,343.200 106.500 C 343.200 106.313,343.011 106.200,342.700 106.200 C 342.425 106.200,342.200 106.110,342.200 106.000 C 342.200 105.890,341.986 105.800,341.724 105.800 C 341.463 105.800,341.137 105.665,341.000 105.500 C 340.807 105.267,340.265 105.200,338.569 105.200 C 336.814 105.200,336.365 105.259,336.272 105.500 C 336.209 105.665,335.942 105.800,335.679 105.800 C 335.415 105.800,335.200 105.890,335.200 106.000 C 335.200 106.110,335.017 106.200,334.794 106.200 C 334.570 106.200,334.342 106.320,334.285 106.466 C 334.229 106.612,333.872 106.854,333.492 107.003 C 333.111 107.153,332.800 107.393,332.800 107.537 C 332.800 107.682,332.704 107.800,332.586 107.800 C 332.309 107.800,331.800 108.309,331.800 108.586 C 331.800 108.704,331.704 108.800,331.586 108.800 C 331.309 108.800,330.800 109.309,330.800 109.586 C 330.800 109.704,330.704 109.800,330.586 109.800 C 330.309 109.800,329.800 110.309,329.800 110.586 C 329.800 110.704,329.697 110.800,329.572 110.800 C 329.265 110.800,328.814 111.418,328.806 111.850 C 328.803 112.043,328.665 112.200,328.500 112.200 C 328.335 112.200,328.200 112.288,328.200 112.396 C 328.200 112.504,327.885 112.917,327.500 113.314 C 327.115 113.710,326.800 114.207,326.800 114.417 C 326.800 114.628,326.704 114.800,326.586 114.800 C 326.272 114.800,325.636 115.569,325.263 116.400 C 325.188 116.565,324.919 116.883,324.664 117.106 C 324.409 117.330,324.200 117.667,324.200 117.856 C 324.200 118.045,324.110 118.200,324.000 118.200 C 323.890 118.200,323.800 118.335,323.800 118.500 C 323.800 118.665,323.687 118.800,323.549 118.800 C 323.411 118.800,323.170 119.089,323.013 119.443 C 322.857 119.796,322.520 120.279,322.264 120.515 C 322.009 120.752,321.800 121.138,321.800 121.373 C 321.800 121.608,321.697 121.800,321.572 121.800 C 321.265 121.800,320.814 122.418,320.806 122.850 C 320.803 123.043,320.665 123.200,320.500 123.200 C 320.335 123.200,320.200 123.335,320.200 123.500 C 320.200 123.665,320.110 123.800,320.000 123.800 C 319.870 123.800,319.800 121.198,319.800 116.394 C 319.800 109.995,319.759 108.972,319.500 108.872 C 319.240 108.773,319.200 107.643,319.200 100.390 C 319.200 95.028,319.128 91.979,319.000 91.900 C 318.873 91.821,318.800 89.136,318.800 84.502 C 318.800 78.303,318.756 77.184,318.500 76.929 C 318.246 76.674,318.200 75.649,318.200 70.214 C 318.200 66.071,318.129 63.800,318.000 63.800 C 317.871 63.800,317.800 61.808,317.800 58.224 C 317.800 53.512,317.754 52.610,317.500 52.400 C 317.254 52.196,317.200 51.521,317.200 48.676 C 317.200 46.492,317.126 45.200,317.000 45.200 C 316.889 45.200,316.800 44.671,316.800 44.014 C 316.800 43.227,316.699 42.728,316.500 42.529 C 316.335 42.364,316.200 41.907,316.200 41.514 C 316.200 41.121,316.110 40.800,316.000 40.800 C 315.890 40.800,315.800 40.581,315.800 40.314 C 315.800 40.047,315.688 39.706,315.550 39.557 C 315.159 39.131,314.800 38.435,314.800 38.103 C 314.800 37.936,314.665 37.800,314.500 37.800 C 314.335 37.800,314.200 37.704,314.200 37.586 C 314.200 37.320,313.696 36.800,313.439 36.800 C 313.334 36.800,313.137 36.665,313.000 36.500 C 312.810 36.271,312.290 36.200,310.797 36.200 C 309.244 36.200,308.819 36.262,308.728 36.500 M47.900 51.000 C 47.832 51.110,47.208 51.200,46.513 51.200 C 45.633 51.200,45.173 51.291,45.000 51.500 C 44.857 51.672,44.421 51.800,43.976 51.800 C 43.549 51.800,43.200 51.890,43.200 52.000 C 43.200 52.110,42.927 52.200,42.594 52.200 C 42.239 52.200,41.940 52.325,41.872 52.500 C 41.809 52.665,41.542 52.800,41.279 52.800 C 41.015 52.800,40.800 52.880,40.800 52.978 C 40.800 53.076,40.575 53.213,40.300 53.282 C 40.025 53.351,39.800 53.496,39.800 53.604 C 39.800 53.712,39.706 53.800,39.592 53.800 C 39.395 53.800,39.169 53.956,38.507 54.550 C 38.354 54.688,38.165 54.800,38.088 54.800 C 38.011 54.800,37.650 55.115,37.287 55.500 C 36.924 55.885,36.531 56.200,36.413 56.200 C 36.296 56.200,36.200 56.314,36.200 56.453 C 36.200 56.591,35.975 56.874,35.700 57.081 C 35.425 57.287,35.200 57.623,35.200 57.828 C 35.200 58.033,35.110 58.200,35.000 58.200 C 34.890 58.200,34.800 58.335,34.800 58.500 C 34.800 58.665,34.665 58.800,34.500 58.800 C 34.313 58.800,34.200 58.989,34.200 59.300 C 34.200 59.575,34.110 59.800,34.000 59.800 C 33.890 59.800,33.800 60.025,33.800 60.300 C 33.800 60.611,33.687 60.800,33.500 60.800 C 33.313 60.800,33.200 60.989,33.200 61.300 C 33.200 61.575,33.110 61.800,33.000 61.800 C 32.890 61.800,32.800 62.211,32.800 62.714 C 32.800 63.260,32.679 63.749,32.500 63.929 C 32.061 64.367,32.061 68.959,32.500 69.128 C 32.710 69.208,32.800 69.536,32.800 70.221 C 32.800 70.760,32.890 71.200,33.000 71.200 C 33.110 71.200,33.200 71.518,33.200 71.906 C 33.200 72.350,33.312 72.655,33.500 72.728 C 33.665 72.791,33.803 72.991,33.806 73.171 C 33.814 73.586,34.271 74.200,34.572 74.200 C 34.697 74.200,34.800 74.384,34.800 74.610 C 34.800 75.096,37.413 77.800,37.882 77.800 C 38.057 77.800,38.200 77.890,38.200 78.000 C 38.200 78.110,38.335 78.200,38.500 78.200 C 38.665 78.200,38.800 78.318,38.800 78.463 C 38.800 78.607,39.111 78.847,39.492 78.997 C 39.872 79.146,40.229 79.388,40.285 79.534 C 40.342 79.680,40.570 79.800,40.794 79.800 C 41.017 79.800,41.200 79.890,41.200 80.000 C 41.200 80.110,41.425 80.200,41.700 80.200 C 42.011 80.200,42.200 80.313,42.200 80.500 C 42.200 80.665,42.336 80.800,42.503 80.800 C 42.835 80.800,43.531 81.159,43.957 81.550 C 44.106 81.688,44.357 81.800,44.514 81.800 C 44.671 81.800,44.800 81.890,44.800 82.000 C 44.800 82.110,45.025 82.200,45.300 82.200 C 45.611 82.200,45.800 82.313,45.800 82.500 C 45.800 82.678,45.984 82.800,46.253 82.800 C 46.502 82.800,46.874 83.025,47.081 83.300 C 47.287 83.575,47.623 83.800,47.828 83.800 C 48.033 83.800,48.200 83.890,48.200 84.000 C 48.200 84.110,48.335 84.200,48.500 84.200 C 48.665 84.200,48.800 84.296,48.800 84.414 C 48.800 84.691,49.309 85.200,49.586 85.200 C 49.704 85.200,49.800 85.335,49.800 85.500 C 49.800 85.665,49.890 85.800,50.000 85.800 C 50.110 85.800,50.200 85.983,50.200 86.206 C 50.200 86.430,50.335 86.664,50.500 86.728 C 50.741 86.820,50.800 87.267,50.800 88.997 C 50.800 90.668,50.733 91.207,50.500 91.400 C 50.335 91.537,50.200 91.818,50.200 92.024 C 50.200 92.231,50.110 92.400,50.000 92.400 C 49.890 92.400,49.800 92.580,49.800 92.800 C 49.800 93.022,49.667 93.200,49.500 93.200 C 49.335 93.200,49.200 93.296,49.200 93.414 C 49.200 93.753,48.284 94.483,47.550 94.729 C 47.358 94.794,47.200 94.926,47.200 95.023 C 47.200 95.120,46.927 95.200,46.594 95.200 C 46.239 95.200,45.940 95.325,45.872 95.500 C 45.797 95.696,45.486 95.800,44.979 95.800 C 44.550 95.800,44.200 95.890,44.200 96.000 C 44.200 96.126,42.900 96.200,40.700 96.200 C 38.500 96.200,37.200 96.126,37.200 96.000 C 37.200 95.890,36.895 95.800,36.521 95.800 C 36.103 95.800,35.799 95.685,35.728 95.500 C 35.664 95.335,35.390 95.200,35.118 95.200 C 34.846 95.200,34.568 95.110,34.500 95.000 C 34.432 94.890,34.241 94.800,34.075 94.800 C 33.909 94.800,33.478 94.575,33.118 94.300 C 32.757 94.025,32.354 93.800,32.222 93.800 C 32.089 93.800,31.772 93.575,31.518 93.300 C 31.263 93.025,30.862 92.800,30.627 92.800 C 30.392 92.800,30.200 92.720,30.200 92.621 C 30.200 92.523,30.075 92.395,29.923 92.336 C 29.411 92.140,27.800 94.093,27.800 94.909 C 27.800 95.046,27.665 95.209,27.500 95.272 C 27.335 95.336,27.200 95.570,27.200 95.794 C 27.200 96.017,27.110 96.200,27.000 96.200 C 26.890 96.200,26.800 96.425,26.800 96.700 C 26.800 96.975,26.717 97.200,26.615 97.200 C 26.292 97.200,25.800 98.431,25.800 99.239 C 25.800 100.086,26.126 100.529,27.100 101.006 C 27.430 101.167,27.772 101.412,27.860 101.550 C 27.948 101.687,28.195 101.800,28.410 101.800 C 28.624 101.800,28.800 101.890,28.800 102.000 C 28.800 102.110,29.073 102.200,29.406 102.200 C 29.761 102.200,30.060 102.325,30.128 102.500 C 30.191 102.665,30.453 102.800,30.710 102.800 C 30.966 102.800,31.232 102.890,31.300 103.000 C 31.368 103.110,31.722 103.200,32.087 103.200 C 32.452 103.200,32.863 103.335,33.000 103.500 C 33.159 103.692,33.601 103.800,34.224 103.800 C 34.761 103.800,35.200 103.890,35.200 104.000 C 35.200 104.128,37.167 104.200,40.700 104.200 C 44.233 104.200,46.200 104.128,46.200 104.000 C 46.200 103.890,46.608 103.800,47.106 103.800 C 47.727 103.800,48.049 103.706,48.128 103.500 C 48.198 103.316,48.501 103.200,48.910 103.200 C 49.276 103.200,49.632 103.110,49.700 103.000 C 49.768 102.890,50.001 102.800,50.218 102.800 C 50.435 102.800,50.664 102.665,50.728 102.500 C 50.791 102.335,51.058 102.200,51.321 102.200 C 51.585 102.200,51.800 102.110,51.800 102.000 C 51.800 101.890,51.958 101.798,52.150 101.797 C 52.343 101.795,52.712 101.570,52.971 101.297 C 53.230 101.023,53.613 100.800,53.821 100.800 C 54.029 100.800,54.200 100.665,54.200 100.500 C 54.200 100.335,54.296 100.200,54.414 100.200 C 54.691 100.200,55.200 99.691,55.200 99.414 C 55.200 99.296,55.290 99.200,55.400 99.200 C 55.510 99.200,55.960 98.840,56.400 98.400 C 56.840 97.960,57.200 97.510,57.200 97.400 C 57.200 97.290,57.296 97.200,57.414 97.200 C 57.767 97.200,58.200 96.657,58.200 96.214 C 58.200 95.979,58.330 95.800,58.500 95.800 C 58.687 95.800,58.800 95.611,58.800 95.300 C 58.800 95.025,58.890 94.800,59.000 94.800 C 59.110 94.800,59.200 94.585,59.200 94.321 C 59.200 94.058,59.335 93.791,59.500 93.728 C 59.688 93.655,59.800 93.350,59.800 92.906 C 59.800 92.518,59.890 92.200,60.000 92.200 C 60.111 92.200,60.200 91.674,60.200 91.021 C 60.200 90.158,60.280 89.812,60.500 89.728 C 60.740 89.635,60.800 89.193,60.800 87.500 C 60.800 85.807,60.740 85.365,60.500 85.272 C 60.280 85.188,60.200 84.842,60.200 83.979 C 60.200 83.326,60.111 82.800,60.000 82.800 C 59.890 82.800,59.800 82.586,59.800 82.324 C 59.800 82.063,59.665 81.737,59.500 81.600 C 59.335 81.463,59.200 81.245,59.200 81.115 C 59.200 80.676,58.701 79.803,58.450 79.802 C 58.313 79.801,58.200 79.618,58.200 79.396 C 58.200 78.939,55.527 76.200,55.082 76.200 C 54.927 76.200,54.800 76.110,54.800 76.000 C 54.800 75.890,54.665 75.800,54.500 75.800 C 54.335 75.800,54.200 75.665,54.200 75.500 C 54.200 75.322,54.016 75.200,53.747 75.200 C 53.498 75.200,53.126 74.975,52.919 74.700 C 52.713 74.425,52.377 74.200,52.172 74.200 C 51.967 74.200,51.800 74.110,51.800 74.000 C 51.800 73.890,51.575 73.800,51.300 73.800 C 50.989 73.800,50.800 73.687,50.800 73.500 C 50.800 73.335,50.664 73.200,50.497 73.200 C 50.114 73.200,49.350 72.777,49.140 72.450 C 49.052 72.313,48.805 72.200,48.590 72.200 C 48.376 72.200,48.200 72.110,48.200 72.000 C 48.200 71.890,47.975 71.800,47.700 71.800 C 47.389 71.800,47.200 71.687,47.200 71.500 C 47.200 71.335,47.065 71.200,46.900 71.200 C 46.735 71.200,46.600 71.110,46.600 71.000 C 46.600 70.890,46.461 70.800,46.290 70.800 C 45.817 70.800,42.800 67.700,42.800 67.214 C 42.800 66.979,42.670 66.800,42.500 66.800 C 42.256 66.800,42.200 66.467,42.200 65.000 C 42.200 63.533,42.256 63.200,42.500 63.200 C 42.687 63.200,42.800 63.011,42.800 62.700 C 42.800 62.425,42.890 62.200,43.000 62.200 C 43.110 62.200,43.200 62.104,43.200 61.986 C 43.200 61.868,43.313 61.646,43.450 61.493 C 44.044 60.831,44.200 60.605,44.200 60.408 C 44.200 60.294,44.425 60.200,44.700 60.200 C 44.975 60.200,45.200 60.110,45.200 60.000 C 45.200 59.890,45.335 59.800,45.500 59.800 C 45.665 59.800,45.800 59.665,45.800 59.500 C 45.800 59.290,46.011 59.200,46.500 59.200 C 46.885 59.200,47.200 59.110,47.200 59.000 C 47.200 58.875,48.433 58.800,50.500 58.800 C 52.567 58.800,53.800 58.875,53.800 59.000 C 53.800 59.110,54.149 59.200,54.576 59.200 C 55.021 59.200,55.457 59.328,55.600 59.500 C 55.737 59.665,56.063 59.800,56.324 59.800 C 56.586 59.800,56.800 59.890,56.800 60.000 C 56.800 60.110,57.025 60.200,57.300 60.200 C 57.611 60.200,57.800 60.313,57.800 60.500 C 57.800 60.665,57.971 60.800,58.179 60.800 C 58.387 60.800,58.770 61.023,59.029 61.297 C 59.709 62.013,61.200 62.030,61.200 61.321 C 61.200 61.058,61.335 60.791,61.500 60.728 C 61.665 60.664,61.800 60.430,61.800 60.206 C 61.800 59.983,61.890 59.800,62.000 59.800 C 62.110 59.800,62.200 59.585,62.200 59.321 C 62.200 59.058,62.335 58.791,62.500 58.728 C 62.665 58.664,62.800 58.430,62.800 58.206 C 62.800 57.983,62.890 57.800,63.000 57.800 C 63.110 57.800,63.200 57.575,63.200 57.300 C 63.200 56.989,63.313 56.800,63.500 56.800 C 63.687 56.800,63.800 56.611,63.800 56.300 C 63.800 56.025,63.890 55.800,64.000 55.800 C 64.110 55.800,64.200 55.350,64.200 54.800 C 64.200 53.867,64.167 53.800,63.700 53.800 C 63.389 53.800,63.200 53.687,63.200 53.500 C 63.200 53.313,63.011 53.200,62.700 53.200 C 62.425 53.200,62.200 53.110,62.200 53.000 C 62.200 52.890,61.985 52.800,61.721 52.800 C 61.458 52.800,61.191 52.665,61.128 52.500 C 61.061 52.326,60.762 52.200,60.418 52.200 C 60.091 52.200,59.768 52.110,59.700 52.000 C 59.632 51.890,59.188 51.800,58.713 51.800 C 58.189 51.800,57.751 51.682,57.600 51.500 C 57.413 51.275,56.911 51.200,55.587 51.200 C 54.617 51.200,53.768 51.110,53.700 51.000 C 53.627 50.882,52.435 50.800,50.800 50.800 C 49.165 50.800,47.973 50.882,47.900 51.000 M160.872 51.500 C 160.797 51.696,160.486 51.800,159.979 51.800 C 159.550 51.800,159.200 51.890,159.200 52.000 C 159.200 52.110,159.033 52.200,158.828 52.200 C 158.623 52.200,158.287 52.425,158.081 52.700 C 157.874 52.975,157.591 53.200,157.453 53.200 C 157.314 53.200,157.200 53.335,157.200 53.500 C 157.200 53.665,157.110 53.800,157.000 53.800 C 156.890 53.800,156.800 54.025,156.800 54.300 C 156.800 54.611,156.687 54.800,156.500 54.800 C 156.252 54.800,156.200 55.178,156.200 57.000 C 156.200 58.822,156.252 59.200,156.500 59.200 C 156.670 59.200,156.800 59.379,156.800 59.615 C 156.800 60.141,157.843 61.200,158.360 61.200 C 158.575 61.200,158.863 61.335,159.000 61.500 C 159.182 61.719,159.665 61.800,160.800 61.800 C 161.935 61.800,162.418 61.719,162.600 61.500 C 162.737 61.335,163.022 61.200,163.233 61.200 C 163.445 61.200,163.860 60.975,164.157 60.700 C 164.453 60.425,164.809 60.200,164.948 60.200 C 165.087 60.200,165.200 60.033,165.200 59.828 C 165.200 59.623,165.425 59.287,165.700 59.081 C 166.058 58.811,166.200 58.516,166.200 58.038 C 166.200 57.671,166.335 57.236,166.500 57.071 C 166.665 56.906,166.800 56.424,166.800 56.000 C 166.800 55.576,166.665 55.094,166.500 54.929 C 166.335 54.764,166.200 54.460,166.200 54.254 C 166.200 53.700,165.737 52.803,165.450 52.802 C 165.313 52.801,165.200 52.665,165.200 52.500 C 165.200 52.335,165.025 52.200,164.812 52.200 C 164.598 52.200,164.368 52.110,164.300 52.000 C 164.232 51.890,163.876 51.800,163.510 51.800 C 163.101 51.800,162.798 51.684,162.728 51.500 C 162.651 51.301,162.338 51.200,161.800 51.200 C 161.262 51.200,160.949 51.301,160.872 51.500 M175.050 55.099 C 174.913 55.255,174.800 55.781,174.800 56.267 C 174.800 56.809,174.684 57.247,174.500 57.400 C 174.291 57.573,174.200 58.033,174.200 58.913 C 174.200 59.608,174.110 60.232,174.000 60.300 C 173.890 60.368,173.800 61.039,173.800 61.790 C 173.800 62.821,173.726 63.186,173.500 63.272 C 173.283 63.356,173.200 63.696,173.200 64.508 C 173.200 66.134,173.084 66.200,170.214 66.200 L 167.800 66.200 167.800 66.714 C 167.800 66.997,167.665 67.364,167.500 67.529 C 167.301 67.728,167.200 68.227,167.200 69.014 C 167.200 69.671,167.111 70.200,167.000 70.200 C 166.887 70.200,166.800 70.767,166.800 71.500 L 166.800 72.800 169.300 72.800 C 171.964 72.800,172.403 73.025,171.500 73.929 C 171.296 74.133,171.200 74.638,171.200 75.514 C 171.200 76.238,171.113 76.800,171.000 76.800 C 170.884 76.800,170.800 77.433,170.800 78.300 C 170.800 79.500,170.740 79.800,170.500 79.800 C 170.264 79.800,170.200 80.078,170.200 81.100 C 170.200 81.833,170.113 82.400,170.000 82.400 C 169.886 82.400,169.800 82.993,169.800 83.779 C 169.800 84.820,169.727 85.185,169.500 85.272 C 169.273 85.360,169.200 85.728,169.200 86.794 C 169.200 87.598,169.114 88.200,169.000 88.200 C 168.885 88.200,168.800 88.826,168.800 89.679 C 168.800 90.808,168.729 91.184,168.500 91.272 C 168.248 91.369,168.200 91.981,168.200 95.069 C 168.200 98.098,168.253 98.795,168.500 99.000 C 168.665 99.137,168.800 99.463,168.800 99.724 C 168.800 99.986,168.890 100.200,169.000 100.200 C 169.110 100.200,169.200 100.335,169.200 100.500 C 169.200 100.665,169.335 100.800,169.500 100.800 C 169.665 100.800,169.800 100.935,169.800 101.100 C 169.800 101.488,170.512 102.200,170.900 102.200 C 171.065 102.200,171.200 102.335,171.200 102.500 C 171.200 102.665,171.335 102.800,171.500 102.800 C 171.665 102.800,171.800 102.890,171.800 103.000 C 171.800 103.110,172.025 103.200,172.300 103.200 C 172.611 103.200,172.800 103.313,172.800 103.500 C 172.800 103.710,173.011 103.800,173.500 103.800 C 173.885 103.800,174.200 103.890,174.200 104.000 C 174.200 104.112,174.760 104.200,175.479 104.200 C 176.431 104.200,176.787 104.277,176.872 104.500 C 176.963 104.736,177.370 104.800,178.769 104.800 C 180.109 104.800,180.613 104.726,180.800 104.500 C 180.983 104.280,181.468 104.200,182.624 104.200 C 183.541 104.200,184.200 104.116,184.200 104.000 C 184.200 103.890,184.425 103.800,184.700 103.800 C 185.104 103.800,185.200 103.701,185.200 103.286 C 185.200 103.003,185.335 102.636,185.500 102.471 C 185.692 102.279,185.800 101.785,185.800 101.098 C 185.800 100.507,185.890 99.968,186.000 99.900 C 186.110 99.832,186.200 98.972,186.200 97.988 L 186.200 96.200 185.294 96.200 C 184.673 96.200,184.351 96.294,184.272 96.500 C 184.104 96.938,179.963 96.938,179.600 96.500 C 179.463 96.335,179.227 96.200,179.076 96.200 C 178.924 96.200,178.800 96.110,178.800 96.000 C 178.800 95.890,178.665 95.800,178.500 95.800 C 178.335 95.800,178.200 95.665,178.200 95.500 C 178.200 95.335,178.110 95.200,178.000 95.200 C 177.880 95.200,177.800 94.400,177.800 93.200 C 177.800 92.000,177.880 91.200,178.000 91.200 C 178.115 91.200,178.200 90.574,178.200 89.721 C 178.200 88.592,178.271 88.216,178.500 88.128 C 178.727 88.040,178.800 87.672,178.800 86.606 C 178.800 85.802,178.886 85.200,179.000 85.200 C 179.116 85.200,179.200 84.567,179.200 83.700 C 179.200 82.500,179.260 82.200,179.500 82.200 C 179.736 82.200,179.800 81.922,179.800 80.900 C 179.800 80.167,179.887 79.600,180.000 79.600 C 180.114 79.600,180.200 79.007,180.200 78.221 C 180.200 77.180,180.273 76.815,180.500 76.728 C 180.727 76.640,180.800 76.272,180.800 75.206 C 180.800 74.402,180.886 73.800,181.000 73.800 C 181.110 73.800,181.200 73.575,181.200 73.300 L 181.200 72.800 185.700 72.800 L 190.200 72.800 190.200 72.321 C 190.200 72.058,190.335 71.791,190.500 71.728 C 190.720 71.643,190.800 71.295,190.800 70.418 C 190.800 69.761,190.890 69.168,191.000 69.100 C 191.110 69.032,191.200 68.352,191.200 67.588 L 191.200 66.200 186.927 66.200 L 182.653 66.200 182.754 64.750 C 182.810 63.953,182.933 63.270,183.028 63.233 C 183.275 63.137,183.248 57.800,183.000 57.800 C 182.890 57.800,182.800 57.617,182.800 57.394 C 182.800 57.170,182.665 56.936,182.500 56.872 C 182.335 56.809,182.200 56.670,182.200 56.564 C 182.200 56.230,181.645 55.800,181.214 55.800 C 180.979 55.800,180.800 55.670,180.800 55.500 C 180.800 55.300,180.600 55.200,180.200 55.200 C 179.870 55.200,179.600 55.110,179.600 55.000 C 179.600 54.665,175.350 54.758,175.050 55.099 M246.800 65.000 C 246.800 65.111,246.265 65.200,245.594 65.200 C 244.706 65.200,244.357 65.279,244.272 65.500 C 244.201 65.685,243.897 65.800,243.479 65.800 C 243.105 65.800,242.800 65.890,242.800 66.000 C 242.800 66.110,242.541 66.200,242.224 66.200 C 241.908 66.200,241.537 66.335,241.400 66.500 C 241.263 66.665,240.982 66.800,240.776 66.800 C 240.569 66.800,240.400 66.890,240.400 67.000 C 240.400 67.110,240.265 67.200,240.100 67.200 C 239.935 67.200,239.800 67.335,239.800 67.500 C 239.800 67.673,239.619 67.800,239.371 67.800 C 238.901 67.800,236.200 70.466,236.200 70.930 C 236.200 71.078,236.110 71.200,236.000 71.200 C 235.890 71.200,235.800 71.296,235.800 71.414 C 235.800 71.532,235.665 71.764,235.500 71.929 C 235.335 72.094,235.200 72.397,235.200 72.602 C 235.200 72.808,235.110 73.032,235.000 73.100 C 234.890 73.168,234.800 73.536,234.800 73.918 C 234.800 74.351,234.687 74.656,234.500 74.728 C 234.257 74.821,234.200 75.292,234.200 77.228 C 234.200 79.163,234.257 79.634,234.500 79.728 C 234.685 79.799,234.800 80.103,234.800 80.521 C 234.800 80.895,234.880 81.200,234.978 81.200 C 235.076 81.200,235.213 81.425,235.282 81.700 C 235.351 81.975,235.496 82.200,235.604 82.200 C 235.712 82.200,235.800 82.296,235.800 82.414 C 235.800 82.691,236.309 83.200,236.586 83.200 C 236.704 83.200,236.800 83.296,236.800 83.414 C 236.800 83.691,237.309 84.200,237.586 84.200 C 237.704 84.200,237.800 84.296,237.800 84.414 C 237.800 84.767,238.343 85.200,238.786 85.200 C 239.021 85.200,239.200 85.330,239.200 85.500 C 239.200 85.687,239.389 85.800,239.700 85.800 C 239.975 85.800,240.200 85.890,240.200 86.000 C 240.200 86.110,240.383 86.200,240.606 86.200 C 240.830 86.200,241.064 86.335,241.128 86.500 C 241.191 86.665,241.458 86.800,241.721 86.800 C 241.985 86.800,242.200 86.890,242.200 87.000 C 242.200 87.110,242.415 87.200,242.679 87.200 C 242.942 87.200,243.209 87.335,243.272 87.500 C 243.336 87.665,243.570 87.800,243.794 87.800 C 244.017 87.800,244.200 87.890,244.200 88.000 C 244.200 88.110,244.415 88.200,244.679 88.200 C 244.942 88.200,245.209 88.335,245.272 88.500 C 245.336 88.665,245.570 88.800,245.794 88.800 C 246.017 88.800,246.200 88.890,246.200 89.000 C 246.200 89.110,246.335 89.200,246.500 89.200 C 246.665 89.200,246.800 89.320,246.800 89.466 C 246.800 89.613,247.025 89.853,247.300 90.000 C 247.575 90.147,247.800 90.387,247.800 90.534 C 247.800 90.680,247.890 90.800,248.000 90.800 C 248.110 90.800,248.200 90.983,248.200 91.206 C 248.200 91.430,248.335 91.664,248.500 91.728 C 248.682 91.798,248.800 92.100,248.800 92.500 C 248.800 92.900,248.682 93.202,248.500 93.272 C 248.335 93.336,248.200 93.570,248.200 93.794 C 248.200 94.017,248.110 94.200,248.000 94.200 C 247.890 94.200,247.800 94.320,247.800 94.466 C 247.800 94.613,247.575 94.853,247.300 95.000 C 247.025 95.147,246.800 95.387,246.800 95.534 C 246.800 95.680,246.665 95.800,246.500 95.800 C 246.335 95.800,246.200 95.890,246.200 96.000 C 246.200 96.110,245.986 96.200,245.724 96.200 C 245.463 96.200,245.137 96.335,245.000 96.500 C 244.857 96.672,244.421 96.800,243.976 96.800 C 243.549 96.800,243.200 96.890,243.200 97.000 C 243.200 97.113,242.633 97.200,241.900 97.200 C 241.167 97.200,240.600 97.113,240.600 97.000 C 240.600 96.889,240.067 96.800,239.400 96.800 C 238.467 96.800,238.200 96.733,238.200 96.500 C 238.200 96.290,237.989 96.200,237.500 96.200 C 237.115 96.200,236.800 96.110,236.800 96.000 C 236.800 95.890,236.575 95.800,236.300 95.800 C 235.989 95.800,235.800 95.687,235.800 95.500 C 235.800 95.313,235.611 95.200,235.300 95.200 C 235.025 95.200,234.800 95.110,234.800 95.000 C 234.800 94.890,234.675 94.800,234.521 94.800 C 234.368 94.800,234.191 94.665,234.128 94.500 C 233.895 93.893,231.800 94.163,231.800 94.800 C 231.800 94.996,231.665 95.209,231.500 95.272 C 231.335 95.336,231.200 95.570,231.200 95.794 C 231.200 96.017,231.110 96.200,231.000 96.200 C 230.890 96.200,230.800 96.425,230.800 96.700 C 230.800 97.011,230.687 97.200,230.500 97.200 C 230.313 97.200,230.200 97.389,230.200 97.700 C 230.200 97.975,230.110 98.200,230.000 98.200 C 229.890 98.200,229.800 98.296,229.800 98.414 C 229.800 98.532,229.660 98.768,229.489 98.939 C 229.034 99.395,229.191 100.452,229.750 100.697 C 229.998 100.806,230.200 100.964,230.200 101.047 C 230.200 101.131,230.425 101.200,230.700 101.200 C 231.011 101.200,231.200 101.313,231.200 101.500 C 231.200 101.665,231.375 101.800,231.588 101.800 C 231.802 101.800,232.032 101.890,232.100 102.000 C 232.168 102.110,232.434 102.200,232.690 102.200 C 232.947 102.200,233.209 102.335,233.272 102.500 C 233.336 102.665,233.565 102.800,233.782 102.800 C 233.999 102.800,234.232 102.890,234.300 103.000 C 234.368 103.110,234.814 103.200,235.290 103.200 C 235.876 103.200,236.194 103.297,236.272 103.500 C 236.357 103.720,236.705 103.800,237.582 103.800 C 238.239 103.800,238.832 103.890,238.900 104.000 C 238.972 104.117,240.131 104.200,241.700 104.200 C 243.269 104.200,244.428 104.117,244.500 104.000 C 244.568 103.890,245.203 103.800,245.912 103.800 C 246.924 103.800,247.200 103.736,247.200 103.500 C 247.200 103.273,247.444 103.200,248.200 103.200 C 248.750 103.200,249.200 103.110,249.200 103.000 C 249.200 102.890,249.425 102.800,249.700 102.800 C 250.011 102.800,250.200 102.687,250.200 102.500 C 250.200 102.313,250.389 102.200,250.700 102.200 C 250.975 102.200,251.200 102.110,251.200 102.000 C 251.200 101.890,251.425 101.800,251.700 101.800 C 252.011 101.800,252.200 101.687,252.200 101.500 C 252.200 101.335,252.335 101.200,252.500 101.200 C 252.665 101.200,252.800 101.110,252.800 101.000 C 252.800 100.890,252.918 100.800,253.062 100.800 C 253.457 100.800,255.800 98.521,255.800 98.136 C 255.800 97.951,255.890 97.800,256.000 97.800 C 256.110 97.800,256.200 97.665,256.200 97.500 C 256.200 97.335,256.335 97.200,256.500 97.200 C 256.687 97.200,256.800 97.011,256.800 96.700 C 256.800 96.425,256.890 96.200,257.000 96.200 C 257.110 96.200,257.200 95.975,257.200 95.700 C 257.200 95.389,257.313 95.200,257.500 95.200 C 257.727 95.200,257.800 94.956,257.800 94.200 C 257.800 93.650,257.890 93.200,258.000 93.200 C 258.118 93.200,258.200 92.504,258.200 91.512 C 258.200 90.583,258.110 89.768,258.000 89.700 C 257.890 89.632,257.800 89.177,257.800 88.688 C 257.800 88.032,257.722 87.800,257.500 87.800 C 257.313 87.800,257.200 87.611,257.200 87.300 C 257.200 87.025,257.110 86.800,257.000 86.800 C 256.890 86.800,256.800 86.575,256.800 86.300 C 256.800 85.989,256.687 85.800,256.500 85.800 C 256.335 85.800,256.200 85.710,256.200 85.600 C 256.200 85.340,254.660 83.800,254.400 83.800 C 254.290 83.800,254.200 83.704,254.200 83.586 C 254.200 83.233,253.657 82.800,253.214 82.800 C 252.979 82.800,252.800 82.670,252.800 82.500 C 252.800 82.335,252.665 82.200,252.500 82.200 C 252.335 82.200,252.200 82.110,252.200 82.000 C 252.200 81.890,251.985 81.800,251.721 81.800 C 251.458 81.800,251.191 81.665,251.128 81.500 C 251.064 81.335,250.830 81.200,250.606 81.200 C 250.383 81.200,250.200 81.110,250.200 81.000 C 250.200 80.890,249.985 80.800,249.721 80.800 C 249.458 80.800,249.191 80.665,249.128 80.500 C 249.064 80.335,248.830 80.200,248.606 80.200 C 248.383 80.200,248.200 80.110,248.200 80.000 C 248.200 79.890,247.975 79.800,247.700 79.800 C 247.425 79.800,247.200 79.712,247.200 79.604 C 247.200 79.496,246.975 79.351,246.700 79.282 C 246.425 79.213,246.200 79.076,246.200 78.978 C 246.200 78.880,245.975 78.800,245.700 78.800 C 245.425 78.800,245.200 78.704,245.200 78.586 C 245.200 78.309,244.691 77.800,244.414 77.800 C 244.296 77.800,244.200 77.673,244.200 77.517 C 244.200 77.361,244.100 77.200,243.977 77.159 C 242.843 76.781,244.303 73.175,245.780 72.706 C 246.011 72.633,246.200 72.489,246.200 72.387 C 246.200 72.284,246.425 72.200,246.700 72.200 C 246.975 72.200,247.200 72.110,247.200 72.000 C 247.200 71.878,248.096 71.800,249.488 71.800 C 250.798 71.800,251.829 71.886,251.900 72.000 C 251.968 72.110,252.423 72.200,252.912 72.200 C 253.568 72.200,253.800 72.278,253.800 72.500 C 253.800 72.687,253.989 72.800,254.300 72.800 C 254.575 72.800,254.800 72.890,254.800 73.000 C 254.800 73.110,255.025 73.200,255.300 73.200 C 255.611 73.200,255.800 73.313,255.800 73.500 C 255.800 73.727,256.044 73.800,256.800 73.800 C 257.556 73.800,257.800 73.727,257.800 73.500 C 257.800 73.335,257.890 73.200,258.000 73.200 C 258.110 73.200,258.200 72.975,258.200 72.700 C 258.200 72.389,258.313 72.200,258.500 72.200 C 258.687 72.200,258.800 72.011,258.800 71.700 C 258.800 71.425,258.890 71.200,259.000 71.200 C 259.110 71.200,259.200 70.975,259.200 70.700 C 259.200 70.389,259.313 70.200,259.500 70.200 C 259.665 70.200,259.800 70.065,259.800 69.900 C 259.800 69.735,259.890 69.600,260.000 69.600 C 260.110 69.600,260.200 69.099,260.200 68.486 C 260.200 67.284,259.917 66.800,259.214 66.800 C 258.979 66.800,258.800 66.670,258.800 66.500 C 258.800 66.315,258.612 66.200,258.312 66.200 C 258.043 66.200,257.768 66.110,257.700 66.000 C 257.632 65.890,257.278 65.800,256.913 65.800 C 256.548 65.800,256.137 65.665,256.000 65.500 C 255.820 65.283,255.343 65.200,254.276 65.200 C 253.425 65.200,252.800 65.115,252.800 65.000 C 252.800 64.876,251.667 64.800,249.800 64.800 C 247.933 64.800,246.800 64.876,246.800 65.000 M81.272 65.500 C 81.192 65.710,80.864 65.800,80.179 65.800 C 79.640 65.800,79.200 65.890,79.200 66.000 C 79.200 66.110,78.927 66.200,78.594 66.200 C 78.239 66.200,77.940 66.325,77.872 66.500 C 77.809 66.665,77.542 66.800,77.279 66.800 C 77.015 66.800,76.800 66.890,76.800 67.000 C 76.800 67.110,76.575 67.200,76.300 67.200 C 75.989 67.200,75.800 67.313,75.800 67.500 C 75.800 67.687,75.611 67.800,75.300 67.800 C 75.025 67.800,74.800 67.890,74.800 68.000 C 74.800 68.110,74.665 68.200,74.500 68.200 C 74.335 68.200,74.200 68.335,74.200 68.500 C 74.200 68.667,74.022 68.800,73.800 68.800 C 73.580 68.800,73.400 68.890,73.400 69.000 C 73.400 69.110,73.265 69.200,73.100 69.200 C 72.935 69.200,72.800 69.335,72.800 69.500 C 72.800 69.665,72.704 69.800,72.586 69.800 C 72.309 69.800,71.800 70.309,71.800 70.586 C 71.800 70.704,71.704 70.800,71.586 70.800 C 71.319 70.800,70.800 71.305,70.800 71.564 C 70.800 71.670,70.665 71.809,70.500 71.872 C 70.335 71.936,70.200 72.103,70.200 72.244 C 70.200 72.385,69.885 72.854,69.500 73.286 C 69.115 73.719,68.800 74.236,68.800 74.436 C 68.800 74.636,68.665 74.800,68.500 74.800 C 68.313 74.800,68.200 74.989,68.200 75.300 C 68.200 75.575,68.110 75.800,68.000 75.800 C 67.890 75.800,67.800 76.025,67.800 76.300 C 67.800 76.611,67.687 76.800,67.500 76.800 C 67.313 76.800,67.200 76.989,67.200 77.300 C 67.200 77.575,67.110 77.800,67.000 77.800 C 66.890 77.800,66.800 77.986,66.800 78.214 C 66.800 78.442,66.665 78.764,66.500 78.929 C 66.335 79.094,66.200 79.487,66.200 79.802 C 66.200 80.118,66.110 80.432,66.000 80.500 C 65.890 80.568,65.800 81.071,65.800 81.618 C 65.800 82.318,65.711 82.647,65.500 82.728 C 65.244 82.826,65.200 83.579,65.200 87.807 C 65.200 91.953,65.249 92.821,65.500 93.071 C 65.665 93.236,65.800 93.693,65.800 94.086 C 65.800 94.479,65.890 94.800,66.000 94.800 C 66.110 94.800,66.200 95.073,66.200 95.406 C 66.200 95.761,66.325 96.060,66.500 96.128 C 66.665 96.191,66.800 96.458,66.800 96.721 C 66.800 96.985,66.890 97.200,67.000 97.200 C 67.110 97.200,67.200 97.325,67.200 97.479 C 67.200 97.632,67.335 97.809,67.500 97.872 C 67.665 97.936,67.800 98.132,67.800 98.308 C 67.800 98.672,68.265 99.200,68.586 99.200 C 68.704 99.200,68.800 99.296,68.800 99.414 C 68.800 99.691,69.309 100.200,69.586 100.200 C 69.704 100.200,69.800 100.296,69.800 100.414 C 69.800 100.691,70.309 101.200,70.586 101.200 C 70.704 101.200,70.800 101.296,70.800 101.414 C 70.800 101.767,71.343 102.200,71.786 102.200 C 72.014 102.200,72.201 102.313,72.202 102.450 C 72.203 102.756,73.114 103.200,73.740 103.200 C 74.016 103.200,74.200 103.320,74.200 103.500 C 74.200 103.717,74.422 103.800,75.000 103.800 C 75.440 103.800,75.800 103.890,75.800 104.000 C 75.800 104.127,77.333 104.200,80.000 104.200 C 82.667 104.200,84.200 104.127,84.200 104.000 C 84.200 103.890,84.518 103.800,84.906 103.800 C 85.350 103.800,85.655 103.688,85.728 103.500 C 85.799 103.315,86.103 103.200,86.521 103.200 C 86.895 103.200,87.200 103.110,87.200 103.000 C 87.200 102.890,87.425 102.800,87.700 102.800 C 88.011 102.800,88.200 102.687,88.200 102.500 C 88.200 102.335,88.372 102.200,88.583 102.200 C 88.793 102.200,89.290 101.885,89.686 101.500 C 90.083 101.115,90.496 100.800,90.604 100.800 C 90.712 100.800,90.800 100.704,90.800 100.586 C 90.800 100.281,91.244 99.876,91.759 99.713 C 92.164 99.584,92.200 99.639,92.200 100.387 C 92.200 100.976,92.283 101.200,92.500 101.200 C 92.665 101.200,92.800 101.290,92.800 101.400 C 92.800 101.939,94.412 103.200,95.100 103.200 C 95.596 103.200,95.800 103.290,95.800 103.507 C 95.800 103.767,96.126 103.805,97.950 103.757 L 100.100 103.700 100.161 102.965 C 100.195 102.561,100.352 102.123,100.511 101.991 C 100.708 101.828,100.800 101.343,100.800 100.476 C 100.800 99.759,100.888 99.200,101.000 99.200 C 101.115 99.200,101.200 98.574,101.200 97.721 C 101.200 96.592,101.271 96.216,101.500 96.128 C 101.727 96.040,101.800 95.672,101.800 94.606 C 101.800 93.802,101.886 93.200,102.000 93.200 C 102.116 93.200,102.200 92.567,102.200 91.700 C 102.200 90.500,102.260 90.200,102.500 90.200 C 102.736 90.200,102.800 89.922,102.800 88.900 C 102.800 88.167,102.887 87.600,103.000 87.600 C 103.114 87.600,103.200 87.007,103.200 86.221 C 103.200 85.180,103.273 84.815,103.500 84.728 C 103.727 84.640,103.800 84.272,103.800 83.206 C 103.800 82.402,103.886 81.800,104.000 81.800 C 104.114 81.800,104.200 81.208,104.200 80.424 C 104.200 79.446,104.287 78.977,104.500 78.800 C 104.704 78.630,104.800 78.176,104.800 77.376 C 104.800 76.725,104.889 76.200,105.000 76.200 C 105.115 76.200,105.200 75.574,105.200 74.721 C 105.200 73.592,105.271 73.216,105.500 73.128 C 105.727 73.040,105.800 72.672,105.800 71.606 C 105.800 70.802,105.886 70.200,106.000 70.200 C 106.116 70.200,106.200 69.567,106.200 68.700 C 106.200 67.470,106.257 67.200,106.514 67.200 C 106.725 67.200,106.807 67.053,106.764 66.750 C 106.681 66.163,97.800 65.912,97.800 66.496 C 97.800 66.663,97.665 66.800,97.500 66.800 C 97.267 66.800,97.200 67.065,97.200 67.988 C 97.200 68.642,97.110 69.232,97.000 69.300 C 96.890 69.368,96.800 69.612,96.800 69.843 C 96.800 70.225,96.756 70.211,96.300 69.681 C 96.025 69.361,95.800 69.033,95.800 68.950 C 95.800 68.867,95.665 68.800,95.500 68.800 C 95.335 68.800,95.200 68.714,95.200 68.609 C 95.200 68.505,94.892 68.273,94.515 68.094 C 94.139 67.915,93.782 67.641,93.722 67.485 C 93.662 67.328,93.430 67.200,93.206 67.200 C 92.983 67.200,92.800 67.110,92.800 67.000 C 92.800 66.890,92.575 66.800,92.300 66.800 C 91.989 66.800,91.800 66.687,91.800 66.500 C 91.800 66.300,91.600 66.200,91.200 66.200 C 90.870 66.200,90.600 66.110,90.600 66.000 C 90.600 65.890,90.206 65.800,89.724 65.800 C 89.190 65.800,88.752 65.683,88.600 65.500 C 88.396 65.254,87.720 65.200,84.869 65.200 C 81.959 65.200,81.369 65.249,81.272 65.500 M130.872 65.500 C 130.792 65.710,130.464 65.800,129.779 65.800 C 129.240 65.800,128.800 65.890,128.800 66.000 C 128.800 66.110,128.482 66.200,128.094 66.200 C 127.650 66.200,127.345 66.312,127.272 66.500 C 127.209 66.665,126.942 66.800,126.679 66.800 C 126.415 66.800,126.200 66.890,126.200 67.000 C 126.200 67.110,126.033 67.200,125.828 67.200 C 125.623 67.200,125.287 67.425,125.081 67.700 C 124.874 67.975,124.607 68.200,124.486 68.200 C 124.366 68.200,123.780 68.649,123.184 69.199 C 121.894 70.388,121.800 70.408,121.800 69.500 C 121.800 69.011,121.710 68.800,121.500 68.800 C 121.330 68.800,121.200 68.621,121.200 68.385 C 121.200 67.848,120.152 66.800,119.615 66.800 C 119.379 66.800,119.200 66.670,119.200 66.500 C 119.200 66.248,118.767 66.200,116.500 66.200 L 113.800 66.200 113.800 67.214 C 113.800 67.849,113.688 68.341,113.500 68.529 C 113.301 68.727,113.200 69.226,113.200 70.002 C 113.200 70.648,113.110 71.232,113.000 71.300 C 112.890 71.368,112.800 71.947,112.800 72.587 C 112.800 73.378,112.704 73.831,112.500 74.000 C 112.291 74.174,112.200 74.635,112.200 75.524 C 112.200 76.241,112.112 76.800,112.000 76.800 C 111.884 76.800,111.800 77.433,111.800 78.300 C 111.800 79.500,111.740 79.800,111.500 79.800 C 111.267 79.800,111.200 80.065,111.200 80.988 C 111.200 81.642,111.110 82.232,111.000 82.300 C 110.890 82.368,110.800 83.039,110.800 83.790 C 110.800 84.821,110.726 85.186,110.500 85.272 C 110.280 85.357,110.200 85.705,110.200 86.582 C 110.200 87.239,110.110 87.832,110.000 87.900 C 109.890 87.968,109.800 88.648,109.800 89.412 C 109.800 90.512,109.738 90.800,109.500 90.800 C 109.264 90.800,109.200 91.076,109.200 92.088 C 109.200 92.797,109.110 93.432,109.000 93.500 C 108.890 93.568,108.800 94.194,108.800 94.890 C 108.800 95.832,108.723 96.187,108.500 96.272 C 108.273 96.360,108.200 96.728,108.200 97.794 C 108.200 98.598,108.114 99.200,108.000 99.200 C 107.888 99.200,107.800 99.760,107.800 100.479 C 107.800 101.431,107.723 101.787,107.500 101.872 C 107.117 102.019,107.099 103.267,107.475 103.579 C 107.668 103.739,109.093 103.792,112.225 103.754 L 116.700 103.700 116.764 103.000 C 116.800 102.615,116.912 102.215,117.014 102.110 C 117.116 102.006,117.200 101.318,117.200 100.581 C 117.200 99.576,117.275 99.214,117.500 99.128 C 117.727 99.040,117.800 98.672,117.800 97.606 C 117.800 96.802,117.886 96.200,118.000 96.200 C 118.111 96.200,118.200 95.675,118.200 95.024 C 118.200 94.224,118.296 93.770,118.500 93.600 C 118.709 93.426,118.800 92.965,118.800 92.076 C 118.800 91.359,118.888 90.800,119.000 90.800 C 119.114 90.800,119.200 90.208,119.200 89.424 C 119.200 88.446,119.287 87.977,119.500 87.800 C 119.704 87.630,119.800 87.176,119.800 86.376 C 119.800 85.725,119.889 85.200,120.000 85.200 C 120.110 85.200,120.200 84.789,120.200 84.286 C 120.200 83.740,120.321 83.251,120.500 83.071 C 120.665 82.906,120.800 82.418,120.800 81.986 C 120.800 81.554,120.890 81.200,121.000 81.200 C 121.110 81.200,121.200 80.975,121.200 80.700 C 121.200 80.425,121.284 80.200,121.387 80.200 C 121.489 80.200,121.630 79.998,121.699 79.750 C 121.901 79.029,122.279 78.313,122.550 78.140 C 122.687 78.052,122.800 77.851,122.800 77.694 C 122.800 77.311,125.325 74.800,125.710 74.800 C 125.876 74.800,126.064 74.665,126.128 74.500 C 126.191 74.335,126.368 74.200,126.521 74.200 C 126.675 74.200,126.800 74.110,126.800 74.000 C 126.800 73.890,127.073 73.800,127.406 73.800 C 127.761 73.800,128.060 73.675,128.128 73.500 C 128.208 73.290,128.536 73.200,129.221 73.200 C 129.760 73.200,130.200 73.110,130.200 73.000 C 130.200 72.890,130.650 72.800,131.200 72.800 C 131.750 72.800,132.200 72.890,132.200 73.000 C 132.200 73.110,132.415 73.200,132.679 73.200 C 132.942 73.200,133.209 73.335,133.272 73.500 C 133.336 73.665,133.570 73.800,133.794 73.800 C 134.017 73.800,134.200 73.890,134.200 74.000 C 134.200 74.110,134.335 74.200,134.500 74.200 C 134.665 74.200,134.800 74.317,134.800 74.460 C 134.800 74.911,135.290 75.797,135.540 75.798 C 135.820 75.800,135.932 77.415,135.836 80.050 C 135.786 81.404,135.707 81.800,135.486 81.800 C 135.268 81.800,135.200 82.105,135.200 83.088 C 135.200 83.797,135.110 84.432,135.000 84.500 C 134.890 84.568,134.800 85.194,134.800 85.890 C 134.800 86.832,134.723 87.187,134.500 87.272 C 134.273 87.360,134.200 87.728,134.200 88.794 C 134.200 89.598,134.114 90.200,134.000 90.200 C 133.888 90.200,133.800 90.760,133.800 91.479 C 133.800 92.431,133.723 92.787,133.500 92.872 C 133.273 92.960,133.200 93.328,133.200 94.394 C 133.200 95.198,133.114 95.800,133.000 95.800 C 132.889 95.800,132.800 96.326,132.800 96.979 C 132.800 97.842,132.720 98.188,132.500 98.272 C 132.273 98.360,132.200 98.728,132.200 99.794 C 132.200 100.598,132.114 101.200,132.000 101.200 C 131.887 101.200,131.800 101.767,131.800 102.500 L 131.800 103.800 136.300 103.800 C 140.167 103.800,140.800 103.758,140.800 103.500 C 140.800 103.335,140.890 103.200,141.000 103.200 C 141.110 103.200,141.200 102.760,141.200 102.221 C 141.200 101.536,141.290 101.208,141.500 101.128 C 141.727 101.040,141.800 100.672,141.800 99.606 C 141.800 98.802,141.886 98.200,142.000 98.200 C 142.111 98.200,142.200 97.662,142.200 96.986 C 142.200 96.173,142.299 95.672,142.500 95.471 C 142.699 95.273,142.800 94.774,142.800 93.998 C 142.800 93.352,142.890 92.768,143.000 92.700 C 143.110 92.632,143.200 92.008,143.200 91.313 C 143.200 90.433,143.291 89.973,143.500 89.800 C 143.704 89.630,143.800 89.176,143.800 88.376 C 143.800 87.725,143.889 87.200,144.000 87.200 C 144.116 87.200,144.200 86.567,144.200 85.700 C 144.200 84.500,144.260 84.200,144.500 84.200 C 144.736 84.200,144.800 83.922,144.800 82.900 C 144.800 82.167,144.887 81.600,145.000 81.600 C 145.127 81.600,145.200 80.000,145.200 77.200 C 145.200 74.400,145.127 72.800,145.000 72.800 C 144.890 72.800,144.800 72.482,144.800 72.094 C 144.800 71.650,144.688 71.345,144.500 71.272 C 144.335 71.209,144.200 70.942,144.200 70.679 C 144.200 70.415,144.110 70.200,144.000 70.200 C 143.890 70.200,143.800 70.033,143.800 69.828 C 143.800 69.623,143.575 69.287,143.300 69.081 C 143.025 68.874,142.800 68.591,142.800 68.453 C 142.800 68.314,142.704 68.200,142.586 68.200 C 142.309 68.200,141.800 67.691,141.800 67.414 C 141.800 67.296,141.665 67.200,141.500 67.200 C 141.335 67.200,141.200 67.110,141.200 67.000 C 141.200 66.890,140.975 66.800,140.700 66.800 C 140.389 66.800,140.200 66.687,140.200 66.500 C 140.200 66.313,140.011 66.200,139.700 66.200 C 139.425 66.200,139.200 66.110,139.200 66.000 C 139.200 65.890,138.895 65.800,138.521 65.800 C 138.103 65.800,137.799 65.685,137.728 65.500 C 137.632 65.250,137.060 65.200,134.300 65.200 C 131.540 65.200,130.968 65.250,130.872 65.500 M205.929 65.500 C 205.751 65.678,205.262 65.800,204.726 65.800 C 204.230 65.800,203.768 65.890,203.700 66.000 C 203.632 66.110,203.267 66.200,202.888 66.200 C 202.410 66.200,202.200 66.291,202.200 66.500 C 202.200 66.710,201.989 66.800,201.500 66.800 C 201.115 66.800,200.800 66.880,200.800 66.978 C 200.800 67.076,200.575 67.213,200.300 67.282 C 200.025 67.351,199.800 67.496,199.800 67.604 C 199.800 67.712,199.665 67.800,199.500 67.800 C 199.335 67.800,199.200 67.890,199.200 68.000 C 199.200 68.110,199.033 68.200,198.828 68.200 C 198.623 68.200,198.287 68.425,198.081 68.700 C 197.874 68.975,197.591 69.200,197.453 69.200 C 197.314 69.200,197.200 69.296,197.200 69.414 C 197.200 69.691,196.691 70.200,196.414 70.200 C 196.296 70.200,196.200 70.296,196.200 70.414 C 196.200 70.691,195.691 71.200,195.414 71.200 C 195.296 71.200,195.200 71.296,195.200 71.413 C 195.200 71.531,194.885 71.924,194.500 72.287 C 194.115 72.650,193.800 73.139,193.800 73.374 C 193.800 73.608,193.697 73.800,193.572 73.800 C 193.271 73.800,192.814 74.414,192.806 74.829 C 192.803 75.009,192.665 75.209,192.500 75.272 C 192.335 75.336,192.200 75.570,192.200 75.794 C 192.200 76.017,192.110 76.200,192.000 76.200 C 191.890 76.200,191.800 76.415,191.800 76.679 C 191.800 76.942,191.665 77.209,191.500 77.272 C 191.335 77.336,191.200 77.565,191.200 77.782 C 191.200 77.999,191.110 78.232,191.000 78.300 C 190.890 78.368,190.800 78.733,190.800 79.112 C 190.800 79.590,190.709 79.800,190.500 79.800 C 190.284 79.800,190.200 80.021,190.200 80.588 C 190.200 81.022,190.110 81.432,190.000 81.500 C 189.890 81.568,189.800 82.192,189.800 82.887 C 189.800 83.767,189.709 84.227,189.500 84.400 C 189.256 84.603,189.200 85.257,189.200 87.924 C 189.200 90.703,189.246 91.200,189.500 91.200 C 189.736 91.200,189.800 91.478,189.800 92.500 C 189.800 93.233,189.887 93.800,190.000 93.800 C 190.110 93.800,190.200 94.115,190.200 94.500 C 190.200 94.989,190.290 95.200,190.500 95.200 C 190.710 95.200,190.800 95.411,190.800 95.900 C 190.800 96.285,190.890 96.600,191.000 96.600 C 191.110 96.600,191.200 96.725,191.200 96.879 C 191.200 97.032,191.335 97.209,191.500 97.272 C 191.665 97.336,191.800 97.570,191.800 97.794 C 191.800 98.017,191.890 98.200,192.000 98.200 C 192.110 98.200,192.200 98.335,192.200 98.500 C 192.200 98.665,192.286 98.800,192.391 98.800 C 192.495 98.800,192.731 99.115,192.913 99.500 C 193.096 99.885,193.370 100.200,193.523 100.200 C 193.675 100.200,193.800 100.296,193.800 100.414 C 193.800 100.691,194.309 101.200,194.586 101.200 C 194.704 101.200,194.800 101.288,194.800 101.396 C 194.800 101.504,195.008 101.645,195.262 101.708 C 195.515 101.772,195.888 102.044,196.090 102.312 C 196.291 102.580,196.623 102.800,196.828 102.800 C 197.033 102.800,197.200 102.890,197.200 103.000 C 197.200 103.110,197.415 103.200,197.679 103.200 C 197.942 103.200,198.209 103.335,198.272 103.500 C 198.345 103.688,198.650 103.800,199.094 103.800 C 199.482 103.800,199.800 103.890,199.800 104.000 C 199.800 104.127,201.333 104.200,204.000 104.200 C 206.667 104.200,208.200 104.127,208.200 104.000 C 208.200 103.890,208.608 103.800,209.106 103.800 C 209.727 103.800,210.049 103.706,210.128 103.500 C 210.191 103.335,210.458 103.200,210.721 103.200 C 210.985 103.200,211.200 103.110,211.200 103.000 C 211.200 102.890,211.425 102.800,211.700 102.800 C 212.011 102.800,212.200 102.687,212.200 102.500 C 212.200 102.313,212.389 102.200,212.700 102.200 C 212.975 102.200,213.200 102.110,213.200 102.000 C 213.200 101.890,213.335 101.800,213.500 101.800 C 213.665 101.800,213.800 101.714,213.800 101.609 C 213.800 101.505,214.115 101.269,214.500 101.087 C 214.885 100.904,215.200 100.630,215.200 100.477 C 215.200 100.325,215.303 100.200,215.428 100.200 C 215.553 100.200,215.775 100.043,215.922 99.850 C 216.175 99.517,216.188 99.517,216.194 99.850 C 216.197 100.043,216.335 100.200,216.500 100.200 C 216.680 100.200,216.800 100.384,216.800 100.660 C 216.800 101.286,217.244 102.197,217.550 102.198 C 217.688 102.199,217.800 102.335,217.800 102.500 C 217.800 102.687,217.989 102.800,218.300 102.800 C 218.575 102.800,218.800 102.890,218.800 103.000 C 218.800 103.110,219.015 103.200,219.279 103.200 C 219.542 103.200,219.809 103.335,219.872 103.500 C 219.965 103.740,220.406 103.800,222.094 103.800 C 223.833 103.800,224.200 103.748,224.200 103.500 C 224.200 103.335,224.335 103.200,224.500 103.200 C 224.736 103.200,224.800 102.922,224.800 101.900 C 224.800 101.167,224.887 100.600,225.000 100.600 C 225.114 100.600,225.200 100.007,225.200 99.221 C 225.200 98.180,225.273 97.815,225.500 97.728 C 225.727 97.640,225.800 97.272,225.800 96.206 C 225.800 95.402,225.886 94.800,226.000 94.800 C 226.112 94.800,226.200 94.241,226.200 93.524 C 226.200 92.635,226.291 92.174,226.500 92.000 C 226.709 91.826,226.800 91.365,226.800 90.476 C 226.800 89.759,226.888 89.200,227.000 89.200 C 227.115 89.200,227.200 88.574,227.200 87.721 C 227.200 86.592,227.271 86.216,227.500 86.128 C 227.727 86.040,227.800 85.672,227.800 84.606 C 227.800 83.802,227.886 83.200,228.000 83.200 C 228.112 83.200,228.200 82.641,228.200 81.924 C 228.200 81.035,228.291 80.574,228.500 80.400 C 228.709 80.226,228.800 79.765,228.800 78.876 C 228.800 78.159,228.888 77.600,229.000 77.600 C 229.114 77.600,229.200 77.007,229.200 76.221 C 229.200 75.180,229.273 74.815,229.500 74.728 C 229.727 74.640,229.800 74.272,229.800 73.206 C 229.800 72.402,229.886 71.800,230.000 71.800 C 230.112 71.800,230.200 71.240,230.200 70.521 C 230.200 69.569,230.277 69.213,230.500 69.128 C 231.105 68.895,230.906 66.350,230.259 66.050 C 229.609 65.749,229.068 65.729,228.900 66.000 C 228.825 66.121,227.398 66.200,225.288 66.200 L 221.800 66.200 221.800 67.179 C 221.800 67.864,221.710 68.192,221.500 68.272 C 221.294 68.351,221.200 68.673,221.200 69.294 C 221.200 69.792,221.110 70.200,221.000 70.200 C 220.890 70.200,220.800 70.110,220.800 70.000 C 220.800 69.890,220.665 69.800,220.500 69.800 C 220.335 69.800,220.200 69.704,220.200 69.586 C 220.200 69.309,219.691 68.800,219.414 68.800 C 219.296 68.800,219.200 68.704,219.200 68.586 C 219.200 68.309,218.691 67.800,218.414 67.800 C 218.296 67.800,218.200 67.712,218.200 67.604 C 218.200 67.496,217.975 67.351,217.700 67.282 C 217.425 67.213,217.200 67.076,217.200 66.978 C 217.200 66.880,216.985 66.800,216.721 66.800 C 216.458 66.800,216.191 66.665,216.128 66.500 C 216.060 66.325,215.761 66.200,215.406 66.200 C 215.073 66.200,214.800 66.110,214.800 66.000 C 214.800 65.890,214.360 65.800,213.821 65.800 C 213.136 65.800,212.808 65.710,212.728 65.500 C 212.632 65.251,212.073 65.200,209.421 65.200 C 206.850 65.200,206.170 65.258,205.929 65.500 M155.150 66.078 C 154.907 66.263,154.800 66.622,154.800 67.251 C 154.800 67.872,154.706 68.193,154.500 68.272 C 154.273 68.360,154.200 68.728,154.200 69.794 C 154.200 70.598,154.114 71.200,154.000 71.200 C 153.889 71.200,153.800 71.738,153.800 72.414 C 153.800 73.227,153.701 73.728,153.500 73.929 C 153.296 74.133,153.200 74.638,153.200 75.514 C 153.200 76.238,153.113 76.800,153.000 76.800 C 152.884 76.800,152.800 77.433,152.800 78.300 C 152.800 79.500,152.740 79.800,152.500 79.800 C 152.264 79.800,152.200 80.078,152.200 81.100 C 152.200 81.833,152.113 82.400,152.000 82.400 C 151.886 82.400,151.800 82.993,151.800 83.779 C 151.800 84.820,151.727 85.185,151.500 85.272 C 151.280 85.357,151.200 85.705,151.200 86.582 C 151.200 87.239,151.110 87.832,151.000 87.900 C 150.890 87.968,150.800 88.639,150.800 89.390 C 150.800 90.421,150.726 90.786,150.500 90.872 C 150.280 90.957,150.200 91.305,150.200 92.182 C 150.200 92.839,150.110 93.432,150.000 93.500 C 149.890 93.568,149.800 94.194,149.800 94.890 C 149.800 95.832,149.723 96.187,149.500 96.272 C 149.273 96.360,149.200 96.728,149.200 97.794 C 149.200 98.598,149.114 99.200,149.000 99.200 C 148.888 99.200,148.800 99.760,148.800 100.479 C 148.800 101.452,148.726 101.786,148.488 101.877 C 148.259 101.965,148.193 102.221,148.238 102.848 L 148.300 103.700 152.750 103.754 C 156.621 103.801,157.200 103.768,157.200 103.504 C 157.200 103.337,157.335 103.200,157.500 103.200 C 157.710 103.200,157.800 102.989,157.800 102.500 C 157.800 102.115,157.890 101.800,158.000 101.800 C 158.111 101.800,158.200 101.262,158.200 100.586 C 158.200 99.773,158.299 99.272,158.500 99.071 C 158.704 98.867,158.800 98.362,158.800 97.486 C 158.800 96.762,158.887 96.200,159.000 96.200 C 159.112 96.200,159.200 95.641,159.200 94.924 C 159.200 94.035,159.291 93.574,159.500 93.400 C 159.704 93.231,159.800 92.778,159.800 91.987 C 159.800 91.347,159.890 90.768,160.000 90.700 C 160.110 90.632,160.200 89.961,160.200 89.210 C 160.200 88.179,160.274 87.814,160.500 87.728 C 160.721 87.643,160.800 87.294,160.800 86.406 C 160.800 85.735,160.889 85.200,161.000 85.200 C 161.116 85.200,161.200 84.567,161.200 83.700 C 161.200 82.500,161.260 82.200,161.500 82.200 C 161.736 82.200,161.800 81.922,161.800 80.900 C 161.800 80.167,161.887 79.600,162.000 79.600 C 162.114 79.600,162.200 79.007,162.200 78.221 C 162.200 77.180,162.273 76.815,162.500 76.728 C 162.720 76.643,162.800 76.295,162.800 75.418 C 162.800 74.761,162.890 74.168,163.000 74.100 C 163.115 74.029,163.200 72.965,163.200 71.588 C 163.200 70.129,163.122 69.200,163.000 69.200 C 162.890 69.200,162.800 68.975,162.800 68.700 C 162.800 68.417,162.684 68.200,162.534 68.200 C 162.387 68.200,162.147 67.975,162.000 67.700 C 161.853 67.425,161.613 67.200,161.466 67.200 C 161.320 67.200,161.200 67.110,161.200 67.000 C 161.200 66.890,161.076 66.800,160.924 66.800 C 160.773 66.800,160.537 66.665,160.400 66.500 C 160.231 66.296,159.778 66.200,158.987 66.200 C 158.347 66.200,157.768 66.110,157.700 66.000 C 157.519 65.708,155.559 65.768,155.150 66.078 M87.600 72.500 C 87.737 72.665,88.058 72.800,88.313 72.800 C 88.568 72.800,88.832 72.890,88.900 73.000 C 88.968 73.110,89.189 73.200,89.390 73.200 C 89.592 73.200,89.809 73.335,89.872 73.500 C 89.936 73.665,90.132 73.800,90.308 73.800 C 90.661 73.800,91.200 74.261,91.200 74.564 C 91.200 74.670,91.335 74.809,91.500 74.872 C 91.665 74.936,91.800 75.129,91.800 75.302 C 91.800 75.476,92.025 75.860,92.300 76.157 C 92.582 76.461,92.800 76.936,92.800 77.248 C 92.800 77.552,92.890 77.800,93.000 77.800 C 93.110 77.800,93.200 78.208,93.200 78.706 C 93.200 79.327,93.294 79.649,93.500 79.728 C 93.744 79.821,93.800 80.300,93.800 82.300 C 93.800 84.300,93.744 84.779,93.500 84.872 C 93.295 84.951,93.200 85.271,93.200 85.882 C 93.200 86.374,93.110 86.832,93.000 86.900 C 92.890 86.968,92.800 87.279,92.800 87.590 C 92.800 87.910,92.669 88.207,92.500 88.272 C 92.335 88.336,92.200 88.565,92.200 88.782 C 92.200 88.999,92.110 89.232,92.000 89.300 C 91.890 89.368,91.800 89.589,91.800 89.790 C 91.800 89.992,91.665 90.209,91.500 90.272 C 91.335 90.336,91.200 90.570,91.200 90.794 C 91.200 91.017,91.110 91.200,91.000 91.200 C 90.890 91.200,90.800 91.335,90.800 91.500 C 90.800 91.665,90.665 91.800,90.500 91.800 C 90.335 91.800,90.200 91.935,90.200 92.100 C 90.200 92.265,90.110 92.400,90.000 92.400 C 89.890 92.400,89.800 92.580,89.800 92.800 C 89.800 93.022,89.667 93.200,89.500 93.200 C 89.335 93.200,89.200 93.296,89.200 93.414 C 89.200 93.691,88.691 94.200,88.414 94.200 C 88.296 94.200,88.200 94.335,88.200 94.500 C 88.200 94.665,88.043 94.803,87.850 94.806 C 87.418 94.814,86.800 95.265,86.800 95.572 C 86.800 95.697,86.575 95.800,86.300 95.800 C 86.025 95.800,85.800 95.890,85.800 96.000 C 85.800 96.110,85.482 96.200,85.094 96.200 C 84.650 96.200,84.345 96.312,84.272 96.500 C 84.183 96.733,83.789 96.800,82.500 96.800 C 81.211 96.800,80.817 96.733,80.728 96.500 C 80.655 96.312,80.350 96.200,79.906 96.200 C 79.518 96.200,79.200 96.110,79.200 96.000 C 79.200 95.890,78.975 95.800,78.700 95.800 C 78.425 95.800,78.200 95.704,78.200 95.586 C 78.200 95.309,77.691 94.800,77.414 94.800 C 77.296 94.800,77.200 94.665,77.200 94.500 C 77.200 94.335,77.110 94.200,77.000 94.200 C 76.890 94.200,76.800 94.076,76.800 93.924 C 76.800 93.773,76.665 93.537,76.500 93.400 C 76.335 93.263,76.200 92.982,76.200 92.776 C 76.200 92.569,76.110 92.400,76.000 92.400 C 75.890 92.400,75.800 92.141,75.800 91.824 C 75.800 91.508,75.665 91.137,75.500 91.000 C 75.296 90.831,75.200 90.378,75.200 89.587 C 75.200 88.947,75.110 88.368,75.000 88.300 C 74.890 88.232,74.800 87.422,74.800 86.500 C 74.800 85.578,74.890 84.768,75.000 84.700 C 75.110 84.632,75.200 84.042,75.200 83.388 C 75.200 82.465,75.267 82.200,75.500 82.200 C 75.710 82.200,75.800 81.989,75.800 81.500 C 75.800 81.115,75.890 80.800,76.000 80.800 C 76.110 80.800,76.200 80.585,76.200 80.321 C 76.200 80.058,76.335 79.791,76.500 79.728 C 76.665 79.664,76.800 79.430,76.800 79.206 C 76.800 78.983,76.890 78.800,77.000 78.800 C 77.110 78.800,77.200 78.575,77.200 78.300 C 77.200 77.989,77.313 77.800,77.500 77.800 C 77.665 77.800,77.800 77.665,77.800 77.500 C 77.800 77.335,77.890 77.200,78.000 77.200 C 78.110 77.200,78.200 76.975,78.200 76.700 C 78.200 76.425,78.296 76.200,78.414 76.200 C 78.691 76.200,79.200 75.691,79.200 75.414 C 79.200 75.296,79.296 75.200,79.414 75.200 C 79.532 75.200,79.757 75.071,79.914 74.914 C 80.071 74.757,80.200 74.532,80.200 74.414 C 80.200 74.296,80.335 74.200,80.500 74.200 C 80.665 74.200,80.800 74.110,80.800 74.000 C 80.800 73.890,80.924 73.800,81.076 73.800 C 81.227 73.800,81.463 73.665,81.600 73.500 C 81.737 73.335,82.018 73.200,82.224 73.200 C 82.431 73.200,82.600 73.110,82.600 73.000 C 82.600 72.890,82.918 72.800,83.306 72.800 C 83.750 72.800,84.055 72.688,84.128 72.500 C 84.216 72.269,84.600 72.200,85.797 72.200 C 86.934 72.200,87.418 72.280,87.600 72.500 M211.800 72.500 C 211.800 72.710,212.011 72.800,212.500 72.800 C 212.885 72.800,213.200 72.890,213.200 73.000 C 213.200 73.110,213.425 73.200,213.700 73.200 C 214.011 73.200,214.200 73.313,214.200 73.500 C 214.200 73.665,214.290 73.800,214.400 73.800 C 214.807 73.800,216.478 75.702,216.729 76.450 C 216.794 76.642,216.926 76.800,217.023 76.800 C 217.120 76.800,217.200 77.115,217.200 77.500 C 217.200 77.989,217.290 78.200,217.500 78.200 C 217.744 78.200,217.800 78.534,217.800 80.003 C 217.800 81.086,217.900 81.974,218.050 82.229 C 218.250 82.568,218.250 82.670,218.050 82.743 C 217.877 82.805,217.800 83.347,217.800 84.495 C 217.800 85.788,217.733 86.183,217.500 86.272 C 217.312 86.345,217.200 86.650,217.200 87.094 C 217.200 87.482,217.110 87.800,217.000 87.800 C 216.890 87.800,216.800 88.025,216.800 88.300 C 216.800 88.575,216.712 88.800,216.604 88.800 C 216.496 88.800,216.351 89.025,216.282 89.300 C 216.213 89.575,216.076 89.800,215.978 89.800 C 215.880 89.800,215.800 90.025,215.800 90.300 C 215.800 90.611,215.687 90.800,215.500 90.800 C 215.332 90.800,215.200 90.978,215.200 91.205 C 215.200 91.825,211.523 95.402,210.550 95.729 C 210.357 95.794,210.200 95.926,210.200 96.023 C 210.200 96.120,209.891 96.200,209.514 96.200 C 209.137 96.200,208.694 96.335,208.529 96.500 C 208.315 96.713,207.796 96.800,206.736 96.800 C 205.593 96.800,205.216 96.730,205.128 96.500 C 205.061 96.326,204.762 96.200,204.418 96.200 C 204.091 96.200,203.768 96.110,203.700 96.000 C 203.632 95.890,203.449 95.800,203.293 95.800 C 202.888 95.800,200.800 93.726,200.800 93.324 C 200.800 93.139,200.665 92.936,200.500 92.872 C 200.335 92.809,200.200 92.542,200.200 92.279 C 200.200 92.015,200.110 91.800,200.000 91.800 C 199.890 91.800,199.800 91.350,199.800 90.800 C 199.800 90.044,199.727 89.800,199.500 89.800 C 199.246 89.800,199.200 89.325,199.200 86.724 C 199.200 84.235,199.257 83.602,199.500 83.400 C 199.672 83.257,199.800 82.821,199.800 82.376 C 199.800 81.949,199.890 81.600,200.000 81.600 C 200.110 81.600,200.200 81.285,200.200 80.900 C 200.200 80.411,200.290 80.200,200.500 80.200 C 200.687 80.200,200.800 80.011,200.800 79.700 C 200.800 79.425,200.890 79.200,201.000 79.200 C 201.110 79.200,201.200 78.975,201.200 78.700 C 201.200 78.389,201.313 78.200,201.500 78.200 C 201.665 78.200,201.800 78.065,201.800 77.900 C 201.800 77.735,201.890 77.600,202.000 77.600 C 202.110 77.600,202.200 77.420,202.200 77.200 C 202.200 76.978,202.333 76.800,202.500 76.800 C 202.665 76.800,202.802 76.688,202.804 76.550 C 202.809 76.235,205.257 73.800,205.569 73.800 C 205.696 73.800,205.800 73.665,205.800 73.500 C 205.800 73.313,205.989 73.200,206.300 73.200 C 206.575 73.200,206.800 73.110,206.800 73.000 C 206.800 72.890,207.104 72.800,207.476 72.800 C 207.847 72.800,208.263 72.665,208.400 72.500 C 208.583 72.280,209.068 72.200,210.224 72.200 C 211.492 72.200,211.800 72.259,211.800 72.500 " stroke="none" fill="#0494d4" fill-rule="evenodd"></path><path id="path1" d="" stroke="none" fill="#0894d4" fill-rule="evenodd"></path><path id="path2" d="" stroke="none" fill="#0894d4" fill-rule="evenodd"></path><path id="path3" d="" stroke="none" fill="#0894d4" fill-rule="evenodd"></path><path id="path4" d="" stroke="none" fill="#0894d4" fill-rule="evenodd"></path></g></svg>